<?xml version="1.0" encoding="UTF-8"?>
<!DOCTYPE svg PUBLIC "-//W3C//DTD SVG 1.1//EN" "http://www.w3.org/Graphics/SVG/1.1/DTD/svg11.dtd">
<svg xmlns="http://www.w3.org/2000/svg" version="1.1" width="332px" height="105px" style="shape-rendering:geometricPrecision; text-rendering:geometricPrecision; image-rendering:optimizeQuality; fill-rule:evenodd; clip-rule:evenodd" xmlns:xlink="http://www.w3.org/1999/xlink">
<g><path style="opacity:1" fill="transparent" d="M -0.5,-0.5 C 110.167,-0.5 220.833,-0.5 331.5,-0.5C 331.5,34.5 331.5,69.5 331.5,104.5C 220.833,104.5 110.167,104.5 -0.5,104.5C -0.5,69.5 -0.5,34.5 -0.5,-0.5 Z"/></g>
<g><path style="opacity:1" fill="#060303" d="M 253.5,15.5 C 252.711,15.7828 252.044,16.2828 251.5,17C 255.781,17.7985 259.781,17.2985 263.5,15.5C 265.292,15.366 266.958,15.6993 268.5,16.5C 270.246,17.2176 270.912,18.2176 270.5,19.5C 271.736,18.7542 273.07,18.4208 274.5,18.5C 275.806,19.4674 276.473,20.8007 276.5,22.5C 278.806,22.9926 281.139,23.3259 283.5,23.5C 284.853,24.5261 285.853,25.8595 286.5,27.5C 285.5,27.5 284.5,27.5 283.5,27.5C 283.34,29.1992 283.506,30.8659 284,32.5C 286.343,33.1268 288.51,34.1268 290.5,35.5C 289.258,37.7897 287.592,39.623 285.5,41C 286.448,41.4828 287.448,41.6495 288.5,41.5C 288.5,42.5 288.5,43.5 288.5,44.5C 295.104,45.334 297.271,49.0006 295,55.5C 294.626,56.4162 294.126,57.2496 293.5,58C 295.134,58.4935 296.801,58.6602 298.5,58.5C 297.4,59.5585 296.066,60.3918 294.5,61C 295.056,61.3826 295.389,61.8826 295.5,62.5C 292.776,63.3898 290.443,64.8898 288.5,67C 284.538,66.8743 281.205,68.2076 278.5,71C 276.444,71.3108 274.444,71.8108 272.5,72.5C 271.614,73.325 271.281,74.325 271.5,75.5C 266.781,78.0759 261.781,79.4092 256.5,79.5C 250.564,79.1128 244.397,78.7795 238,78.5C 235.73,79.8599 233.23,80.5266 230.5,80.5C 226.644,79.8814 222.977,79.8814 219.5,80.5C 218.711,80.7828 218.044,81.2828 217.5,82C 212.118,82.2648 206.785,82.7648 201.5,83.5C 199.435,83.4828 197.435,83.1495 195.5,82.5C 190.126,82.8844 185.126,84.2178 180.5,86.5C 179.833,86.5 179.167,86.5 178.5,86.5C 165.083,88.2171 151.75,90.2171 138.5,92.5C 136.021,91.3773 133.688,91.3773 131.5,92.5C 129.5,92.5 127.5,92.5 125.5,92.5C 124.209,92.7373 123.209,92.404 122.5,91.5C 124.564,91.313 126.564,90.813 128.5,90C 125.076,89.2534 121.743,89.42 118.5,90.5C 116.588,91.7992 114.588,92.7992 112.5,93.5C 109.65,93.3639 106.817,93.0305 104,92.5C 101.24,92.6462 98.7402,93.3128 96.5,94.5C 95.5,94.5 94.5,94.5 93.5,94.5C 86.3127,93.7306 78.9794,93.0639 71.5,92.5C 70.1667,92.1667 70.1667,91.8333 71.5,91.5C 77.5312,90.9363 83.5312,90.1029 89.5,89C 82.3209,88.1787 75.3209,88.3454 68.5,89.5C 55.5208,87.3986 42.5208,85.3986 29.5,83.5C 29.1961,82.8501 28.8627,82.1835 28.5,81.5C 29.6016,80.8243 30.6016,80.1577 31.5,79.5C 34.4534,79.8504 36.7867,78.8504 38.5,76.5C 40.5273,76.6621 42.5273,76.4955 44.5,76C 44.9574,75.586 45.2907,75.086 45.5,74.5C 43.6778,74.5374 41.6778,74.204 39.5,73.5C 39.5,72.1667 39.5,70.8333 39.5,69.5C 44.3382,67.8547 49.3382,66.8547 54.5,66.5C 57.1267,65.8951 59.7934,65.3951 62.5,65C 63.6091,63.187 62.9424,62.3537 60.5,62.5C 60.1667,62.5 59.8333,62.5 59.5,62.5C 61.6074,61.5318 63.9407,61.1984 66.5,61.5C 66.7148,59.8212 66.0481,58.8212 64.5,58.5C 60.1235,58.0912 55.7902,57.4245 51.5,56.5C 54.6245,54.7755 57.9579,53.2755 61.5,52C 54.5671,51.909 47.9004,50.5757 41.5,48C 43.3817,47.8019 45.0484,47.3019 46.5,46.5C 54.8283,45.8421 62.4949,43.5088 69.5,39.5C 74.8512,40.0706 75.5178,39.0706 71.5,36.5C 79.1912,36.5965 86.8579,36.2632 94.5,35.5C 91.7092,36.7189 88.8759,38.0522 86,39.5C 85.5078,40.549 85.6744,41.549 86.5,42.5C 79.7265,53.6885 75.5599,65.6885 74,78.5C 74.5613,79.0219 75.228,79.3552 76,79.5C 81.6389,76.1331 87.4722,73.4664 93.5,71.5C 88.1072,70.1781 83.1072,71.1781 78.5,74.5C 78.1748,67.9778 80.1748,62.1444 84.5,57C 88.4728,55.9722 92.4728,55.1389 96.5,54.5C 96.5,53.5 96.5,52.5 96.5,51.5C 92.7512,51.7506 89.0845,52.4172 85.5,53.5C 86.6827,48.8005 88.6827,44.4672 91.5,40.5C 95.7416,39.2506 100.075,38.4173 104.5,38C 105.337,36.9887 105.67,35.8221 105.5,34.5C 104.167,34.5 102.833,34.5 101.5,34.5C 102.263,33.7321 103.263,33.2321 104.5,33C 105.085,31.6976 105.751,30.531 106.5,29.5C 108.404,29.7376 109.738,30.7376 110.5,32.5C 110.881,33.9311 111.881,34.7645 113.5,35C 112.062,35.2189 110.729,35.7189 109.5,36.5C 111.766,37.2058 114.099,37.0391 116.5,36C 115.837,34.4815 114.837,33.3149 113.5,32.5C 114.568,31.5655 115.901,31.2322 117.5,31.5C 118.167,31.5 118.833,31.5 119.5,31.5C 122.079,30.7724 124.746,30.2724 127.5,30C 125.942,29.79 124.609,29.29 123.5,28.5C 119.366,27.5151 115.032,27.1818 110.5,27.5C 111.209,26.596 112.209,26.2627 113.5,26.5C 115.869,26.2018 118.202,26.2018 120.5,26.5C 121.842,24.9951 123.508,24.3285 125.5,24.5C 130.363,24.1805 135.03,24.5139 139.5,25.5C 141.265,26.4614 143.265,26.7947 145.5,26.5C 146.167,26.1667 146.833,25.8333 147.5,25.5C 148.167,25.8333 148.833,26.1667 149.5,26.5C 150.091,27.1515 150.757,27.8182 151.5,28.5C 156.104,29.3163 160.604,29.6496 165,29.5C 165.308,28.6919 165.808,28.0253 166.5,27.5C 167.451,28.3256 168.451,28.4922 169.5,28C 167.937,26.0527 165.937,24.886 163.5,24.5C 162.607,21.5392 160.607,19.7059 157.5,19C 159.791,18.9846 161.958,18.8179 164,18.5C 166.94,20.4474 170.273,21.4474 174,21.5C 175.167,21.1667 176.333,20.8333 177.5,20.5C 175.255,17.0879 172.255,14.5879 168.5,13C 173.687,14.442 179.021,15.6087 184.5,16.5C 186.997,19.0818 189.997,20.5818 193.5,21C 191.833,19.8333 190.167,18.6667 188.5,17.5C 189.325,16.6143 190.325,16.281 191.5,16.5C 193.372,17.5114 195.372,18.3448 197.5,19C 204.679,19.1715 211.679,19.6715 218.5,20.5C 228.853,19.5526 239.186,18.386 249.5,17C 250.46,15.5806 251.293,14.0806 252,12.5C 253.388,11.4464 254.888,11.2797 256.5,12C 255.186,12.985 254.186,14.1516 253.5,15.5 Z"/></g>
<g><path style="opacity:1" fill="#a3a3a3" d="M 191.5,16.5 C 190.325,16.281 189.325,16.6143 188.5,17.5C 190.167,18.6667 191.833,19.8333 193.5,21C 189.997,20.5818 186.997,19.0818 184.5,16.5C 186.979,15.3773 189.312,15.3773 191.5,16.5 Z"/></g>
<g><path style="opacity:1" fill="#b1b1b1" d="M 263.5,15.5 C 259.781,17.2985 255.781,17.7985 251.5,17C 252.044,16.2828 252.711,15.7828 253.5,15.5C 256.43,17.0743 258.93,16.4076 261,13.5C 261.417,14.756 262.25,15.4226 263.5,15.5 Z"/></g>
<g><path style="opacity:1" fill="#555555" d="M 268.5,16.5 C 271.187,16.3359 273.854,16.5026 276.5,17C 275.584,17.2784 274.918,17.7784 274.5,18.5C 273.07,18.4208 271.736,18.7542 270.5,19.5C 270.912,18.2176 270.246,17.2176 268.5,16.5 Z"/></g>
<g><path style="opacity:1" fill="#b0000e" d="M 218.5,20.5 C 218.5,21.1667 218.5,21.8333 218.5,22.5C 218.5,22.8333 218.5,23.1667 218.5,23.5C 215.856,26.7734 213.689,30.4401 212,34.5C 208.137,44.4232 204.47,54.4232 201,64.5C 199.445,66.5152 197.611,66.8485 195.5,65.5C 194.721,60.8867 194.221,56.22 194,51.5C 191.541,57.5589 188.708,63.3922 185.5,69C 184.216,69.6838 183.049,69.5171 182,68.5C 181.368,62.7858 181.701,57.1191 183,51.5C 185.136,42.761 187.47,34.0943 190,25.5C 190.414,25.0426 190.914,24.7093 191.5,24.5C 191.833,25.6667 192.167,26.8333 192.5,28C 191.411,33.9347 189.911,39.768 188,45.5C 186.801,50.8123 186.134,56.1456 186,61.5C 189.257,55.3186 192.257,48.9852 195,42.5C 195.899,40.6734 197.233,39.34 199,38.5C 199.5,38.8333 200,39.1667 200.5,39.5C 197.488,46.4366 196.988,53.4366 199,60.5C 202.782,47.1476 208.115,34.4809 215,22.5C 215.816,21.1772 216.983,20.5106 218.5,20.5 Z"/></g>
<g><path style="opacity:1" fill="#4d4c4c" d="M 218.5,23.5 C 218.5,23.1667 218.5,22.8333 218.5,22.5C 222.146,21.7166 225.812,21.5499 229.5,22C 225.886,22.9358 222.22,23.4358 218.5,23.5 Z"/></g>
<g><path style="opacity:1" fill="#2b2b2b" d="M 125.5,24.5 C 125.5,24.1667 125.5,23.8333 125.5,23.5C 133.507,23.3336 141.507,23.5003 149.5,24C 148.584,24.2784 147.918,24.7784 147.5,25.5C 146.833,25.8333 146.167,26.1667 145.5,26.5C 144.012,24.1546 142.012,23.8212 139.5,25.5C 135.03,24.5139 130.363,24.1805 125.5,24.5 Z"/></g>
<g><path style="opacity:1" fill="#787878" d="M 125.5,23.5 C 125.5,23.8333 125.5,24.1667 125.5,24.5C 123.508,24.3285 121.842,24.9951 120.5,26.5C 118.202,26.2018 115.869,26.2018 113.5,26.5C 114.598,25.603 114.598,24.7697 113.5,24C 117.486,23.5012 121.486,23.3345 125.5,23.5 Z"/></g>
<g><path style="opacity:1" fill="#e7e7e7" d="M 145.5,26.5 C 143.265,26.7947 141.265,26.4614 139.5,25.5C 142.012,23.8212 144.012,24.1546 145.5,26.5 Z"/></g>
<g><path style="opacity:1" fill="#959595" d="M 163.5,24.5 C 165.937,24.886 167.937,26.0527 169.5,28C 168.451,28.4922 167.451,28.3256 166.5,27.5C 165.808,28.0253 165.308,28.6919 165,29.5C 160.604,29.6496 156.104,29.3163 151.5,28.5C 150.757,27.8182 150.091,27.1515 149.5,26.5C 153.324,28.1805 157.324,28.6805 161.5,28C 156.98,23.7651 157.647,22.5984 163.5,24.5 Z"/></g>
<g><path style="opacity:1" fill="#8e8e8e" d="M 283.5,23.5 C 286.394,23.5564 289.061,24.3897 291.5,26C 289.846,26.6077 288.179,27.1077 286.5,27.5C 285.853,25.8595 284.853,24.5261 283.5,23.5 Z"/></g>
<g><path style="opacity:1" fill="#cbcbcb" d="M 110.5,27.5 C 115.032,27.1818 119.366,27.5151 123.5,28.5C 121.027,28.0882 119.694,29.0882 119.5,31.5C 118.833,31.5 118.167,31.5 117.5,31.5C 117.611,30.8826 117.944,30.3826 118.5,30C 115.722,28.5621 113.056,28.5621 110.5,30C 111.691,30.6979 112.691,31.5313 113.5,32.5C 112.652,33.625 111.652,33.625 110.5,32.5C 109.738,30.7376 108.404,29.7376 106.5,29.5C 107.514,28.3263 108.847,27.6596 110.5,27.5 Z"/></g>
<g><path style="opacity:1" fill="#666666" d="M 123.5,28.5 C 124.609,29.29 125.942,29.79 127.5,30C 124.746,30.2724 122.079,30.7724 119.5,31.5C 119.694,29.0882 121.027,28.0882 123.5,28.5 Z"/></g>
<g><path style="opacity:1" fill="#5d5d5d" d="M 117.5,31.5 C 115.901,31.2322 114.568,31.5655 113.5,32.5C 112.691,31.5313 111.691,30.6979 110.5,30C 113.056,28.5621 115.722,28.5621 118.5,30C 117.944,30.3826 117.611,30.8826 117.5,31.5 Z"/></g>
<g><path style="opacity:1" fill="#b0010f" d="M 101.5,34.5 C 102.833,34.5 104.167,34.5 105.5,34.5C 105.67,35.8221 105.337,36.9887 104.5,38C 100.075,38.4173 95.7416,39.2506 91.5,40.5C 88.6827,44.4672 86.6827,48.8005 85.5,53.5C 89.0845,52.4172 92.7512,51.7506 96.5,51.5C 96.5,52.5 96.5,53.5 96.5,54.5C 92.4728,55.1389 88.4728,55.9722 84.5,57C 80.1748,62.1444 78.1748,67.9778 78.5,74.5C 83.1072,71.1781 88.1072,70.1781 93.5,71.5C 87.4722,73.4664 81.6389,76.1331 76,79.5C 75.228,79.3552 74.5613,79.0219 74,78.5C 75.5599,65.6885 79.7265,53.6885 86.5,42.5C 85.6744,41.549 85.5078,40.549 86,39.5C 88.8759,38.0522 91.7092,36.7189 94.5,35.5C 96.8056,35.0074 99.139,34.6741 101.5,34.5 Z"/></g>
<g><path style="opacity:1" fill="#858585" d="M 110.5,32.5 C 111.652,33.625 112.652,33.625 113.5,32.5C 114.837,33.3149 115.837,34.4815 116.5,36C 114.099,37.0391 111.766,37.2058 109.5,36.5C 110.729,35.7189 112.062,35.2189 113.5,35C 111.881,34.7645 110.881,33.9311 110.5,32.5 Z"/></g>
<g><path style="opacity:1" fill="#9c9c9c" d="M 71.5,36.5 C 75.5178,39.0706 74.8512,40.0706 69.5,39.5C 69.9321,38.2905 70.5987,37.2905 71.5,36.5 Z"/></g>
<g><path style="opacity:1" fill="#a8000e" d="M 147.5,30.5 C 149.948,30.0101 151.615,30.8434 152.5,33C 149.171,43.4944 143.671,52.6611 136,60.5C 134.503,69.4022 136.003,69.5688 140.5,61C 141.332,60.3123 141.998,60.479 142.5,61.5C 140.943,65.7236 138.276,69.0569 134.5,71.5C 132.495,70.6628 131.495,69.1628 131.5,67C 134.55,53.7418 139.884,41.5752 147.5,30.5 Z"/></g>
<g><path style="opacity:1" fill="#160100" d="M 147.5,34.5 C 147.344,41.724 144.511,48.0573 139,53.5C 140.177,46.4854 143.01,40.152 147.5,34.5 Z"/></g>
<g><path style="opacity:1" fill="#af000e" d="M 237.5,38.5 C 239.144,38.2865 240.644,38.6198 242,39.5C 242.58,43.9424 242.08,48.2757 240.5,52.5C 241.219,54.9974 242.219,57.3307 243.5,59.5C 240.27,59.439 238.437,57.7723 238,54.5C 236.954,56.0905 235.787,57.5905 234.5,59C 232.888,59.7203 231.388,59.5536 230,58.5C 228.848,50.4693 231.348,43.8026 237.5,38.5 Z"/></g>
<g><path style="opacity:1" fill="#ab000e" d="M 258.5,37.5 C 262.157,37.974 262.324,39.3074 259,41.5C 258.333,42.5 258.333,43.5 259,44.5C 265.463,40.6375 265.963,41.4709 260.5,47C 257.975,47.8959 255.808,47.3959 254,45.5C 250.888,50.0687 248.055,54.7354 245.5,59.5C 244.825,51.524 247.159,44.524 252.5,38.5C 253.242,40.1082 253.409,41.7749 253,43.5C 255.04,41.6298 256.873,39.6298 258.5,37.5 Z"/></g>
<g><path style="opacity:1" fill="#aa000e" d="M 220.5,41.5 C 221.5,41.5 222.5,41.5 223.5,41.5C 223.752,44.3198 223.252,46.9865 222,49.5C 219.624,52.0448 217.124,54.3782 214.5,56.5C 216.421,57.641 218.421,57.8077 220.5,57C 222.684,54.9835 224.684,52.8169 226.5,50.5C 227.583,51.365 227.749,52.365 227,53.5C 224.131,57.3834 220.465,60.0501 216,61.5C 214.289,61.5607 212.956,60.8941 212,59.5C 210.988,51.6801 213.821,45.6801 220.5,41.5 Z"/></g>
<g><path style="opacity:1" fill="#0f0100" d="M 237.5,42.5 C 238.675,42.281 239.675,42.6143 240.5,43.5C 238.64,47.0825 236.973,50.7492 235.5,54.5C 234.675,55.3857 233.675,55.719 232.5,55.5C 232.226,50.3881 233.892,46.0547 237.5,42.5 Z"/></g>
<g><path style="opacity:1" fill="#180200" d="M 219.5,45.5 C 220.239,45.369 220.906,45.5357 221.5,46C 220.477,48.8972 218.643,51.0638 216,52.5C 216.066,49.6999 217.233,47.3666 219.5,45.5 Z"/></g>
<g><path style="opacity:1" fill="#ae000e" d="M 152.5,49.5 C 156.225,49.7796 157.392,51.7796 156,55.5C 154,58.8333 151.333,61.5 148,63.5C 147.699,66.0915 148.866,66.9248 151.5,66C 154.5,64.3333 156.833,62 158.5,59C 159.332,58.3123 159.998,58.479 160.5,59.5C 157.779,65.7482 153.112,68.9149 146.5,69C 144.496,66.1592 143.996,62.9926 145,59.5C 146.947,55.7238 149.447,52.3904 152.5,49.5 Z"/></g>
<g><path style="opacity:1" fill="#ae000e" d="M 121.5,52.5 C 123.948,52.0101 125.615,52.8434 126.5,55C 125.305,56.5325 125.305,58.0325 126.5,59.5C 121.045,71.1419 121.879,71.4752 129,60.5C 129.889,59.1118 130.389,59.2785 130.5,61C 128.499,66.0075 125.333,70.1741 121,73.5C 119,78.1667 117,82.8333 115,87.5C 109.227,93.5199 106.227,92.5199 106,84.5C 109.522,79.6447 113.689,75.4781 118.5,72C 118.333,71.5 118.167,71 118,70.5C 114.828,73.3883 112.661,72.7216 111.5,68.5C 112.844,61.7887 116.177,56.4554 121.5,52.5 Z"/></g>
<g><path style="opacity:1" fill="#190200" d="M 151.5,53.5 C 153.225,53.8425 153.725,54.8425 153,56.5C 151.667,57.8333 150.333,59.1667 149,60.5C 148.993,57.9578 149.826,55.6245 151.5,53.5 Z"/></g>
<g><path style="opacity:1" fill="#b6b6b6" d="M 46.5,46.5 C 45.0484,47.3019 43.3817,47.8019 41.5,48C 47.9004,50.5757 54.5671,51.909 61.5,52C 57.9579,53.2755 54.6245,54.7755 51.5,56.5C 45.5581,56.7884 45.2248,55.9551 50.5,54C 34.5,53.3333 34.5,52.6667 50.5,52C 47.2206,50.8514 43.8873,50.0181 40.5,49.5C 40.5,48.5 40.5,47.5 40.5,46.5C 42.5,46.5 44.5,46.5 46.5,46.5 Z"/></g>
<g><path style="opacity:1" fill="#b1000e" d="M 105.5,54.5 C 106.822,54.33 107.989,54.6634 109,55.5C 109.58,59.9424 109.08,64.2757 107.5,68.5C 108.219,70.9974 109.219,73.3307 110.5,75.5C 107.27,75.439 105.437,73.7723 105,70.5C 103.387,75.2148 100.72,76.2148 97,73.5C 96.0399,65.4236 98.8732,59.0903 105.5,54.5 Z"/></g>
<g><path style="opacity:1" fill="#180200" d="M 121.5,55.5 C 123.225,55.8425 123.725,56.8425 123,58.5C 121.289,60.9562 119.956,63.6229 119,66.5C 114.556,70.3839 113.556,69.3839 116,63.5C 117.273,60.4027 119.107,57.7361 121.5,55.5 Z"/></g>
<g><path style="opacity:1" fill="#110100" d="M 104.5,58.5 C 105.675,58.281 106.675,58.6143 107.5,59.5C 106.027,63.2508 104.36,66.9175 102.5,70.5C 101.675,71.3857 100.675,71.719 99.5,71.5C 99.2255,66.3881 100.892,62.0547 104.5,58.5 Z"/></g>
<g><path style="opacity:1" fill="#696969" d="M 64.5,58.5 C 66.0481,58.8212 66.7148,59.8212 66.5,61.5C 63.9407,61.1984 61.6074,61.5318 59.5,62.5C 58.9569,62.44 58.6236,62.1067 58.5,61.5C 60.7662,60.6858 63.0995,60.1858 65.5,60C 64.944,59.6174 64.6107,59.1174 64.5,58.5 Z"/></g>
<g><path style="opacity:1" fill="#868686" d="M 295.5,62.5 C 295.389,61.8826 295.056,61.3826 294.5,61C 296.066,60.3918 297.4,59.5585 298.5,58.5C 300.225,57.095 302.225,56.595 304.5,57C 301.615,59.0587 298.615,60.8921 295.5,62.5 Z"/></g>
<g><path style="opacity:1" fill="#7c7c7c" d="M 60.5,62.5 C 62.9424,62.3537 63.6091,63.187 62.5,65C 59.7934,65.3951 57.1267,65.8951 54.5,66.5C 56.5,65.1667 58.5,63.8333 60.5,62.5 Z"/></g>
<g><path style="opacity:1" fill="#989898" d="M 39.5,69.5 C 39.5,70.8333 39.5,72.1667 39.5,73.5C 41.6778,74.204 43.6778,74.5374 45.5,74.5C 45.2907,75.086 44.9574,75.586 44.5,76C 42.5273,76.4955 40.5273,76.6621 38.5,76.5C 38.7135,74.8561 38.3802,73.3561 37.5,72C 38.0659,71.0053 38.7326,70.172 39.5,69.5 Z"/></g>
<g><path style="opacity:1" fill="#1d0300" d="M 114.5,77.5 C 115.376,77.3691 116.043,77.7025 116.5,78.5C 115.333,80.8333 114.167,83.1667 113,85.5C 112.092,87.4386 110.592,88.4386 108.5,88.5C 109.198,84.1026 111.198,80.4359 114.5,77.5 Z"/></g>
<g><path style="opacity:1" fill="#515151" d="M 31.5,79.5 C 30.6016,80.1577 29.6016,80.8243 28.5,81.5C 28.8627,82.1835 29.1961,82.8501 29.5,83.5C 26.1849,82.6712 22.8516,81.8379 19.5,81C 23.4183,79.8436 27.4183,79.3436 31.5,79.5 Z"/></g>
<g><path style="opacity:1" fill="#505050" d="M 219.5,80.5 C 222.977,79.8814 226.644,79.8814 230.5,80.5C 226.994,81.498 223.328,81.498 219.5,80.5 Z"/></g>
<g><path style="opacity:1" fill="#676767" d="M 195.5,82.5 C 197.435,83.1495 199.435,83.4828 201.5,83.5C 200.726,84.1471 199.726,84.4805 198.5,84.5C 196.97,84.3601 195.97,83.6935 195.5,82.5 Z"/></g>
<g><path style="opacity:1" fill="#727272" d="M 178.5,86.5 C 179.167,86.5 179.833,86.5 180.5,86.5C 179.305,90.2861 178.638,90.2861 178.5,86.5 Z"/></g>
<g><path style="opacity:1" fill="#939393" d="M 68.5,89.5 C 75.3209,88.3454 82.3209,88.1787 89.5,89C 83.5312,90.1029 77.5312,90.9363 71.5,91.5C 71.6107,90.8826 71.944,90.3826 72.5,90C 71.2068,89.51 69.8734,89.3433 68.5,89.5 Z"/></g>
<g><path style="opacity:1" fill="#a3a3a3" d="M 122.5,91.5 C 120.901,91.7678 119.568,91.4345 118.5,90.5C 121.743,89.42 125.076,89.2534 128.5,90C 126.564,90.813 124.564,91.313 122.5,91.5 Z"/></g>
<g><path style="opacity:1" fill="#858585" d="M 131.5,92.5 C 133.688,91.3773 136.021,91.3773 138.5,92.5C 136.374,93.1032 134.041,93.1032 131.5,92.5 Z"/></g>
<g><path style="opacity:1" fill="#7b7b7b" d="M 112.5,93.5 C 107.36,94.4881 102.026,94.8214 96.5,94.5C 98.7402,93.3128 101.24,92.6462 104,92.5C 106.817,93.0305 109.65,93.3639 112.5,93.5 Z"/></g>
<g><path style="opacity:1" fill="#666666" d="M 118.5,90.5 C 119.568,91.4345 120.901,91.7678 122.5,91.5C 123.209,92.404 124.209,92.7373 125.5,92.5C 121.366,93.4849 117.032,93.8182 112.5,93.5C 114.588,92.7992 116.588,91.7992 118.5,90.5 Z"/></g>
<g><path style="opacity:1" fill="#8b8b8b" d="M 71.5,92.5 C 78.9794,93.0639 86.3127,93.7306 93.5,94.5C 85.7572,95.1299 78.4238,94.4633 71.5,92.5 Z"/></g>
</svg>
