<?xml version="1.0" encoding="UTF-8"?>
<!DOCTYPE svg PUBLIC "-//W3C//DTD SVG 1.1//EN" "http://www.w3.org/Graphics/SVG/1.1/DTD/svg11.dtd">
<svg xmlns="http://www.w3.org/2000/svg" version="1.1" width="291px" height="143px" style="shape-rendering:geometricPrecision; text-rendering:geometricPrecision; image-rendering:optimizeQuality; fill-rule:evenodd; clip-rule:evenodd" xmlns:xlink="http://www.w3.org/1999/xlink">
<g><path style="opacity:1" fill="transparent" d="M 47.5,-0.5 C 60.8333,-0.5 74.1667,-0.5 87.5,-0.5C 86.8982,1.33785 86.5649,3.17119 86.5,5C 87.624,5.24917 88.624,5.74917 89.5,6.5C 90.1667,9.16667 90.8333,11.8333 91.5,14.5C 92,14.8333 92.5,15.1667 93,15.5C 94.098,14.6161 94.598,13.6161 94.5,12.5C 95.4287,13.6888 95.762,15.0222 95.5,16.5C 96.8734,16.3433 98.2068,16.51 99.5,17C 99.1667,17.3333 98.8333,17.6667 98.5,18C 99.5,18.3333 100.5,18.6667 101.5,19C 100.044,19.4226 99.5439,20.2559 100,21.5C 104.49,24.2505 104.157,26.5838 99,28.5C 98.6496,32.3814 99.1496,36.0481 100.5,39.5C 100.5,40.1667 100.5,40.8333 100.5,41.5C 99.0011,42.494 97.3344,42.494 95.5,41.5C 101.103,27.2118 96.7701,17.3785 82.5,12C 74.0758,10.5468 67.0758,13.0468 61.5,19.5C 61.2454,18.0639 60.9121,16.5639 60.5,15C 59.2575,14.6886 58.2575,15.1886 57.5,16.5C 54.919,15.3196 55.0857,14.3196 58,13.5C 58.6877,12.6683 58.521,12.0016 57.5,11.5C 56.5745,12.6405 55.7412,12.6405 55,11.5C 54.3333,12.1667 53.6667,12.8333 53,13.5C 50.8552,10.8336 48.3552,8.8336 45.5,7.5C 45.6427,5.73759 45.3094,4.07092 44.5,2.5C 45.2739,1.28882 46.1072,1.28882 47,2.5C 47.4828,1.55198 47.6495,0.551975 47.5,-0.5 Z"/></g>
<g><path style="opacity:1" fill="transparent" d="M 87.5,-0.5 C 104.167,-0.5 120.833,-0.5 137.5,-0.5C 138.791,0.472826 138.791,1.47283 137.5,2.5C 134.796,3.57215 132.13,4.57215 129.5,5.5C 129.178,7.72241 129.845,9.55575 131.5,11C 130.449,12.3848 129.116,13.3848 127.5,14C 128.167,14.6667 128.833,15.3333 129.5,16C 125.921,17.2622 122.588,18.9289 119.5,21C 120.662,21.8271 121.829,22.6604 123,23.5C 123.772,23.3552 124.439,23.0219 125,22.5C 124.503,24.1984 124.67,25.8651 125.5,27.5C 123.955,28.4519 122.288,28.7852 120.5,28.5C 108.263,22.2827 101.596,25.9494 100.5,39.5C 99.1496,36.0481 98.6496,32.3814 99,28.5C 104.157,26.5838 104.49,24.2505 100,21.5C 99.5439,20.2559 100.044,19.4226 101.5,19C 100.5,18.6667 99.5,18.3333 98.5,18C 98.8333,17.6667 99.1667,17.3333 99.5,17C 98.2068,16.51 96.8734,16.3433 95.5,16.5C 95.762,15.0222 95.4287,13.6888 94.5,12.5C 94.598,13.6161 94.098,14.6161 93,15.5C 92.5,15.1667 92,14.8333 91.5,14.5C 90.8333,11.8333 90.1667,9.16667 89.5,6.5C 88.624,5.74917 87.624,5.24917 86.5,5C 86.5649,3.17119 86.8982,1.33785 87.5,-0.5 Z"/></g>
<g><path style="opacity:1" fill="transparent" d="M 146.5,-0.5 C 169.5,-0.5 192.5,-0.5 215.5,-0.5C 214.898,1.33785 214.565,3.17119 214.5,5C 215.624,5.24917 216.624,5.74917 217.5,6.5C 218.167,9.16667 218.833,11.8333 219.5,14.5C 220.5,15.8333 221.5,15.8333 222.5,14.5C 222.291,13.914 221.957,13.414 221.5,13C 223.754,11.8495 226.087,11.5162 228.5,12C 227.672,12.9147 226.672,13.5814 225.5,14C 227.085,14.0848 228.418,14.2514 229.5,14.5C 228.271,15.2811 226.938,15.7811 225.5,16C 225.952,17.6124 227.285,18.6124 229.5,19C 228.692,19.3076 228.025,19.8076 227.5,20.5C 228.5,22.1667 229.833,23.5 231.5,24.5C 228.012,26.8009 224.679,29.9676 221.5,34C 220.552,34.4828 219.552,34.6495 218.5,34.5C 218.719,33.325 218.386,32.325 217.5,31.5C 217.089,32.2624 216.923,33.2624 217,34.5C 216.014,33.8288 214.847,33.8288 213.5,34.5C 212.833,34.8333 212.167,35.1667 211.5,35.5C 208.484,35.3893 207.651,34.3893 209,32.5C 210.557,33.2052 211.723,32.5385 212.5,30.5C 211.044,30.6778 209.711,29.8445 208.5,28C 211.993,28.82 213.16,27.32 212,23.5C 211.641,26.5443 210.974,26.8776 210,24.5C 208.783,25.3859 207.449,26.3859 206,27.5C 205.691,26.2341 205.191,25.0674 204.5,24C 206.095,24.6171 207.428,24.2837 208.5,23C 206.068,21.9125 206.402,21.4125 209.5,21.5C 209.64,19.8762 208.973,18.7096 207.5,18C 208.167,17 208.833,16 209.5,15C 208.551,14.3828 207.718,14.5494 207,15.5C 206.784,17.3839 206.117,19.0506 205,20.5C 203.272,18.1582 201.605,15.8249 200,13.5C 198.413,14.727 197.079,14.3937 196,12.5C 195.667,13.1667 195.333,13.8333 195,14.5C 194.242,12.2305 194.409,10.0639 195.5,8C 194.365,7.25061 193.365,7.41728 192.5,8.5C 192.52,11.0276 192.187,13.3609 191.5,15.5C 188.843,11.9103 185.843,8.57693 182.5,5.5C 181.915,7.86483 180.748,9.86483 179,11.5C 176.966,9.44017 174.966,9.7735 173,12.5C 171.42,8.67271 169.92,8.83938 168.5,13C 169.84,15.1785 169.507,15.6785 167.5,14.5C 165.629,14.8588 164.129,15.8588 163,17.5C 163.195,15.255 164.362,13.4216 166.5,12C 163.833,11.3333 163.833,10.6667 166.5,10C 165.3,7.3235 163.633,7.3235 161.5,10C 162.654,10.9138 162.487,11.7471 161,12.5C 160.346,11.3044 159.846,11.3044 159.5,12.5C 160.641,13.4255 160.641,14.2588 159.5,15C 161.125,15.8525 161.458,16.8525 160.5,18C 161.167,18.3333 161.833,18.6667 162.5,19C 161.034,19.6355 159.7,20.4688 158.5,21.5C 157.269,20.3493 157.269,19.1827 158.5,18C 155.741,17.0226 153.741,17.856 152.5,20.5C 153.274,21.7112 154.107,21.7112 155,20.5C 157.966,22.9325 157.8,24.4325 154.5,25C 154.833,25.3333 155.167,25.6667 155.5,26C 157.721,26.5547 160.054,26.388 162.5,25.5C 162.649,26.552 162.483,27.552 162,28.5C 159.204,27.7887 156.37,27.122 153.5,26.5C 153.446,27.6869 153.113,29.0202 152.5,30.5C 151.304,30.1543 151.304,29.6543 152.5,29C 151.5,28.3333 150.5,28.3333 149.5,29C 147.497,30.3344 145.997,31.8344 145,33.5C 144.457,28.6035 143.124,28.6035 141,33.5C 139.833,32.3333 138.667,31.1667 137.5,30C 140.71,28.8185 141.21,26.9852 139,24.5C 137.204,23.233 135.371,23.233 133.5,24.5C 132.713,23.7579 132.047,22.9246 131.5,22C 132.833,22 134.167,22 135.5,22C 136.833,21 136.833,20 135.5,19C 136.623,17.9563 137.956,17.2896 139.5,17C 139.167,16.6667 138.833,16.3333 138.5,16C 140.455,15.0467 142.122,13.7134 143.5,12C 142.428,10.7163 141.095,10.3829 139.5,11C 140.623,9.95627 141.956,9.28961 143.5,9C 141.487,8.12466 141.487,6.79133 143.5,5C 142.353,3.7189 142.687,3.38556 144.5,4C 145.126,4.75044 145.626,5.58377 146,6.5C 146.333,6.16667 146.667,5.83333 147,5.5C 147.419,9.85177 148.086,10.1851 149,6.5C 149.333,6.83333 149.667,7.16667 150,7.5C 152.066,5.36001 154.4,4.69334 157,5.5C 157.982,4.24109 158.315,2.90775 158,1.5C 156.853,2.45805 155.853,2.12472 155,0.5C 152.503,2.47815 149.669,2.97815 146.5,2C 147.167,1.66667 147.833,1.33333 148.5,1C 147.584,0.721579 146.918,0.221579 146.5,-0.5 Z"/></g>
<g><path style="opacity:1" fill="transparent" d="M 215.5,-0.5 C 232.167,-0.5 248.833,-0.5 265.5,-0.5C 266.791,0.472826 266.791,1.47283 265.5,2.5C 262.796,3.57215 260.13,4.57215 257.5,5.5C 257.178,7.72241 257.845,9.55575 259.5,11C 258.449,12.3848 257.116,13.3848 255.5,14C 256.167,14.6667 256.833,15.3333 257.5,16C 253.921,17.2622 250.588,18.9289 247.5,21C 248.662,21.8271 249.829,22.6604 251,23.5C 251.772,23.3552 252.439,23.0219 253,22.5C 252.503,24.1984 252.67,25.8651 253.5,27.5C 251.535,28.2922 249.535,28.9588 247.5,29.5C 246.614,30.325 246.281,31.325 246.5,32.5C 247.552,32.3505 248.552,32.5172 249.5,33C 248.952,34.5961 249.618,35.7627 251.5,36.5C 247.487,36.5196 246.82,37.853 249.5,40.5C 248.25,43.0486 246.25,44.382 243.5,44.5C 237.812,43.531 234.812,45.8643 234.5,51.5C 233.251,53.1361 231.584,54.3028 229.5,55C 230.167,55.3333 230.833,55.6667 231.5,56C 230,56.8333 228.833,58 228,59.5C 226.68,59.201 225.18,59.0343 223.5,59C 225.833,57.7574 226.5,56.0907 225.5,54C 226.179,52.0707 227.179,50.0707 228.5,48C 227.07,45.8075 225.403,43.8075 223.5,42C 225.126,42.1953 226.793,42.1953 228.5,42C 227.687,40.197 226.52,38.697 225,37.5C 224.055,37.9054 223.388,38.572 223,39.5C 221.216,35.2207 218.55,34.5541 215,37.5C 214.487,36.4734 213.987,35.4734 213.5,34.5C 214.847,33.8288 216.014,33.8288 217,34.5C 216.923,33.2624 217.089,32.2624 217.5,31.5C 218.386,32.325 218.719,33.325 218.5,34.5C 219.552,34.6495 220.552,34.4828 221.5,34C 224.679,29.9676 228.012,26.8009 231.5,24.5C 229.833,23.5 228.5,22.1667 227.5,20.5C 228.025,19.8076 228.692,19.3076 229.5,19C 227.285,18.6124 225.952,17.6124 225.5,16C 226.938,15.7811 228.271,15.2811 229.5,14.5C 228.418,14.2514 227.085,14.0848 225.5,14C 226.672,13.5814 227.672,12.9147 228.5,12C 226.087,11.5162 223.754,11.8495 221.5,13C 221.957,13.414 222.291,13.914 222.5,14.5C 221.5,15.8333 220.5,15.8333 219.5,14.5C 218.833,11.8333 218.167,9.16667 217.5,6.5C 216.624,5.74917 215.624,5.24917 214.5,5C 214.565,3.17119 214.898,1.33785 215.5,-0.5 Z"/></g>
<g><path style="opacity:1" fill="transparent" d="M -0.5,-0.5 C 15.5,-0.5 31.5,-0.5 47.5,-0.5C 47.6495,0.551975 47.4828,1.55198 47,2.5C 46.1072,1.28882 45.2739,1.28882 44.5,2.5C 45.3094,4.07092 45.6427,5.73759 45.5,7.5C 48.3552,8.8336 50.8552,10.8336 53,13.5C 53.6667,12.8333 54.3333,12.1667 55,11.5C 55.7412,12.6405 56.5745,12.6405 57.5,11.5C 58.521,12.0016 58.6877,12.6683 58,13.5C 55.0857,14.3196 54.919,15.3196 57.5,16.5C 58.2575,15.1886 59.2575,14.6886 60.5,15C 60.9121,16.5639 61.2454,18.0639 61.5,19.5C 60.5041,19.5858 59.6708,19.2524 59,18.5C 58.5172,19.448 58.3505,20.448 58.5,21.5C 57.448,21.3505 56.448,21.5172 55.5,22C 56.1958,23.488 55.8625,24.988 54.5,26.5C 54.1667,25.8333 53.8333,25.1667 53.5,24.5C 52.7348,25.6119 51.7348,26.2786 50.5,26.5C 35.5785,23.2529 30.0785,28.9196 34,43.5C 36.0287,46.5956 38.862,48.2623 42.5,48.5C 42.6107,49.1174 42.944,49.6174 43.5,50C 40.5184,50.498 37.5184,50.6646 34.5,50.5C 33.2689,49.2823 32.1022,47.949 31,46.5C 29.6667,46.5 28.3333,46.5 27,46.5C 25.8631,47.364 24.5298,48.364 23,49.5C 20.8526,48.8875 18.686,48.2208 16.5,47.5C 14.913,45.5539 15.2464,44.0539 17.5,43C 15.7721,41.2745 13.7721,39.9411 11.5,39C 14.1667,38.3333 14.1667,37.6667 11.5,37C 13.8912,36.3086 13.8912,35.3086 11.5,34C 10,32.8333 8.5,31.6667 7,30.5C 4.5018,30.73 2.0018,31.0633 -0.5,31.5C -0.5,20.8333 -0.5,10.1667 -0.5,-0.5 Z"/></g>
<g><path style="opacity:1" fill="transparent" d="M 274.5,-0.5 C 279.833,-0.5 285.167,-0.5 290.5,-0.5C 290.5,11.5 290.5,23.5 290.5,35.5C 289.778,35.9175 289.278,36.5842 289,37.5C 288.511,35.3956 287.345,35.0622 285.5,36.5C 283.87,35.5786 282.203,34.7453 280.5,34C 281.448,33.5172 282.448,33.3505 283.5,33.5C 283.259,30.001 284.092,29.6677 286,32.5C 288.167,31 288,29.8333 285.5,29C 286.833,28.6667 288.167,28.3333 289.5,28C 286.776,27.7305 284.109,27.2305 281.5,26.5C 281.446,27.6869 281.113,29.0202 280.5,30.5C 279.304,30.1543 279.304,29.6543 280.5,29C 279.5,28.3333 278.5,28.3333 277.5,29C 275.497,30.3344 273.997,31.8344 273,33.5C 272.457,28.6035 271.124,28.6035 269,33.5C 267.833,32.3333 266.667,31.1667 265.5,30C 268.71,28.8185 269.21,26.9852 267,24.5C 265.204,23.233 263.371,23.233 261.5,24.5C 260.713,23.7579 260.047,22.9246 259.5,22C 260.833,22 262.167,22 263.5,22C 264.833,21 264.833,20 263.5,19C 264.623,17.9563 265.956,17.2896 267.5,17C 267.167,16.6667 266.833,16.3333 266.5,16C 268.455,15.0467 270.122,13.7134 271.5,12C 270.428,10.7163 269.095,10.3829 267.5,11C 268.623,9.95627 269.956,9.28961 271.5,9C 269.487,8.12466 269.487,6.79133 271.5,5C 270.353,3.7189 270.687,3.38556 272.5,4C 273.126,4.75044 273.626,5.58377 274,6.5C 274.333,6.16667 274.667,5.83333 275,5.5C 275.419,9.85177 276.086,10.1851 277,6.5C 277.333,6.83333 277.667,7.16667 278,7.5C 280.066,5.36001 282.4,4.69334 285,5.5C 285.982,4.24109 286.315,2.90775 286,1.5C 284.853,2.45805 283.853,2.12472 283,0.5C 280.503,2.47815 277.669,2.97815 274.5,2C 275.167,1.66667 275.833,1.33333 276.5,1C 275.584,0.721579 274.918,0.221579 274.5,-0.5 Z"/></g>
<g><path style="opacity:1" fill="transparent" d="M 211.5,35.5 C 211.297,37.3904 211.963,38.8904 213.5,40C 211.76,41.517 210.094,43.017 208.5,44.5C 205.5,44.5 202.5,44.5 199.5,44.5C 199.167,44.5 198.833,44.5 198.5,44.5C 196.916,43.6182 195.249,42.7848 193.5,42C 197.251,41.2386 197.417,40.0719 194,38.5C 193.027,36.6079 192.36,34.6079 192,32.5C 191.333,36.5 190.667,36.5 190,32.5C 188.951,33.5171 187.784,33.6838 186.5,33C 187.667,32.5 188.5,31.6667 189,30.5C 191.125,31.8515 192.292,31.1848 192.5,28.5C 192.263,25.9365 191.763,25.9365 191,28.5C 189.256,27.3508 189.089,26.0175 190.5,24.5C 190.154,23.3044 189.654,23.3044 189,24.5C 188.333,23.1667 187.667,21.8333 187,20.5C 185.933,21.1905 184.766,21.6905 183.5,22C 184.196,23.488 183.862,24.988 182.5,26.5C 182.167,25.8333 181.833,25.1667 181.5,24.5C 179.997,25.5901 179.664,26.7567 180.5,28C 179.437,29.1882 178.103,29.6882 176.5,29.5C 175.391,28.71 174.058,28.21 172.5,28C 175.167,26.6667 175.167,25.3333 172.5,24C 173.622,22.3866 173.122,21.2199 171,20.5C 170.383,21.4491 170.549,22.2825 171.5,23C 170.725,24.2295 169.725,24.5628 168.5,24C 169.167,22.3333 169.833,20.6667 170.5,19C 168.624,18.0816 167.624,16.5816 167.5,14.5C 169.507,15.6785 169.84,15.1785 168.5,13C 169.92,8.83938 171.42,8.67271 173,12.5C 174.966,9.7735 176.966,9.44017 179,11.5C 180.748,9.86483 181.915,7.86483 182.5,5.5C 185.843,8.57693 188.843,11.9103 191.5,15.5C 192.187,13.3609 192.52,11.0276 192.5,8.5C 193.365,7.41728 194.365,7.25061 195.5,8C 194.409,10.0639 194.242,12.2305 195,14.5C 195.333,13.8333 195.667,13.1667 196,12.5C 197.079,14.3937 198.413,14.727 200,13.5C 201.605,15.8249 203.272,18.1582 205,20.5C 206.117,19.0506 206.784,17.3839 207,15.5C 207.718,14.5494 208.551,14.3828 209.5,15C 208.833,16 208.167,17 207.5,18C 208.973,18.7096 209.64,19.8762 209.5,21.5C 206.402,21.4125 206.068,21.9125 208.5,23C 207.428,24.2837 206.095,24.6171 204.5,24C 205.191,25.0674 205.691,26.2341 206,27.5C 207.449,26.3859 208.783,25.3859 210,24.5C 210.974,26.8776 211.641,26.5443 212,23.5C 213.16,27.32 211.993,28.82 208.5,28C 209.711,29.8445 211.044,30.6778 212.5,30.5C 211.723,32.5385 210.557,33.2052 209,32.5C 207.651,34.3893 208.484,35.3893 211.5,35.5 Z"/></g>
<g><path style="opacity:1" fill="#e04734" d="M 95.5,41.5 C 89.9074,49.4601 82.2408,52.7934 72.5,51.5C 58.8859,44.3258 55.2192,33.6591 61.5,19.5C 67.0758,13.0468 74.0758,10.5468 82.5,12C 96.7701,17.3785 101.103,27.2118 95.5,41.5 Z"/></g>
<g><path style="opacity:1" fill="transparent" d="M 198.5,44.5 C 198.772,50.7141 198.438,56.8808 197.5,63C 197.167,63.5 196.833,64 196.5,64.5C 195.167,64.1667 193.833,63.8333 192.5,63.5C 191.3,64.5312 189.966,65.3645 188.5,66C 189.416,66.3742 190.25,66.8742 191,67.5C 192.726,66.4238 194.559,66.2571 196.5,67C 195.483,68.0495 195.316,69.2161 196,70.5C 197.398,69.9491 198.732,69.6158 200,69.5C 200.5,70 201,70.5 201.5,71C 199.47,72.8962 197.803,75.0629 196.5,77.5C 196.818,78.6473 197.484,79.4806 198.5,80C 195.532,82.1777 195.865,83.3444 199.5,83.5C 199.5,85.5 199.5,87.5 199.5,89.5C 197.358,88.4022 196.025,89.2355 195.5,92C 194.234,92.3095 193.067,92.8095 192,93.5C 190.887,92.695 189.721,92.0283 188.5,91.5C 188.5,88.8333 188.5,86.1667 188.5,83.5C 187.5,83.5 186.5,83.5 185.5,83.5C 185.5,84.8333 185.5,86.1667 185.5,87.5C 184.167,87.5 182.833,87.5 181.5,87.5C 181.5,86.1667 181.5,84.8333 181.5,83.5C 180.5,83.5 179.5,83.5 178.5,83.5C 178.5,85.5 178.5,87.5 178.5,89.5C 176.62,89.2291 175.287,89.8958 174.5,91.5C 172.359,91.2507 170.193,90.9174 168,90.5C 166.888,86.1098 168.388,84.7764 172.5,86.5C 173.711,85.7261 173.711,84.8928 172.5,84C 164.5,83 162.5,86 166.5,93C 169.221,93.6015 171.887,93.4349 174.5,92.5C 175.756,92.4614 176.756,92.9614 177.5,94C 175.167,95.2426 174.5,96.9093 175.5,99C 173.086,101.958 170.586,102.125 168,99.5C 167.308,100.025 166.808,100.692 166.5,101.5C 167.729,102.281 169.062,102.781 170.5,103C 169,103.833 167.833,105 167,106.5C 166.333,102.5 164,100.167 160,99.5C 159.5,100.667 158.667,101.5 157.5,102C 158.167,102.333 158.833,102.667 159.5,103C 157.655,104.128 155.655,104.628 153.5,104.5C 153.425,101.218 153.925,98.8848 155,97.5C 153.096,96.8984 151.263,97.3984 149.5,99C 150.328,99.9147 151.328,100.581 152.5,101C 151.692,103.088 150.692,105.088 149.5,107C 149.957,107.414 150.291,107.914 150.5,108.5C 149.24,109.382 148.074,110.382 147,111.5C 146.217,109.567 146.717,108.067 148.5,107C 148.167,106.667 147.833,106.333 147.5,106C 148.687,104.981 149.687,103.814 150.5,102.5C 148.253,101.755 146.42,100.422 145,98.5C 144.692,99.3081 144.192,99.9747 143.5,100.5C 142.575,99.3595 141.741,99.3595 141,100.5C 139.693,99.2283 138.193,98.2283 136.5,97.5C 140.361,96.4024 140.361,95.5691 136.5,95C 136.833,94.6667 137.167,94.3333 137.5,94C 135.256,93.0039 133.423,91.5039 132,89.5C 131.333,90.1667 130.667,90.8333 130,91.5C 129.29,90.0267 128.124,89.3601 126.5,89.5C 129.688,87.0681 132.688,84.4015 135.5,81.5C 136.625,82.0141 137.791,82.3474 139,82.5C 139.667,81.8333 140.333,81.1667 141,80.5C 143.058,81.2291 144.891,82.2291 146.5,83.5C 144.167,83.5 141.833,83.5 139.5,83.5C 138.402,84.6009 138.235,85.9343 139,87.5C 139.414,87.0426 139.914,86.7093 140.5,86.5C 141.168,88.9688 141.835,91.3021 142.5,93.5C 143.5,93.5 144.5,93.5 145.5,93.5C 145.5,90.8333 145.5,88.1667 145.5,85.5C 146.675,85.719 147.675,85.3857 148.5,84.5C 148.376,83.8933 148.043,83.56 147.5,83.5C 149.267,82.35 150.433,83.0167 151,85.5C 151.383,84.944 151.883,84.6107 152.5,84.5C 152.5,87.5 152.5,90.5 152.5,93.5C 154.924,93.8076 157.257,93.4742 159.5,92.5C 154.167,91.1667 154.167,89.8333 159.5,88.5C 154.167,87.1667 154.167,85.8333 159.5,84.5C 158.675,83.6143 157.675,83.281 156.5,83.5C 156.678,82.0637 157.011,80.5637 157.5,79C 157.095,78.0546 156.428,77.3879 155.5,77C 156.126,76.2496 156.626,75.4162 157,74.5C 157.914,75.6537 158.747,75.487 159.5,74C 158.953,73.0754 158.287,72.2421 157.5,71.5C 156.304,71.8457 156.304,72.3457 157.5,73C 156.295,74.2705 154.962,74.9372 153.5,75C 153.833,74.6667 154.167,74.3333 154.5,74C 153.149,72.3829 151.482,71.2162 149.5,70.5C 152.328,66.8019 151.995,66.1352 148.5,68.5C 148.264,67.7528 147.93,66.9195 147.5,66C 148.649,64.2559 149.983,64.0892 151.5,65.5C 152.682,63.3546 154.182,63.3546 156,65.5C 157.976,64.4567 158.476,63.1233 157.5,61.5C 158.025,60.8076 158.692,60.3076 159.5,60C 158.167,59 158.167,58 159.5,57C 158.62,54.4318 157.12,53.9318 155,55.5C 151.942,54.6755 151.776,53.3422 154.5,51.5C 156.21,52.6873 157.71,52.354 159,50.5C 160.762,50.9444 160.595,51.4444 158.5,52C 159,52.1667 159.5,52.3333 160,52.5C 161.623,51.079 162.79,49.4124 163.5,47.5C 163.34,49.1992 163.506,50.8659 164,52.5C 166.406,53.5647 168.573,54.8981 170.5,56.5C 168.525,57.5779 166.692,57.2446 165,55.5C 162.264,57.0293 162.098,58.5293 164.5,60C 168.317,61.0234 171.817,60.5234 175,58.5C 175.667,56.8333 175.667,55.1667 175,53.5C 172.57,52.0352 170.07,50.7018 167.5,49.5C 169.473,48.6689 171.473,48.5022 173.5,49C 174.337,47.9887 174.67,46.8221 174.5,45.5C 172.5,45.1667 170.5,44.8333 168.5,44.5C 168.393,42.6214 168.893,42.2881 170,43.5C 173.462,43.017 173.962,41.8504 171.5,40C 173.135,39.4604 174.468,39.9604 175.5,41.5C 177.009,39.5761 179.009,38.4094 181.5,38C 180.167,36.1598 180.334,35.6598 182,36.5C 183.067,35.8095 184.234,35.3095 185.5,35C 184.809,33.9326 184.309,32.7659 184,31.5C 183.667,32.5 183.333,33.5 183,34.5C 182,33.1667 181,31.8333 180,30.5C 176.353,34.4777 175.186,34.1443 176.5,29.5C 178.103,29.6882 179.437,29.1882 180.5,28C 179.664,26.7567 179.997,25.5901 181.5,24.5C 181.833,25.1667 182.167,25.8333 182.5,26.5C 183.862,24.988 184.196,23.488 183.5,22C 184.766,21.6905 185.933,21.1905 187,20.5C 187.667,21.8333 188.333,23.1667 189,24.5C 189.654,23.3044 190.154,23.3044 190.5,24.5C 189.089,26.0175 189.256,27.3508 191,28.5C 191.763,25.9365 192.263,25.9365 192.5,28.5C 192.292,31.1848 191.125,31.8515 189,30.5C 188.5,31.6667 187.667,32.5 186.5,33C 187.784,33.6838 188.951,33.5171 190,32.5C 190.667,36.5 191.333,36.5 192,32.5C 192.36,34.6079 193.027,36.6079 194,38.5C 197.417,40.0719 197.251,41.2386 193.5,42C 195.249,42.7848 196.916,43.6182 198.5,44.5 Z"/></g>
<g><path style="opacity:1" fill="transparent" d="M 137.5,-0.5 C 140.5,-0.5 143.5,-0.5 146.5,-0.5C 146.918,0.221579 147.584,0.721579 148.5,1C 147.833,1.33333 147.167,1.66667 146.5,2C 149.669,2.97815 152.503,2.47815 155,0.5C 155.853,2.12472 156.853,2.45805 158,1.5C 158.315,2.90775 157.982,4.24109 157,5.5C 154.4,4.69334 152.066,5.36001 150,7.5C 149.667,7.16667 149.333,6.83333 149,6.5C 148.086,10.1851 147.419,9.85177 147,5.5C 146.667,5.83333 146.333,6.16667 146,6.5C 145.626,5.58377 145.126,4.75044 144.5,4C 142.687,3.38556 142.353,3.7189 143.5,5C 141.487,6.79133 141.487,8.12466 143.5,9C 141.956,9.28961 140.623,9.95627 139.5,11C 141.095,10.3829 142.428,10.7163 143.5,12C 142.122,13.7134 140.455,15.0467 138.5,16C 138.833,16.3333 139.167,16.6667 139.5,17C 137.956,17.2896 136.623,17.9563 135.5,19C 136.833,20 136.833,21 135.5,22C 134.167,22 132.833,22 131.5,22C 132.047,22.9246 132.713,23.7579 133.5,24.5C 135.371,23.233 137.204,23.233 139,24.5C 141.21,26.9852 140.71,28.8185 137.5,30C 138.667,31.1667 139.833,32.3333 141,33.5C 143.124,28.6035 144.457,28.6035 145,33.5C 145.997,31.8344 147.497,30.3344 149.5,29C 150.5,28.3333 151.5,28.3333 152.5,29C 151.304,29.6543 151.304,30.1543 152.5,30.5C 153.113,29.0202 153.446,27.6869 153.5,26.5C 156.37,27.122 159.204,27.7887 162,28.5C 162.483,27.552 162.649,26.552 162.5,25.5C 160.054,26.388 157.721,26.5547 155.5,26C 155.167,25.6667 154.833,25.3333 154.5,25C 157.8,24.4325 157.966,22.9325 155,20.5C 154.107,21.7112 153.274,21.7112 152.5,20.5C 153.741,17.856 155.741,17.0226 158.5,18C 157.269,19.1827 157.269,20.3493 158.5,21.5C 159.7,20.4688 161.034,19.6355 162.5,19C 161.833,18.6667 161.167,18.3333 160.5,18C 161.458,16.8525 161.125,15.8525 159.5,15C 160.641,14.2588 160.641,13.4255 159.5,12.5C 159.846,11.3044 160.346,11.3044 161,12.5C 162.487,11.7471 162.654,10.9138 161.5,10C 163.633,7.3235 165.3,7.3235 166.5,10C 163.833,10.6667 163.833,11.3333 166.5,12C 164.362,13.4216 163.195,15.255 163,17.5C 164.129,15.8588 165.629,14.8588 167.5,14.5C 167.624,16.5816 168.624,18.0816 170.5,19C 169.833,20.6667 169.167,22.3333 168.5,24C 169.725,24.5628 170.725,24.2295 171.5,23C 170.549,22.2825 170.383,21.4491 171,20.5C 173.122,21.2199 173.622,22.3866 172.5,24C 175.167,25.3333 175.167,26.6667 172.5,28C 174.058,28.21 175.391,28.71 176.5,29.5C 175.186,34.1443 176.353,34.4777 180,30.5C 181,31.8333 182,33.1667 183,34.5C 183.333,33.5 183.667,32.5 184,31.5C 184.309,32.7659 184.809,33.9326 185.5,35C 184.234,35.3095 183.067,35.8095 182,36.5C 180.334,35.6598 180.167,36.1598 181.5,38C 179.009,38.4094 177.009,39.5761 175.5,41.5C 174.468,39.9604 173.135,39.4604 171.5,40C 173.962,41.8504 173.462,43.017 170,43.5C 168.893,42.2881 168.393,42.6214 168.5,44.5C 166.067,44.2729 164.401,45.2729 163.5,47.5C 162.79,49.4124 161.623,51.079 160,52.5C 159.5,52.3333 159,52.1667 158.5,52C 160.595,51.4444 160.762,50.9444 159,50.5C 157.71,52.354 156.21,52.6873 154.5,51.5C 151.776,53.3422 151.942,54.6755 155,55.5C 157.12,53.9318 158.62,54.4318 159.5,57C 158.167,58 158.167,59 159.5,60C 158.692,60.3076 158.025,60.8076 157.5,61.5C 158.476,63.1233 157.976,64.4567 156,65.5C 154.182,63.3546 152.682,63.3546 151.5,65.5C 149.983,64.0892 148.649,64.2559 147.5,66C 147.93,66.9195 148.264,67.7528 148.5,68.5C 151.995,66.1352 152.328,66.8019 149.5,70.5C 151.482,71.2162 153.149,72.3829 154.5,74C 154.167,74.3333 153.833,74.6667 153.5,75C 154.962,74.9372 156.295,74.2705 157.5,73C 156.304,72.3457 156.304,71.8457 157.5,71.5C 158.287,72.2421 158.953,73.0754 159.5,74C 158.747,75.487 157.914,75.6537 157,74.5C 156.626,75.4162 156.126,76.2496 155.5,77C 156.428,77.3879 157.095,78.0546 157.5,79C 157.011,80.5637 156.678,82.0637 156.5,83.5C 154.901,83.2322 153.568,83.5655 152.5,84.5C 151.883,84.6107 151.383,84.944 151,85.5C 150.433,83.0167 149.267,82.35 147.5,83.5C 147.167,83.5 146.833,83.5 146.5,83.5C 144.891,82.2291 143.058,81.2291 141,80.5C 140.333,81.1667 139.667,81.8333 139,82.5C 137.791,82.3474 136.625,82.0141 135.5,81.5C 138.103,74.4849 138.103,67.4849 135.5,60.5C 136.905,58.6211 138.572,58.2878 140.5,59.5C 141.69,57.5468 143.024,55.7135 144.5,54C 143.451,53.5078 142.451,53.6744 141.5,54.5C 140.304,54.1543 140.304,53.6543 141.5,53C 142.872,52.5983 144.205,52.0983 145.5,51.5C 145.499,54.9946 146.999,55.328 150,52.5C 150.667,51.8333 150.667,51.1667 150,50.5C 148.667,50.5 147.333,50.5 146,50.5C 145.517,49.552 145.351,48.552 145.5,47.5C 143.037,47.2189 140.87,46.2189 139,44.5C 138.333,45.8333 137.667,47.1667 137,48.5C 136.487,46.4794 135.32,44.9794 133.5,44C 137.048,42.8971 136.715,41.7305 132.5,40.5C 131.167,41.5 129.833,42.5 128.5,43.5C 129.025,44.1924 129.692,44.6924 130.5,45C 129.584,45.3742 128.75,45.8742 128,46.5C 127.405,42.9178 126.071,42.5845 124,45.5C 123.735,43.8374 124.235,42.3374 125.5,41C 124.891,39.0517 124.224,37.2184 123.5,35.5C 123.312,32.7939 122.312,30.4605 120.5,28.5C 122.288,28.7852 123.955,28.4519 125.5,27.5C 124.67,25.8651 124.503,24.1984 125,22.5C 124.439,23.0219 123.772,23.3552 123,23.5C 121.829,22.6604 120.662,21.8271 119.5,21C 122.588,18.9289 125.921,17.2622 129.5,16C 128.833,15.3333 128.167,14.6667 127.5,14C 129.116,13.3848 130.449,12.3848 131.5,11C 129.845,9.55575 129.178,7.72241 129.5,5.5C 132.13,4.57215 134.796,3.57215 137.5,2.5C 138.791,1.47283 138.791,0.472826 137.5,-0.5 Z"/></g>
<g><path style="opacity:1" fill="transparent" d="M 265.5,-0.5 C 268.5,-0.5 271.5,-0.5 274.5,-0.5C 274.918,0.221579 275.584,0.721579 276.5,1C 275.833,1.33333 275.167,1.66667 274.5,2C 277.669,2.97815 280.503,2.47815 283,0.5C 283.853,2.12472 284.853,2.45805 286,1.5C 286.315,2.90775 285.982,4.24109 285,5.5C 282.4,4.69334 280.066,5.36001 278,7.5C 277.667,7.16667 277.333,6.83333 277,6.5C 276.086,10.1851 275.419,9.85177 275,5.5C 274.667,5.83333 274.333,6.16667 274,6.5C 273.626,5.58377 273.126,4.75044 272.5,4C 270.687,3.38556 270.353,3.7189 271.5,5C 269.487,6.79133 269.487,8.12466 271.5,9C 269.956,9.28961 268.623,9.95627 267.5,11C 269.095,10.3829 270.428,10.7163 271.5,12C 270.122,13.7134 268.455,15.0467 266.5,16C 266.833,16.3333 267.167,16.6667 267.5,17C 265.956,17.2896 264.623,17.9563 263.5,19C 264.833,20 264.833,21 263.5,22C 262.167,22 260.833,22 259.5,22C 260.047,22.9246 260.713,23.7579 261.5,24.5C 263.371,23.233 265.204,23.233 267,24.5C 269.21,26.9852 268.71,28.8185 265.5,30C 266.667,31.1667 267.833,32.3333 269,33.5C 271.124,28.6035 272.457,28.6035 273,33.5C 273.997,31.8344 275.497,30.3344 277.5,29C 278.5,28.3333 279.5,28.3333 280.5,29C 279.304,29.6543 279.304,30.1543 280.5,30.5C 281.113,29.0202 281.446,27.6869 281.5,26.5C 284.109,27.2305 286.776,27.7305 289.5,28C 288.167,28.3333 286.833,28.6667 285.5,29C 288,29.8333 288.167,31 286,32.5C 284.092,29.6677 283.259,30.001 283.5,33.5C 282.448,33.3505 281.448,33.5172 280.5,34C 282.203,34.7453 283.87,35.5786 285.5,36.5C 287.345,35.0622 288.511,35.3956 289,37.5C 289.278,36.5842 289.778,35.9175 290.5,35.5C 290.5,60.8333 290.5,86.1667 290.5,111.5C 287.555,111.011 285.222,109.511 283.5,107C 284.167,106.667 284.833,106.333 285.5,106C 284.234,105.691 283.067,105.191 282,104.5C 280.375,105.412 279.541,104.745 279.5,102.5C 279.611,101.883 279.944,101.383 280.5,101C 279.328,100.581 278.328,99.9147 277.5,99C 278.891,97.98 280.391,97.1466 282,96.5C 283.264,96.6399 284.431,96.6399 285.5,96.5C 283.785,94.1264 281.785,91.9597 279.5,90C 280.328,89.0853 281.328,88.4186 282.5,88C 282.167,87.6667 281.833,87.3333 281.5,87C 285.344,84.564 285.011,82.3973 280.5,80.5C 279.269,81.6507 279.269,82.8173 280.5,84C 280,84.5 279.5,85 279,85.5C 278.424,82.8758 277.09,82.2092 275,83.5C 272.731,81.7313 270.398,81.0647 268,81.5C 267.667,80.5 267.333,79.5 267,78.5C 265.333,79.1667 263.667,79.8333 262,80.5C 262.046,78.6874 261.88,77.0207 261.5,75.5C 261.667,75.1667 261.833,74.8333 262,74.5C 262.833,75.5 263.667,76.5 264.5,77.5C 266.793,76.7643 269.126,76.5976 271.5,77C 268.751,75.6538 268.417,74.3204 270.5,73C 267.456,72.6411 267.122,71.9745 269.5,71C 268.833,70.6667 268.167,70.3333 267.5,70C 269.076,69.5604 270.41,68.727 271.5,67.5C 272.667,69.1667 273.833,70.8333 275,72.5C 276.113,71.2396 276.28,70.073 275.5,69C 277.959,68.276 278.959,66.9427 278.5,65C 280.01,64.1502 281.51,63.3169 283,62.5C 284.162,63.1868 285.328,63.3534 286.5,63C 286.112,61.4748 286.112,59.8082 286.5,58C 285.965,55.8913 284.965,55.3913 283.5,56.5C 282.304,56.1543 282.304,55.6543 283.5,55C 281.833,54.6667 280.167,54.3333 278.5,54C 280.158,53.2747 280.658,52.108 280,50.5C 278,51.8333 276,51.8333 274,50.5C 272.616,48.1351 270.616,46.4685 268,45.5C 266.347,45.8198 265.347,46.8198 265,48.5C 264.487,46.4794 263.32,44.9794 261.5,44C 265.048,42.8971 264.715,41.7305 260.5,40.5C 259.167,41.5 257.833,42.5 256.5,43.5C 257.025,44.1924 257.692,44.6924 258.5,45C 257.584,45.3742 256.75,45.8742 256,46.5C 255.405,42.9178 254.071,42.5845 252,45.5C 251.685,44.0922 252.018,42.7589 253,41.5C 257.823,38.4647 257.323,36.798 251.5,36.5C 249.618,35.7627 248.952,34.5961 249.5,33C 248.552,32.5172 247.552,32.3505 246.5,32.5C 246.281,31.325 246.614,30.325 247.5,29.5C 249.535,28.9588 251.535,28.2922 253.5,27.5C 252.67,25.8651 252.503,24.1984 253,22.5C 252.439,23.0219 251.772,23.3552 251,23.5C 249.829,22.6604 248.662,21.8271 247.5,21C 250.588,18.9289 253.921,17.2622 257.5,16C 256.833,15.3333 256.167,14.6667 255.5,14C 257.116,13.3848 258.449,12.3848 259.5,11C 257.845,9.55575 257.178,7.72241 257.5,5.5C 260.13,4.57215 262.796,3.57215 265.5,2.5C 266.791,1.47283 266.791,0.472826 265.5,-0.5 Z"/></g>
<g><path style="opacity:1" fill="#206065" d="M 50.5,26.5 C 57.1401,33.2616 57.1401,40.095 50.5,47C 47.9373,48.0793 45.2706,48.5793 42.5,48.5C 38.862,48.2623 36.0287,46.5956 34,43.5C 30.0785,28.9196 35.5785,23.2529 50.5,26.5 Z"/></g>
<g><path style="opacity:1" fill="#328d8b" d="M 120.5,28.5 C 122.312,30.4605 123.312,32.7939 123.5,35.5C 122.765,46.4042 117.098,50.5708 106.5,48C 104.266,45.9373 102.266,43.7706 100.5,41.5C 100.5,40.8333 100.5,40.1667 100.5,39.5C 101.596,25.9494 108.263,22.2827 120.5,28.5 Z"/></g>
<g><path style="opacity:1" fill="transparent" d="M 213.5,34.5 C 213.987,35.4734 214.487,36.4734 215,37.5C 218.55,34.5541 221.216,35.2207 223,39.5C 223.388,38.572 224.055,37.9054 225,37.5C 226.52,38.697 227.687,40.197 228.5,42C 226.793,42.1953 225.126,42.1953 223.5,42C 225.403,43.8075 227.07,45.8075 228.5,48C 227.179,50.0707 226.179,52.0707 225.5,54C 226.5,56.0907 225.833,57.7574 223.5,59C 225.18,59.0343 226.68,59.201 228,59.5C 228.833,58 230,56.8333 231.5,56C 230.833,55.6667 230.167,55.3333 229.5,55C 231.584,54.3028 233.251,53.1361 234.5,51.5C 237.213,53.1717 239.88,54.8384 242.5,56.5C 240.525,57.5779 238.692,57.2446 237,55.5C 234.264,57.0293 234.098,58.5293 236.5,60C 238.81,60.4966 241.143,60.6633 243.5,60.5C 240.165,61.1347 236.832,62.1347 233.5,63.5C 232.359,64.4255 232.359,65.2588 233.5,66C 230.237,66.8695 229.904,68.2028 232.5,70C 231.833,70.3333 231.167,70.6667 230.5,71C 231.624,71.2492 232.624,71.7492 233.5,72.5C 232.15,73.9501 230.484,74.6168 228.5,74.5C 229.122,71.6294 227.788,70.4627 224.5,71C 225.833,72 225.833,73 224.5,74C 222.888,74.7203 221.388,74.5536 220,73.5C 219.707,76.9542 218.374,77.2876 216,74.5C 215.689,73.2575 216.189,72.2575 217.5,71.5C 217.062,70.4937 216.396,70.4937 215.5,71.5C 214.614,70.675 214.281,69.675 214.5,68.5C 213.448,68.6495 212.448,68.4828 211.5,68C 213.045,66.3123 214.045,64.3123 214.5,62C 212.76,60.173 211.093,60.3397 209.5,62.5C 207.616,61.3073 207.116,59.6406 208,57.5C 209.308,58.1513 210.141,57.4846 210.5,55.5C 213.665,50.9962 212.998,47.3296 208.5,44.5C 210.094,43.017 211.76,41.517 213.5,40C 211.963,38.8904 211.297,37.3904 211.5,35.5C 212.167,35.1667 212.833,34.8333 213.5,34.5 Z"/></g>
<g><path style="opacity:1" fill="transparent" d="M 34.5,50.5 C 34.5,50.8333 34.5,51.1667 34.5,51.5C 22.5519,55.0525 17.3853,63.0525 19,75.5C 19.8471,77.8543 20.6805,80.1877 21.5,82.5C 20.6236,82.3691 19.9569,82.7025 19.5,83.5C 20.5063,84.3957 20.5063,85.0623 19.5,85.5C 17.5914,84.6518 15.5914,84.3184 13.5,84.5C 13.3287,87.7973 13.9954,88.1306 15.5,85.5C 16.3081,85.8076 16.9747,86.3076 17.5,87C 15.5,88.3333 13.5,89.6667 11.5,91C 12.4589,93.6905 11.7922,94.0238 9.5,92C 10.6405,91.2588 10.6405,90.4255 9.5,89.5C 8.34934,88.269 7.18268,88.269 6,89.5C 5.52907,87.7536 4.86241,86.087 4,84.5C 3.76737,86.7801 2.93404,88.7801 1.5,90.5C 2.35538,91.293 3.18871,90.9597 4,89.5C 4.97936,91.3203 6.47936,92.487 8.5,93C 9.83333,93.6667 9.83333,94.3333 8.5,95C 12.3605,95.5691 12.3605,96.4024 8.5,97.5C 10.1932,98.2283 11.6932,99.2283 13,100.5C 13.7412,99.3595 14.5745,99.3595 15.5,100.5C 16.1924,99.9747 16.6924,99.3081 17,98.5C 18.4196,100.422 20.2529,101.755 22.5,102.5C 20.0462,104.601 18.7129,106.935 18.5,109.5C 18.6667,110.167 18.8333,110.833 19,111.5C 21.4936,108.68 22.327,108.847 21.5,112C 21.9054,112.945 22.572,113.612 23.5,114C 22.3595,114.741 22.3595,115.575 23.5,116.5C 21.7438,118.191 21.2438,120.191 22,122.5C 22.8928,121.289 23.7261,121.289 24.5,122.5C 23.4688,123.7 22.6355,125.034 22,126.5C 21.0444,123.597 19.211,122.097 16.5,122C 19.3072,123.397 19.8072,125.231 18,127.5C 17.6667,126.5 17.3333,125.5 17,124.5C 16.9928,126.619 15.8261,128.453 13.5,130C 15.5701,130.948 17.0701,132.448 18,134.5C 18.3333,134.167 18.6667,133.833 19,133.5C 19.4189,137.852 20.0855,138.185 21,134.5C 21.3333,134.833 21.6667,135.167 22,135.5C 24.0664,133.36 26.3998,132.693 29,133.5C 29.805,131.099 30.6383,131.266 31.5,134C 32.7659,134.309 33.9326,134.809 35,135.5C 35.3333,135.167 35.6667,134.833 36,134.5C 37.4601,134.982 38.9601,136.149 40.5,138C 39.6198,139.356 39.2865,140.856 39.5,142.5C 26.1667,142.5 12.8333,142.5 -0.5,142.5C -0.5,105.5 -0.5,68.5 -0.5,31.5C 2.0018,31.0633 4.5018,30.73 7,30.5C 8.5,31.6667 10,32.8333 11.5,34C 13.8912,35.3086 13.8912,36.3086 11.5,37C 14.1667,37.6667 14.1667,38.3333 11.5,39C 13.7721,39.9411 15.7721,41.2745 17.5,43C 15.2464,44.0539 14.913,45.5539 16.5,47.5C 18.686,48.2208 20.8526,48.8875 23,49.5C 24.5298,48.364 25.8631,47.364 27,46.5C 28.3333,46.5 29.6667,46.5 31,46.5C 32.1022,47.949 33.2689,49.2823 34.5,50.5 Z"/></g>
<g><path style="opacity:1" fill="transparent" d="M 251.5,36.5 C 257.323,36.798 257.823,38.4647 253,41.5C 252.018,42.7589 251.685,44.0922 252,45.5C 254.071,42.5845 255.405,42.9178 256,46.5C 256.75,45.8742 257.584,45.3742 258.5,45C 257.692,44.6924 257.025,44.1924 256.5,43.5C 257.833,42.5 259.167,41.5 260.5,40.5C 264.715,41.7305 265.048,42.8971 261.5,44C 263.32,44.9794 264.487,46.4794 265,48.5C 265.347,46.8198 266.347,45.8198 268,45.5C 270.616,46.4685 272.616,48.1351 274,50.5C 276,51.8333 278,51.8333 280,50.5C 280.658,52.108 280.158,53.2747 278.5,54C 280.167,54.3333 281.833,54.6667 283.5,55C 282.304,55.6543 282.304,56.1543 283.5,56.5C 284.965,55.3913 285.965,55.8913 286.5,58C 286.112,59.8082 286.112,61.4748 286.5,63C 285.328,63.3534 284.162,63.1868 283,62.5C 281.51,63.3169 280.01,64.1502 278.5,65C 278.959,66.9427 277.959,68.276 275.5,69C 276.28,70.073 276.113,71.2396 275,72.5C 273.833,70.8333 272.667,69.1667 271.5,67.5C 270.41,68.727 269.076,69.5604 267.5,70C 268.167,70.3333 268.833,70.6667 269.5,71C 267.122,71.9745 267.456,72.6411 270.5,73C 268.417,74.3204 268.751,75.6538 271.5,77C 269.126,76.5976 266.793,76.7643 264.5,77.5C 263.667,76.5 262.833,75.5 262,74.5C 261.833,74.8333 261.667,75.1667 261.5,75.5C 261.88,77.0207 262.046,78.6874 262,80.5C 263.667,79.8333 265.333,79.1667 267,78.5C 267.333,79.5 267.667,80.5 268,81.5C 270.398,81.0647 272.731,81.7313 275,83.5C 277.09,82.2092 278.424,82.8758 279,85.5C 279.5,85 280,84.5 280.5,84C 279.269,82.8173 279.269,81.6507 280.5,80.5C 285.011,82.3973 285.344,84.564 281.5,87C 281.833,87.3333 282.167,87.6667 282.5,88C 281.328,88.4186 280.328,89.0853 279.5,90C 281.785,91.9597 283.785,94.1264 285.5,96.5C 284.431,96.6399 283.264,96.6399 282,96.5C 280.391,97.1466 278.891,97.98 277.5,99C 278.328,99.9147 279.328,100.581 280.5,101C 279.944,101.383 279.611,101.883 279.5,102.5C 276.845,101.999 274.678,100.666 273,98.5C 272.601,98.7284 272.435,99.0618 272.5,99.5C 271.883,99.3893 271.383,99.056 271,98.5C 270,100.167 269,101.833 268,103.5C 267.309,101.109 266.309,101.109 265,103.5C 264.508,102.451 264.674,101.451 265.5,100.5C 264.758,98.6503 263.758,97.9836 262.5,98.5C 262.977,97.5224 263.643,96.6891 264.5,96C 263.833,95.6667 263.167,95.3333 262.5,95C 263.416,94.7216 264.082,94.2216 264.5,93.5C 265.833,93.5 267.167,93.5 268.5,93.5C 268.4,90.333 269.067,87.333 270.5,84.5C 269.675,83.6143 268.675,83.281 267.5,83.5C 267.509,85.3084 267.009,86.9751 266,88.5C 266.266,85.0992 264.766,83.4326 261.5,83.5C 260.386,88.6294 259.719,88.6294 259.5,83.5C 257.821,83.2852 256.821,83.9519 256.5,85.5C 254.726,86.3696 253.393,87.703 252.5,89.5C 251.707,84.2241 248.707,82.3908 243.5,84C 242.29,85.0391 241.29,86.2058 240.5,87.5C 237.592,86.8407 237.258,86.0074 239.5,85C 238.648,83.2716 237.648,83.105 236.5,84.5C 235.791,83.596 234.791,83.2627 233.5,83.5C 231.299,80.8457 229.633,77.8457 228.5,74.5C 230.484,74.6168 232.15,73.9501 233.5,72.5C 232.624,71.7492 231.624,71.2492 230.5,71C 231.167,70.6667 231.833,70.3333 232.5,70C 229.904,68.2028 230.237,66.8695 233.5,66C 232.359,65.2588 232.359,64.4255 233.5,63.5C 236.832,62.1347 240.165,61.1347 243.5,60.5C 246.955,59.8716 248.122,57.8716 247,54.5C 244.844,52.3826 242.344,50.7159 239.5,49.5C 241.473,48.6689 243.473,48.5022 245.5,49C 246.337,47.9887 246.67,46.8221 246.5,45.5C 245.209,45.7373 244.209,45.404 243.5,44.5C 246.25,44.382 248.25,43.0486 249.5,40.5C 246.82,37.853 247.487,36.5196 251.5,36.5 Z"/></g>
<g><path style="opacity:1" fill="#111111" d="M 168.5,44.5 C 170.5,44.8333 172.5,45.1667 174.5,45.5C 174.67,46.8221 174.337,47.9887 173.5,49C 171.473,48.5022 169.473,48.6689 167.5,49.5C 170.07,50.7018 172.57,52.0352 175,53.5C 175.667,55.1667 175.667,56.8333 175,58.5C 171.817,60.5234 168.317,61.0234 164.5,60C 162.098,58.5293 162.264,57.0293 165,55.5C 166.692,57.2446 168.525,57.5779 170.5,56.5C 168.573,54.8981 166.406,53.5647 164,52.5C 163.506,50.8659 163.34,49.1992 163.5,47.5C 164.401,45.2729 166.067,44.2729 168.5,44.5 Z"/></g>
<g><path style="opacity:1" fill="#131313" d="M 243.5,44.5 C 244.209,45.404 245.209,45.7373 246.5,45.5C 246.67,46.8221 246.337,47.9887 245.5,49C 243.473,48.5022 241.473,48.6689 239.5,49.5C 242.344,50.7159 244.844,52.3826 247,54.5C 248.122,57.8716 246.955,59.8716 243.5,60.5C 241.143,60.6633 238.81,60.4966 236.5,60C 234.098,58.5293 234.264,57.0293 237,55.5C 238.692,57.2446 240.525,57.5779 242.5,56.5C 239.88,54.8384 237.213,53.1717 234.5,51.5C 234.812,45.8643 237.812,43.531 243.5,44.5 Z"/></g>
<g><path style="opacity:1" fill="#0c0c0c" d="M 199.5,44.5 C 202.5,44.5 205.5,44.5 208.5,44.5C 212.998,47.3296 213.665,50.9962 210.5,55.5C 208.167,55.5 205.833,55.5 203.5,55.5C 203.5,57.1667 203.5,58.8333 203.5,60.5C 202.167,60.5 200.833,60.5 199.5,60.5C 199.5,55.1667 199.5,49.8333 199.5,44.5 Z"/></g>
<g><path style="opacity:1" fill="transparent" d="M 203.5,48.5 C 204.833,48.5 206.167,48.5 207.5,48.5C 207.833,51.5 206.5,52.8333 203.5,52.5C 203.5,51.1667 203.5,49.8333 203.5,48.5 Z"/></g>
<g><path style="opacity:1" fill="#cba34b" d="M 34.5,51.5 C 46.0973,49.8809 53.9306,54.5476 58,65.5C 59.6739,75.8146 56.1739,83.8146 47.5,89.5C 37.1903,92.7042 28.5237,90.3708 21.5,82.5C 20.6805,80.1877 19.8471,77.8543 19,75.5C 17.3853,63.0525 22.5519,55.0525 34.5,51.5 Z"/></g>
<g><path style="opacity:1" fill="#cba34b" d="M 135.5,60.5 C 138.103,67.4849 138.103,74.4849 135.5,81.5C 132.688,84.4015 129.688,87.0681 126.5,89.5C 107.571,93.3977 98.0708,85.7311 98,66.5C 103.021,52.7407 112.521,48.2407 126.5,53C 129.665,55.3347 132.665,57.8347 135.5,60.5 Z"/></g>
<g><path style="opacity:1" fill="#cba44d" d="M 74.5,54.5 C 89.7204,54.9566 95.8871,62.6232 93,77.5C 92.074,79.6917 90.9073,81.6917 89.5,83.5C 74.1275,91.1472 64.7942,86.4805 61.5,69.5C 63.3882,62.2849 67.7215,57.2849 74.5,54.5 Z"/></g>
<g><path style="opacity:1" fill="transparent" d="M 198.5,44.5 C 198.833,44.5 199.167,44.5 199.5,44.5C 199.5,49.8333 199.5,55.1667 199.5,60.5C 200.833,60.5 202.167,60.5 203.5,60.5C 203.5,58.8333 203.5,57.1667 203.5,55.5C 205.833,55.5 208.167,55.5 210.5,55.5C 210.141,57.4846 209.308,58.1513 208,57.5C 207.116,59.6406 207.616,61.3073 209.5,62.5C 211.093,60.3397 212.76,60.173 214.5,62C 214.045,64.3123 213.045,66.3123 211.5,68C 212.448,68.4828 213.448,68.6495 214.5,68.5C 214.281,69.675 214.614,70.675 215.5,71.5C 216.396,70.4937 217.062,70.4937 217.5,71.5C 216.189,72.2575 215.689,73.2575 216,74.5C 218.374,77.2876 219.707,76.9542 220,73.5C 221.388,74.5536 222.888,74.7203 224.5,74C 225.833,73 225.833,72 224.5,71C 227.788,70.4627 229.122,71.6294 228.5,74.5C 229.633,77.8457 231.299,80.8457 233.5,83.5C 233.66,85.1992 233.494,86.8659 233,88.5C 231.809,85.4659 229.642,83.7993 226.5,83.5C 224.983,83.5106 223.816,84.1772 223,85.5C 222.667,84.8333 222.333,84.1667 222,83.5C 219.989,87.0016 218.656,87.0016 218,83.5C 217.634,85.4517 216.801,87.1184 215.5,88.5C 213.91,88.3718 212.577,87.7051 211.5,86.5C 212.262,86.0894 213.262,85.9227 214.5,86C 215.833,85.3333 215.833,84.6667 214.5,84C 212.5,83.3333 210.5,83.3333 208.5,84C 207.35,87.4046 208.684,89.5713 212.5,90.5C 211.284,91.0959 209.951,91.2626 208.5,91C 207.434,92.159 207.767,92.9924 209.5,93.5C 208.748,95.1003 207.748,96.6003 206.5,98C 207.252,98.6708 207.586,99.5041 207.5,100.5C 205.983,100.511 204.816,101.177 204,102.5C 201.291,101.294 199.625,102.294 199,105.5C 198.667,104.833 198.333,104.167 198,103.5C 197,104.833 196,104.833 195,103.5C 191.946,105.123 192.446,105.79 196.5,105.5C 195.265,107.773 195.598,109.606 197.5,111C 195.833,111.333 194.167,111.667 192.5,112C 193.938,112.219 195.271,112.719 196.5,113.5C 195.975,114.192 195.308,114.692 194.5,115C 195.5,116 196.5,117 197.5,118C 196,118.833 194.833,120 194,121.5C 194.579,118.343 193.246,116.009 190,114.5C 189.667,115.167 189.333,115.833 189,116.5C 186.974,115.142 184.807,114.309 182.5,114C 185.844,113.43 186.177,112.264 183.5,110.5C 184.981,109.52 186.315,108.353 187.5,107C 187.579,105.093 187.246,103.093 186.5,101C 187.428,100.612 188.095,99.9454 188.5,99C 185.694,96.8877 184.361,94.0544 184.5,90.5C 183.5,90.5 182.5,90.5 181.5,90.5C 182.568,89.5655 183.901,89.2322 185.5,89.5C 185.5,90.8333 185.5,92.1667 185.5,93.5C 187.179,93.7148 188.179,93.0481 188.5,91.5C 189.721,92.0283 190.887,92.695 192,93.5C 193.067,92.8095 194.234,92.3095 195.5,92C 196.025,89.2355 197.358,88.4022 199.5,89.5C 199.5,90.8333 199.5,92.1667 199.5,93.5C 200.833,93.5 202.167,93.5 203.5,93.5C 203.5,90.1667 203.5,86.8333 203.5,83.5C 202.167,83.5 200.833,83.5 199.5,83.5C 195.865,83.3444 195.532,82.1777 198.5,80C 197.484,79.4806 196.818,78.6473 196.5,77.5C 197.803,75.0629 199.47,72.8962 201.5,71C 201,70.5 200.5,70 200,69.5C 198.732,69.6158 197.398,69.9491 196,70.5C 195.316,69.2161 195.483,68.0495 196.5,67C 194.559,66.2571 192.726,66.4238 191,67.5C 190.25,66.8742 189.416,66.3742 188.5,66C 189.966,65.3645 191.3,64.5312 192.5,63.5C 193.833,63.8333 195.167,64.1667 196.5,64.5C 196.833,64 197.167,63.5 197.5,63C 198.438,56.8808 198.772,50.7141 198.5,44.5 Z"/></g>
<g><path style="opacity:1" fill="transparent" d="M 61.5,19.5 C 55.2192,33.6591 58.8859,44.3258 72.5,51.5C 71.7611,51.369 71.0944,51.5357 70.5,52C 71.6934,53.0946 73.0267,53.928 74.5,54.5C 67.7215,57.2849 63.3882,62.2849 61.5,69.5C 64.7942,86.4805 74.1275,91.1472 89.5,83.5C 90.2323,84.8083 91.0656,86.1416 92,87.5C 92.7175,86.5494 93.5509,86.3828 94.5,87C 92.9512,88.214 91.7845,89.714 91,91.5C 90.6667,91.1667 90.3333,90.8333 90,90.5C 89.5172,91.448 89.3505,92.448 89.5,93.5C 81.5437,89.2012 73.8771,89.5345 66.5,94.5C 65.0474,93.1751 65.3808,92.3418 67.5,92C 66.2161,91.3162 65.0495,91.4829 64,92.5C 61.0068,90.2246 57.8402,88.2246 54.5,86.5C 54.891,87.7185 54.2244,88.5518 52.5,89C 50.8659,89.4935 49.1992,89.6602 47.5,89.5C 56.1739,83.8146 59.6739,75.8146 58,65.5C 53.9306,54.5476 46.0973,49.8809 34.5,51.5C 34.5,51.1667 34.5,50.8333 34.5,50.5C 37.5184,50.6646 40.5184,50.498 43.5,50C 42.944,49.6174 42.6107,49.1174 42.5,48.5C 45.2706,48.5793 47.9373,48.0793 50.5,47C 57.1401,40.095 57.1401,33.2616 50.5,26.5C 51.7348,26.2786 52.7348,25.6119 53.5,24.5C 53.8333,25.1667 54.1667,25.8333 54.5,26.5C 55.8625,24.988 56.1958,23.488 55.5,22C 56.448,21.5172 57.448,21.3505 58.5,21.5C 58.3505,20.448 58.5172,19.448 59,18.5C 59.6708,19.2524 60.5041,19.5858 61.5,19.5 Z"/></g>
<g><path style="opacity:1" fill="transparent" d="M 123.5,35.5 C 124.224,37.2184 124.891,39.0517 125.5,41C 124.235,42.3374 123.735,43.8374 124,45.5C 126.071,42.5845 127.405,42.9178 128,46.5C 128.75,45.8742 129.584,45.3742 130.5,45C 129.692,44.6924 129.025,44.1924 128.5,43.5C 129.833,42.5 131.167,41.5 132.5,40.5C 136.715,41.7305 137.048,42.8971 133.5,44C 135.32,44.9794 136.487,46.4794 137,48.5C 137.667,47.1667 138.333,45.8333 139,44.5C 140.87,46.2189 143.037,47.2189 145.5,47.5C 145.351,48.552 145.517,49.552 146,50.5C 147.333,50.5 148.667,50.5 150,50.5C 150.667,51.1667 150.667,51.8333 150,52.5C 146.999,55.328 145.499,54.9946 145.5,51.5C 144.205,52.0983 142.872,52.5983 141.5,53C 140.304,53.6543 140.304,54.1543 141.5,54.5C 142.451,53.6744 143.451,53.5078 144.5,54C 143.024,55.7135 141.69,57.5468 140.5,59.5C 138.572,58.2878 136.905,58.6211 135.5,60.5C 132.665,57.8347 129.665,55.3347 126.5,53C 112.521,48.2407 103.021,52.7407 98,66.5C 98.0708,85.7311 107.571,93.3977 126.5,89.5C 127.768,90.787 127.435,91.787 125.5,92.5C 126.313,93.8139 127.313,94.9805 128.5,96C 126.575,95.8651 124.575,95.6984 122.5,95.5C 122.5,96.5 122.5,97.5 122.5,98.5C 117.72,93.3893 112.053,92.2226 105.5,95C 100.104,100.046 99.1044,105.879 102.5,112.5C 101.097,115.3 102.097,116.8 105.5,117C 104.5,117.333 103.5,117.667 102.5,118C 103.672,118.419 104.672,119.085 105.5,120C 104.244,120.417 103.577,121.25 103.5,122.5C 101.799,122.966 100.299,122.966 99,122.5C 98.6667,123.167 98.3333,123.833 98,124.5C 96.8873,123.695 95.7206,123.028 94.5,122.5C 100.905,111.496 99.2379,101.829 89.5,93.5C 89.3505,92.448 89.5172,91.448 90,90.5C 90.3333,90.8333 90.6667,91.1667 91,91.5C 91.7845,89.714 92.9512,88.214 94.5,87C 93.5509,86.3828 92.7175,86.5494 92,87.5C 91.0656,86.1416 90.2323,84.8083 89.5,83.5C 90.9073,81.6917 92.074,79.6917 93,77.5C 95.8871,62.6232 89.7204,54.9566 74.5,54.5C 73.0267,53.928 71.6934,53.0946 70.5,52C 71.0944,51.5357 71.7611,51.369 72.5,51.5C 82.2408,52.7934 89.9074,49.4601 95.5,41.5C 97.3344,42.494 99.0011,42.494 100.5,41.5C 102.266,43.7706 104.266,45.9373 106.5,48C 117.098,50.5708 122.765,46.4042 123.5,35.5 Z"/></g>
<g><path style="opacity:1" fill="#0b0b0b" d="M 139.5,83.5 C 141.833,83.5 144.167,83.5 146.5,83.5C 146.833,83.5 147.167,83.5 147.5,83.5C 148.043,83.56 148.376,83.8933 148.5,84.5C 147.675,85.3857 146.675,85.719 145.5,85.5C 145.5,88.1667 145.5,90.8333 145.5,93.5C 144.5,93.5 143.5,93.5 142.5,93.5C 142.5,90.8333 142.5,88.1667 142.5,85.5C 140.821,85.7148 139.821,85.0481 139.5,83.5 Z"/></g>
<g><path style="opacity:1" fill="#101010" d="M 156.5,83.5 C 157.675,83.281 158.675,83.6143 159.5,84.5C 154.167,85.8333 154.167,87.1667 159.5,88.5C 154.167,89.8333 154.167,91.1667 159.5,92.5C 157.257,93.4742 154.924,93.8076 152.5,93.5C 152.5,90.5 152.5,87.5 152.5,84.5C 153.568,83.5655 154.901,83.2322 156.5,83.5 Z"/></g>
<g><path style="opacity:1" fill="#121212" d="M 174.5,91.5 C 174.5,91.8333 174.5,92.1667 174.5,92.5C 171.887,93.4349 169.221,93.6015 166.5,93C 162.5,86 164.5,83 172.5,84C 173.711,84.8928 173.711,85.7261 172.5,86.5C 168.388,84.7764 166.888,86.1098 168,90.5C 170.193,90.9174 172.359,91.2507 174.5,91.5 Z"/></g>
<g><path style="opacity:1" fill="#090909" d="M 188.5,91.5 C 188.179,93.0481 187.179,93.7148 185.5,93.5C 185.5,92.1667 185.5,90.8333 185.5,89.5C 183.901,89.2322 182.568,89.5655 181.5,90.5C 181.5,91.5 181.5,92.5 181.5,93.5C 180.5,93.5 179.5,93.5 178.5,93.5C 178.5,92.1667 178.5,90.8333 178.5,89.5C 178.5,87.5 178.5,85.5 178.5,83.5C 179.5,83.5 180.5,83.5 181.5,83.5C 181.5,84.8333 181.5,86.1667 181.5,87.5C 182.833,87.5 184.167,87.5 185.5,87.5C 185.5,86.1667 185.5,84.8333 185.5,83.5C 186.5,83.5 187.5,83.5 188.5,83.5C 188.5,86.1667 188.5,88.8333 188.5,91.5 Z"/></g>
<g><path style="opacity:1" fill="#2a2a2a" d="M 199.5,83.5 C 200.833,83.5 202.167,83.5 203.5,83.5C 203.5,86.8333 203.5,90.1667 203.5,93.5C 202.167,93.5 200.833,93.5 199.5,93.5C 199.5,92.1667 199.5,90.8333 199.5,89.5C 199.5,87.5 199.5,85.5 199.5,83.5 Z"/></g>
<g><path style="opacity:1" fill="#181818" d="M 215.5,88.5 C 215.938,92.9083 213.938,94.5749 209.5,93.5C 207.767,92.9924 207.434,92.159 208.5,91C 209.951,91.2626 211.284,91.0959 212.5,90.5C 208.684,89.5713 207.35,87.4046 208.5,84C 210.5,83.3333 212.5,83.3333 214.5,84C 215.833,84.6667 215.833,85.3333 214.5,86C 213.262,85.9227 212.262,86.0894 211.5,86.5C 212.577,87.7051 213.91,88.3718 215.5,88.5 Z"/></g>
<g><path style="opacity:1" fill="#141414" d="M 252.5,89.5 C 250.562,93.1692 247.562,94.3359 243.5,93C 241.393,91.7365 240.393,89.9032 240.5,87.5C 241.29,86.2058 242.29,85.0391 243.5,84C 248.707,82.3908 251.707,84.2241 252.5,89.5 Z"/></g>
<g><path style="opacity:1" fill="#141414" d="M 264.5,93.5 C 263.899,87.804 262.899,87.4707 261.5,92.5C 260.635,93.5827 259.635,93.7494 258.5,93C 257.645,90.5644 256.979,88.0644 256.5,85.5C 256.821,83.9519 257.821,83.2852 259.5,83.5C 259.719,88.6294 260.386,88.6294 261.5,83.5C 264.766,83.4326 266.266,85.0992 266,88.5C 267.009,86.9751 267.509,85.3084 267.5,83.5C 268.675,83.281 269.675,83.6143 270.5,84.5C 269.067,87.333 268.4,90.333 268.5,93.5C 267.167,93.5 265.833,93.5 264.5,93.5 Z"/></g>
<g><path style="opacity:1" fill="transparent" d="M 139.5,83.5 C 139.821,85.0481 140.821,85.7148 142.5,85.5C 142.5,88.1667 142.5,90.8333 142.5,93.5C 141.835,91.3021 141.168,88.9688 140.5,86.5C 139.914,86.7093 139.414,87.0426 139,87.5C 138.235,85.9343 138.402,84.6009 139.5,83.5 Z"/></g>
<g><path style="opacity:1" fill="transparent" d="M 226.5,83.5 C 226.5,86.8333 226.5,90.1667 226.5,93.5C 227.5,93.5 228.5,93.5 229.5,93.5C 229.101,87.3588 230.101,87.0254 232.5,92.5C 233.689,93.4287 235.022,93.762 236.5,93.5C 236.5,90.5 236.5,87.5 236.5,84.5C 237.648,83.105 238.648,83.2716 239.5,85C 237.258,86.0074 237.592,86.8407 240.5,87.5C 240.393,89.9032 241.393,91.7365 243.5,93C 247.562,94.3359 250.562,93.1692 252.5,89.5C 253.393,87.703 254.726,86.3696 256.5,85.5C 256.979,88.0644 257.645,90.5644 258.5,93C 259.635,93.7494 260.635,93.5827 261.5,92.5C 262.899,87.4707 263.899,87.804 264.5,93.5C 264.082,94.2216 263.416,94.7216 262.5,95C 263.167,95.3333 263.833,95.6667 264.5,96C 263.643,96.6891 262.977,97.5224 262.5,98.5C 263.758,97.9836 264.758,98.6503 265.5,100.5C 264.674,101.451 264.508,102.451 265,103.5C 266.309,101.109 267.309,101.109 268,103.5C 269,101.833 270,100.167 271,98.5C 271.383,99.056 271.883,99.3893 272.5,99.5C 272.916,101.752 274.249,103.252 276.5,104C 275.177,104.816 274.511,105.983 274.5,107.5C 273.425,106.438 272.425,106.438 271.5,107.5C 272.877,109.289 273.877,111.289 274.5,113.5C 271.924,114.883 272.258,115.717 275.5,116C 273.939,116.318 272.772,117.151 272,118.5C 271.781,117.062 271.281,115.729 270.5,114.5C 270.12,116.021 269.954,117.687 270,119.5C 268.667,118.167 267.333,116.833 266,115.5C 265.586,115.957 265.086,116.291 264.5,116.5C 263.107,115.137 261.441,114.304 259.5,114C 260.634,112.984 260.301,112.317 258.5,112C 260.135,111.46 261.468,111.96 262.5,113.5C 263.308,113.192 263.975,112.692 264.5,112C 262.187,110.735 260.02,109.235 258,107.5C 256.513,108.253 256.346,109.086 257.5,110C 255.699,110.317 255.366,110.984 256.5,112C 255.5,112.667 254.5,112.667 253.5,112C 254.28,110.927 254.113,109.76 253,108.5C 252.167,109.5 251.333,110.5 250.5,111.5C 249.5,110.833 248.5,110.167 247.5,109.5C 246.618,110.76 245.618,111.926 244.5,113C 245.5,113.333 246.5,113.667 247.5,114C 246.366,115.016 246.699,115.683 248.5,116C 245.833,116.667 245.833,117.333 248.5,118C 247.333,118.5 246.5,119.333 246,120.5C 244.703,119.216 243.536,119.383 242.5,121C 244.929,121.451 245.096,122.285 243,123.5C 241.829,122.107 240.329,121.273 238.5,121C 239.5,120.667 240.5,120.333 241.5,120C 239.645,119.578 237.811,119.078 236,118.5C 235.746,119.712 234.913,120.878 233.5,122C 234.517,123.049 234.684,124.216 234,125.5C 233.302,124.309 232.469,123.309 231.5,122.5C 231.577,121.25 232.244,120.417 233.5,120C 232.672,119.085 231.672,118.419 230.5,118C 231.5,117.667 232.5,117.333 233.5,117C 231.133,116.626 229.3,115.459 228,113.5C 226.779,114.272 225.779,115.272 225,116.5C 224.311,115.643 223.478,114.977 222.5,114.5C 220.52,115.484 218.853,116.817 217.5,118.5C 215.599,117.065 215.266,115.398 216.5,113.5C 215.902,112.205 215.402,110.872 215,109.5C 214.667,110.5 214.333,111.5 214,112.5C 212.707,110.714 212.207,109.047 212.5,107.5C 211.719,108.729 211.219,110.062 211,111.5C 210.803,109.139 209.636,107.472 207.5,106.5C 210.028,105.184 210.028,104.017 207.5,103C 208.598,102.23 208.598,101.397 207.5,100.5C 207.586,99.5041 207.252,98.6708 206.5,98C 207.748,96.6003 208.748,95.1003 209.5,93.5C 213.938,94.5749 215.938,92.9083 215.5,88.5C 216.801,87.1184 217.634,85.4517 218,83.5C 218.656,87.0016 219.989,87.0016 222,83.5C 222.333,84.1667 222.667,84.8333 223,85.5C 223.816,84.1772 224.983,83.5106 226.5,83.5 Z"/></g>
<g><path style="opacity:1" fill="transparent" d="M 245.5,85.5 C 250.197,86.8743 250.531,88.8743 246.5,91.5C 243.025,89.9158 242.692,87.9158 245.5,85.5 Z"/></g>
<g><path style="opacity:1" fill="#131313" d="M 226.5,83.5 C 229.642,83.7993 231.809,85.4659 233,88.5C 233.494,86.8659 233.66,85.1992 233.5,83.5C 234.791,83.2627 235.791,83.596 236.5,84.5C 236.5,87.5 236.5,90.5 236.5,93.5C 235.022,93.762 233.689,93.4287 232.5,92.5C 230.101,87.0254 229.101,87.3588 229.5,93.5C 228.5,93.5 227.5,93.5 226.5,93.5C 226.5,90.1667 226.5,86.8333 226.5,83.5 Z"/></g>
<g><path style="opacity:1" fill="#e04835" d="M 89.5,93.5 C 99.2379,101.829 100.905,111.496 94.5,122.5C 88.1417,130.06 80.1417,132.394 70.5,129.5C 57.9396,121.954 55.1063,111.621 62,98.5C 63.3712,96.9586 64.8712,95.6253 66.5,94.5C 73.8771,89.5345 81.5437,89.2012 89.5,93.5 Z"/></g>
<g><path style="opacity:1" fill="#205f65" d="M 122.5,98.5 C 125.523,111.307 120.523,117.14 107.5,116C 105.677,115.003 104.01,113.836 102.5,112.5C 99.1044,105.879 100.104,100.046 105.5,95C 112.053,92.2226 117.72,93.3893 122.5,98.5 Z"/></g>
<g><path style="opacity:1" fill="transparent" d="M 126.5,89.5 C 128.124,89.3601 129.29,90.0267 130,91.5C 130.667,90.8333 131.333,90.1667 132,89.5C 133.423,91.5039 135.256,93.0039 137.5,94C 137.167,94.3333 136.833,94.6667 136.5,95C 140.361,95.5691 140.361,96.4024 136.5,97.5C 138.193,98.2283 139.693,99.2283 141,100.5C 141.741,99.3595 142.575,99.3595 143.5,100.5C 144.192,99.9747 144.692,99.3081 145,98.5C 146.42,100.422 148.253,101.755 150.5,102.5C 149.687,103.814 148.687,104.981 147.5,106C 147.833,106.333 148.167,106.667 148.5,107C 146.717,108.067 146.217,109.567 147,111.5C 148.074,110.382 149.24,109.382 150.5,108.5C 150.291,107.914 149.957,107.414 149.5,107C 150.692,105.088 151.692,103.088 152.5,101C 151.328,100.581 150.328,99.9147 149.5,99C 151.263,97.3984 153.096,96.8984 155,97.5C 153.925,98.8848 153.425,101.218 153.5,104.5C 155.655,104.628 157.655,104.128 159.5,103C 158.833,102.667 158.167,102.333 157.5,102C 158.667,101.5 159.5,100.667 160,99.5C 164,100.167 166.333,102.5 167,106.5C 167.833,105 169,103.833 170.5,103C 169.062,102.781 167.729,102.281 166.5,101.5C 166.808,100.692 167.308,100.025 168,99.5C 170.586,102.125 173.086,101.958 175.5,99C 174.5,96.9093 175.167,95.2426 177.5,94C 176.756,92.9614 175.756,92.4614 174.5,92.5C 174.5,92.1667 174.5,91.8333 174.5,91.5C 175.287,89.8958 176.62,89.2291 178.5,89.5C 178.5,90.8333 178.5,92.1667 178.5,93.5C 179.5,93.5 180.5,93.5 181.5,93.5C 181.5,92.5 181.5,91.5 181.5,90.5C 182.5,90.5 183.5,90.5 184.5,90.5C 184.361,94.0544 185.694,96.8877 188.5,99C 188.095,99.9454 187.428,100.612 186.5,101C 187.246,103.093 187.579,105.093 187.5,107C 186.315,108.353 184.981,109.52 183.5,110.5C 186.177,112.264 185.844,113.43 182.5,114C 184.807,114.309 186.974,115.142 189,116.5C 189.333,115.833 189.667,115.167 190,114.5C 193.246,116.009 194.579,118.343 194,121.5C 194.833,120 196,118.833 197.5,118C 196.5,117 195.5,116 194.5,115C 195.308,114.692 195.975,114.192 196.5,113.5C 195.271,112.719 193.938,112.219 192.5,112C 194.167,111.667 195.833,111.333 197.5,111C 195.598,109.606 195.265,107.773 196.5,105.5C 192.446,105.79 191.946,105.123 195,103.5C 196,104.833 197,104.833 198,103.5C 198.333,104.167 198.667,104.833 199,105.5C 199.625,102.294 201.291,101.294 204,102.5C 204.816,101.177 205.983,100.511 207.5,100.5C 208.598,101.397 208.598,102.23 207.5,103C 210.028,104.017 210.028,105.184 207.5,106.5C 209.636,107.472 210.803,109.139 211,111.5C 211.219,110.062 211.719,108.729 212.5,107.5C 212.207,109.047 212.707,110.714 214,112.5C 214.333,111.5 214.667,110.5 215,109.5C 215.402,110.872 215.902,112.205 216.5,113.5C 215.266,115.398 215.599,117.065 217.5,118.5C 218.853,116.817 220.52,115.484 222.5,114.5C 223.478,114.977 224.311,115.643 225,116.5C 225.779,115.272 226.779,114.272 228,113.5C 229.3,115.459 231.133,116.626 233.5,117C 232.5,117.333 231.5,117.667 230.5,118C 231.672,118.419 232.672,119.085 233.5,120C 232.244,120.417 231.577,121.25 231.5,122.5C 228.528,122.17 226.362,123.17 225,125.5C 222.853,124.524 220.686,124.691 218.5,126C 217.888,127.303 217.554,128.47 217.5,129.5C 216.749,128.624 216.249,127.624 216,126.5C 214.648,128.696 214.148,130.862 214.5,133C 217.941,134.258 219.274,136.758 218.5,140.5C 217.448,140.649 216.448,140.483 215.5,140C 215.833,139.667 216.167,139.333 216.5,139C 214.51,136.012 212.177,133.345 209.5,131C 210.833,129.667 212.167,128.333 213.5,127C 211.613,127.423 209.613,127.256 207.5,126.5C 207.762,127.978 207.429,129.311 206.5,130.5C 204.478,129.542 202.312,128.875 200,128.5C 198.225,129.27 196.725,130.437 195.5,132C 196.64,133.973 197.973,135.807 199.5,137.5C 198.975,138.192 198.308,138.692 197.5,139C 200.334,141.184 201.668,140.684 201.5,137.5C 203.401,137.433 205.234,137.767 207,138.5C 207.945,138.095 208.612,137.428 209,136.5C 210.067,137.191 211.234,137.691 212.5,138C 213.753,142.347 212.92,142.514 210,138.5C 208.933,139.191 207.766,139.691 206.5,140C 208.32,140.2 209.653,141.034 210.5,142.5C 175.167,142.5 139.833,142.5 104.5,142.5C 105.255,140.534 106.421,140.2 108,141.5C 109.085,139.627 110.418,137.96 112,136.5C 112.626,138.991 113.459,138.991 114.5,136.5C 114.998,137.603 115.331,138.603 115.5,139.5C 116.251,138.624 116.751,137.624 117,136.5C 118.609,137.15 120.109,136.65 121.5,135C 119.057,134.555 116.39,134.555 113.5,135C 115.074,134.664 116.408,133.831 117.5,132.5C 116.359,131.575 116.359,130.741 117.5,130C 114.934,128.374 115.101,126.874 118,125.5C 119.044,126.623 119.71,127.956 120,129.5C 120.875,127.487 122.209,127.487 124,129.5C 124.368,128.09 125.201,127.09 126.5,126.5C 129.119,127.624 131.285,129.29 133,131.5C 135.65,129.872 136.483,127.705 135.5,125C 140.833,122.333 140.833,119.667 135.5,117C 136.167,116.667 136.833,116.333 137.5,116C 135.715,114.837 133.715,114.17 131.5,114C 132.634,112.984 132.301,112.317 130.5,112C 132.135,111.46 133.468,111.96 134.5,113.5C 135.308,113.192 135.975,112.692 136.5,112C 134.187,110.735 132.02,109.235 130,107.5C 128.513,108.253 128.346,109.086 129.5,110C 127.699,110.317 127.366,110.984 128.5,112C 127.216,112.684 126.049,112.517 125,111.5C 123.349,113.402 123.016,115.402 124,117.5C 123.667,117.833 123.333,118.167 123,118.5C 119.29,115.527 117.624,116.194 118,120.5C 116.703,119.216 115.536,119.383 114.5,121C 116.929,121.451 117.096,122.285 115,123.5C 113.829,122.107 112.329,121.273 110.5,121C 111.5,120.667 112.5,120.333 113.5,120C 111.645,119.578 109.811,119.078 108,118.5C 107.746,119.712 106.913,120.878 105.5,122C 106.517,123.049 106.684,124.216 106,125.5C 105.302,124.309 104.469,123.309 103.5,122.5C 103.577,121.25 104.244,120.417 105.5,120C 104.672,119.085 103.672,118.419 102.5,118C 103.5,117.667 104.5,117.333 105.5,117C 102.097,116.8 101.097,115.3 102.5,112.5C 104.01,113.836 105.677,115.003 107.5,116C 120.523,117.14 125.523,111.307 122.5,98.5C 122.5,97.5 122.5,96.5 122.5,95.5C 124.575,95.6984 126.575,95.8651 128.5,96C 127.313,94.9805 126.313,93.8139 125.5,92.5C 127.435,91.787 127.768,90.787 126.5,89.5 Z"/></g>
<g><path style="opacity:1" fill="transparent" d="M 21.5,82.5 C 28.5237,90.3708 37.1903,92.7042 47.5,89.5C 49.1992,89.6602 50.8659,89.4935 52.5,89C 54.2244,88.5518 54.891,87.7185 54.5,86.5C 57.8402,88.2246 61.0068,90.2246 64,92.5C 65.0495,91.4829 66.2161,91.3162 67.5,92C 65.3808,92.3418 65.0474,93.1751 66.5,94.5C 64.8712,95.6253 63.3712,96.9586 62,98.5C 55.1063,111.621 57.9396,121.954 70.5,129.5C 69.2058,130.29 68.0391,131.29 67,132.5C 65.927,131.72 64.7604,131.887 63.5,133C 64.8333,133.667 66.1667,134.333 67.5,135C 65.0103,135.495 63.5103,136.995 63,139.5C 62.3333,138.833 61.6667,138.167 61,137.5C 61,138.833 61,140.167 61,141.5C 59.778,138.107 57.6114,135.44 54.5,133.5C 53.9149,135.865 52.7482,137.865 51,139.5C 48.9659,137.44 46.9659,137.774 45,140.5C 43.42,136.673 41.92,136.839 40.5,141C 41.056,141.383 41.3893,141.883 41.5,142.5C 40.8333,142.5 40.1667,142.5 39.5,142.5C 39.2865,140.856 39.6198,139.356 40.5,138C 38.9601,136.149 37.4601,134.982 36,134.5C 35.6667,134.833 35.3333,135.167 35,135.5C 33.9326,134.809 32.7659,134.309 31.5,134C 30.6383,131.266 29.805,131.099 29,133.5C 26.3998,132.693 24.0664,133.36 22,135.5C 21.6667,135.167 21.3333,134.833 21,134.5C 20.0855,138.185 19.4189,137.852 19,133.5C 18.6667,133.833 18.3333,134.167 18,134.5C 17.0701,132.448 15.5701,130.948 13.5,130C 15.8261,128.453 16.9928,126.619 17,124.5C 17.3333,125.5 17.6667,126.5 18,127.5C 19.8072,125.231 19.3072,123.397 16.5,122C 19.211,122.097 21.0444,123.597 22,126.5C 22.6355,125.034 23.4688,123.7 24.5,122.5C 23.7261,121.289 22.8928,121.289 22,122.5C 21.2438,120.191 21.7438,118.191 23.5,116.5C 22.3595,115.575 22.3595,114.741 23.5,114C 22.572,113.612 21.9054,112.945 21.5,112C 22.327,108.847 21.4936,108.68 19,111.5C 18.8333,110.833 18.6667,110.167 18.5,109.5C 18.7129,106.935 20.0462,104.601 22.5,102.5C 20.2529,101.755 18.4196,100.422 17,98.5C 16.6924,99.3081 16.1924,99.9747 15.5,100.5C 14.5745,99.3595 13.7412,99.3595 13,100.5C 11.6932,99.2283 10.1932,98.2283 8.5,97.5C 12.3605,96.4024 12.3605,95.5691 8.5,95C 9.83333,94.3333 9.83333,93.6667 8.5,93C 6.47936,92.487 4.97936,91.3203 4,89.5C 3.18871,90.9597 2.35538,91.293 1.5,90.5C 2.93404,88.7801 3.76737,86.7801 4,84.5C 4.86241,86.087 5.52907,87.7536 6,89.5C 7.18268,88.269 8.34934,88.269 9.5,89.5C 10.6405,90.4255 10.6405,91.2588 9.5,92C 11.7922,94.0238 12.4589,93.6905 11.5,91C 13.5,89.6667 15.5,88.3333 17.5,87C 16.9747,86.3076 16.3081,85.8076 15.5,85.5C 13.9954,88.1306 13.3287,87.7973 13.5,84.5C 15.5914,84.3184 17.5914,84.6518 19.5,85.5C 20.5063,85.0623 20.5063,84.3957 19.5,83.5C 19.9569,82.7025 20.6236,82.3691 21.5,82.5 Z"/></g>
<g><path style="opacity:1" fill="#328d8b" d="M 39.5,93.5 C 48.8953,92.0894 54.562,95.9227 56.5,105C 54.7369,114.395 49.0702,118.062 39.5,116C 33.6433,112.813 31.4766,107.979 33,101.5C 34.3046,98.0386 36.4713,95.372 39.5,93.5 Z"/></g>
<g><path style="opacity:1" fill="transparent" d="M 279.5,102.5 C 279.541,104.745 280.375,105.412 282,104.5C 283.067,105.191 284.234,105.691 285.5,106C 284.833,106.333 284.167,106.667 283.5,107C 285.222,109.511 287.555,111.011 290.5,111.5C 290.5,121.833 290.5,132.167 290.5,142.5C 278.833,142.5 267.167,142.5 255.5,142.5C 256.936,141.571 258.269,140.405 259.5,139C 257.845,137.556 257.178,135.722 257.5,133.5C 260.13,132.572 262.796,131.572 265.5,130.5C 266.833,129.5 266.833,128.5 265.5,127.5C 265.833,126.5 266.5,125.833 267.5,125.5C 268.584,126.665 269.417,127.998 270,129.5C 270.833,128.667 271.667,127.833 272.5,127C 272.36,125.736 272.36,124.569 272.5,123.5C 273.281,124.729 273.781,126.062 274,127.5C 275.807,125.231 275.307,123.397 272.5,122C 275.211,122.097 277.044,123.597 278,126.5C 278.635,125.034 279.469,123.7 280.5,122.5C 279.726,121.289 278.893,121.289 278,122.5C 277.244,120.191 277.744,118.191 279.5,116.5C 278.359,115.575 278.359,114.741 279.5,114C 277.408,113.047 277.075,111.714 278.5,110C 277.004,109.493 275.837,109.993 275,111.5C 274.51,110.207 274.343,108.873 274.5,107.5C 274.511,105.983 275.177,104.816 276.5,104C 274.249,103.252 272.916,101.752 272.5,99.5C 272.435,99.0618 272.601,98.7284 273,98.5C 274.678,100.666 276.845,101.999 279.5,102.5 Z"/></g>
<g><path style="opacity:1" fill="transparent" d="M 104.5,142.5 C 83.5,142.5 62.5,142.5 41.5,142.5C 41.3893,141.883 41.056,141.383 40.5,141C 41.92,136.839 43.42,136.673 45,140.5C 46.9659,137.774 48.9659,137.44 51,139.5C 52.7482,137.865 53.9149,135.865 54.5,133.5C 57.6114,135.44 59.778,138.107 61,141.5C 61,140.167 61,138.833 61,137.5C 61.6667,138.167 62.3333,138.833 63,139.5C 63.5103,136.995 65.0103,135.495 67.5,135C 66.1667,134.333 64.8333,133.667 63.5,133C 64.7604,131.887 65.927,131.72 67,132.5C 68.0391,131.29 69.2058,130.29 70.5,129.5C 80.1417,132.394 88.1417,130.06 94.5,122.5C 95.7206,123.028 96.8873,123.695 98,124.5C 98.3333,123.833 98.6667,123.167 99,122.5C 100.299,122.966 101.799,122.966 103.5,122.5C 104.469,123.309 105.302,124.309 106,125.5C 106.684,124.216 106.517,123.049 105.5,122C 106.913,120.878 107.746,119.712 108,118.5C 109.811,119.078 111.645,119.578 113.5,120C 112.5,120.333 111.5,120.667 110.5,121C 112.329,121.273 113.829,122.107 115,123.5C 117.096,122.285 116.929,121.451 114.5,121C 115.536,119.383 116.703,119.216 118,120.5C 117.624,116.194 119.29,115.527 123,118.5C 123.333,118.167 123.667,117.833 124,117.5C 123.016,115.402 123.349,113.402 125,111.5C 126.049,112.517 127.216,112.684 128.5,112C 127.366,110.984 127.699,110.317 129.5,110C 128.346,109.086 128.513,108.253 130,107.5C 132.02,109.235 134.187,110.735 136.5,112C 135.975,112.692 135.308,113.192 134.5,113.5C 133.468,111.96 132.135,111.46 130.5,112C 132.301,112.317 132.634,112.984 131.5,114C 133.715,114.17 135.715,114.837 137.5,116C 136.833,116.333 136.167,116.667 135.5,117C 140.833,119.667 140.833,122.333 135.5,125C 136.483,127.705 135.65,129.872 133,131.5C 131.285,129.29 129.119,127.624 126.5,126.5C 125.201,127.09 124.368,128.09 124,129.5C 122.209,127.487 120.875,127.487 120,129.5C 119.71,127.956 119.044,126.623 118,125.5C 115.101,126.874 114.934,128.374 117.5,130C 116.359,130.741 116.359,131.575 117.5,132.5C 116.408,133.831 115.074,134.664 113.5,135C 116.39,134.555 119.057,134.555 121.5,135C 120.109,136.65 118.609,137.15 117,136.5C 116.751,137.624 116.251,138.624 115.5,139.5C 115.331,138.603 114.998,137.603 114.5,136.5C 113.459,138.991 112.626,138.991 112,136.5C 110.418,137.96 109.085,139.627 108,141.5C 106.421,140.2 105.255,140.534 104.5,142.5 Z"/></g>
<g><path style="opacity:1" fill="transparent" d="M 274.5,107.5 C 274.343,108.873 274.51,110.207 275,111.5C 275.837,109.993 277.004,109.493 278.5,110C 277.075,111.714 277.408,113.047 279.5,114C 278.359,114.741 278.359,115.575 279.5,116.5C 277.744,118.191 277.244,120.191 278,122.5C 278.893,121.289 279.726,121.289 280.5,122.5C 279.469,123.7 278.635,125.034 278,126.5C 277.044,123.597 275.211,122.097 272.5,122C 275.307,123.397 275.807,125.231 274,127.5C 273.781,126.062 273.281,124.729 272.5,123.5C 272.36,124.569 272.36,125.736 272.5,127C 271.667,127.833 270.833,128.667 270,129.5C 269.417,127.998 268.584,126.665 267.5,125.5C 266.5,125.833 265.833,126.5 265.5,127.5C 266.833,128.5 266.833,129.5 265.5,130.5C 262.796,131.572 260.13,132.572 257.5,133.5C 257.178,135.722 257.845,137.556 259.5,139C 258.269,140.405 256.936,141.571 255.5,142.5C 240.5,142.5 225.5,142.5 210.5,142.5C 209.653,141.034 208.32,140.2 206.5,140C 207.766,139.691 208.933,139.191 210,138.5C 212.92,142.514 213.753,142.347 212.5,138C 211.234,137.691 210.067,137.191 209,136.5C 208.612,137.428 207.945,138.095 207,138.5C 205.234,137.767 203.401,137.433 201.5,137.5C 201.668,140.684 200.334,141.184 197.5,139C 198.308,138.692 198.975,138.192 199.5,137.5C 197.973,135.807 196.64,133.973 195.5,132C 196.725,130.437 198.225,129.27 200,128.5C 202.312,128.875 204.478,129.542 206.5,130.5C 207.429,129.311 207.762,127.978 207.5,126.5C 209.613,127.256 211.613,127.423 213.5,127C 212.167,128.333 210.833,129.667 209.5,131C 212.177,133.345 214.51,136.012 216.5,139C 216.167,139.333 215.833,139.667 215.5,140C 216.448,140.483 217.448,140.649 218.5,140.5C 219.274,136.758 217.941,134.258 214.5,133C 214.148,130.862 214.648,128.696 216,126.5C 216.249,127.624 216.749,128.624 217.5,129.5C 217.554,128.47 217.888,127.303 218.5,126C 220.686,124.691 222.853,124.524 225,125.5C 226.362,123.17 228.528,122.17 231.5,122.5C 232.469,123.309 233.302,124.309 234,125.5C 234.684,124.216 234.517,123.049 233.5,122C 234.913,120.878 235.746,119.712 236,118.5C 237.811,119.078 239.645,119.578 241.5,120C 240.5,120.333 239.5,120.667 238.5,121C 240.329,121.273 241.829,122.107 243,123.5C 245.096,122.285 244.929,121.451 242.5,121C 243.536,119.383 244.703,119.216 246,120.5C 246.5,119.333 247.333,118.5 248.5,118C 245.833,117.333 245.833,116.667 248.5,116C 246.699,115.683 246.366,115.016 247.5,114C 246.5,113.667 245.5,113.333 244.5,113C 245.618,111.926 246.618,110.76 247.5,109.5C 248.5,110.167 249.5,110.833 250.5,111.5C 251.333,110.5 252.167,109.5 253,108.5C 254.113,109.76 254.28,110.927 253.5,112C 254.5,112.667 255.5,112.667 256.5,112C 255.366,110.984 255.699,110.317 257.5,110C 256.346,109.086 256.513,108.253 258,107.5C 260.02,109.235 262.187,110.735 264.5,112C 263.975,112.692 263.308,113.192 262.5,113.5C 261.468,111.96 260.135,111.46 258.5,112C 260.301,112.317 260.634,112.984 259.5,114C 261.441,114.304 263.107,115.137 264.5,116.5C 265.086,116.291 265.586,115.957 266,115.5C 267.333,116.833 268.667,118.167 270,119.5C 269.954,117.687 270.12,116.021 270.5,114.5C 271.281,115.729 271.781,117.062 272,118.5C 272.772,117.151 273.939,116.318 275.5,116C 272.258,115.717 271.924,114.883 274.5,113.5C 273.877,111.289 272.877,109.289 271.5,107.5C 272.425,106.438 273.425,106.438 274.5,107.5 Z"/></g>
</svg>
