<?xml version="1.0" encoding="UTF-8"?>
<!DOCTYPE svg PUBLIC "-//W3C//DTD SVG 1.1//EN" "http://www.w3.org/Graphics/SVG/1.1/DTD/svg11.dtd">
<svg xmlns="http://www.w3.org/2000/svg" version="1.1" width="298px" height="254px" style="shape-rendering:geometricPrecision; text-rendering:geometricPrecision; image-rendering:optimizeQuality; fill-rule:evenodd; clip-rule:evenodd" xmlns:xlink="http://www.w3.org/1999/xlink">
<g><path style="opacity:1" fill="transparent" d="M -0.5,-0.5 C 98.8333,-0.5 198.167,-0.5 297.5,-0.5C 297.5,84.1667 297.5,168.833 297.5,253.5C 198.167,253.5 98.8333,253.5 -0.5,253.5C -0.5,168.833 -0.5,84.1667 -0.5,-0.5 Z"/></g>
<g><path style="opacity:1" fill="#2b2b2b" d="M 67.5,17.5 C 70.6537,18.4739 71.6537,20.4739 70.5,23.5C 68.4469,22.0606 67.4469,20.0606 67.5,17.5 Z"/></g>
<g><path style="opacity:1" fill="#c3c3c3" d="M 181.5,26.5 C 181.5,27.5 181.5,28.5 181.5,29.5C 183.429,29.2308 185.095,29.7308 186.5,31C 183.702,32.6296 181.035,34.4629 178.5,36.5C 178.704,35.4706 178.204,34.4706 177,33.5C 176.623,34.9423 175.79,35.9423 174.5,36.5C 174.294,34.4508 173.461,34.1175 172,35.5C 171.175,33.2992 171.675,31.4659 173.5,30C 171.481,30.1525 169.481,30.6525 167.5,31.5C 169.229,29.2733 171.562,28.2733 174.5,28.5C 174.5,27.5 174.5,26.5 174.5,25.5C 176.143,25.4802 177.476,26.1468 178.5,27.5C 179.417,26.8728 180.417,26.5394 181.5,26.5 Z"/></g>
<g><path style="opacity:1" fill="#bbbbbb" d="M 161.5,33.5 C 160.067,34.9534 158.4,35.7867 156.5,36C 159.059,33.2933 159.059,30.7933 156.5,28.5C 157.839,26.0093 159.839,24.176 162.5,23C 165.911,22.9727 169.244,22.806 172.5,22.5C 173.59,23.3914 173.59,24.3914 172.5,25.5C 171.264,26.3567 169.931,27.0234 168.5,27.5C 165.888,27.0706 164.388,26.0706 164,24.5C 161.03,25.022 160.196,26.522 161.5,29C 159.069,30.4318 159.069,31.9318 161.5,33.5 Z"/></g>
<g><path style="opacity:1" fill="#939393" d="M 216.5,24.5 C 218.84,25.5718 219.173,27.2385 217.5,29.5C 220.127,31.2495 220.127,32.9161 217.5,34.5C 216.719,33.2713 216.219,31.938 216,30.5C 214.935,32.3963 214.102,32.563 213.5,31C 214.2,28.6324 215.2,26.4658 216.5,24.5 Z"/></g>
<g><path style="opacity:1" fill="#b2b2b2" d="M 127.5,33.5 C 126.075,31.9689 125.409,32.3023 125.5,34.5C 124.113,32.5112 124.447,30.6779 126.5,29C 127.332,28.3123 127.998,28.479 128.5,29.5C 127.754,30.7362 127.421,32.0695 127.5,33.5 Z"/></g>
<g><path style="opacity:1" fill="#444444" d="M 91.5,29.5 C 92.5,29.5 93.5,29.5 94.5,29.5C 94.5,30.5 94.5,31.5 94.5,32.5C 93.5,32.5 92.5,32.5 91.5,32.5C 91.5,31.5 91.5,30.5 91.5,29.5 Z"/></g>
<g><path style="opacity:1" fill="#878787" d="M 121.5,35.5 C 120.425,34.4376 119.425,34.4376 118.5,35.5C 125.468,40.4836 125.134,41.4836 117.5,38.5C 117.271,33.9214 116.271,29.588 114.5,25.5C 116.39,25.2965 117.89,25.9632 119,27.5C 120.591,29.9266 121.425,32.5933 121.5,35.5 Z"/></g>
<g><path style="opacity:1" fill="#d8d8d8" d="M 156.5,28.5 C 155.91,30.0972 154.91,31.4305 153.5,32.5C 154.853,33.5237 155.52,34.857 155.5,36.5C 152.635,36.9452 150.135,36.2785 148,34.5C 147.578,36.4257 146.411,37.4257 144.5,37.5C 143.778,37.0825 143.278,36.4158 143,35.5C 142.1,37.3975 140.934,39.0642 139.5,40.5C 137.919,37.8753 135.585,36.542 132.5,36.5C 130.632,35.7368 128.965,34.7368 127.5,33.5C 128.931,32.9181 130.264,32.0848 131.5,31C 130.833,30.6667 130.167,30.3333 129.5,30C 130.939,29.0094 131.939,27.676 132.5,26C 135.408,25.3112 138.075,24.1445 140.5,22.5C 140.5,24.5 140.5,26.5 140.5,28.5C 143.758,25.6035 147.091,22.7701 150.5,20C 153.387,19.2773 156.053,19.7773 158.5,21.5C 157.91,22.7989 156.91,23.6322 155.5,24C 155.957,24.414 156.291,24.914 156.5,25.5C 154.955,26.4519 153.288,26.7852 151.5,26.5C 151.218,21.421 150.218,21.2543 148.5,26C 149.112,27.3033 149.446,28.4699 149.5,29.5C 151.694,29.642 154.027,29.3086 156.5,28.5 Z"/></g>
<g><path style="opacity:1" fill="#989898" d="M 198.5,37.5 C 197.833,37.5 197.167,37.5 196.5,37.5C 196.5,37.1667 196.5,36.8333 196.5,36.5C 197.185,34.5856 197.685,32.5856 198,30.5C 200.215,29.1802 201.715,29.8469 202.5,32.5C 202.062,33.5063 201.396,33.5063 200.5,32.5C 199.438,34.0217 198.771,35.6883 198.5,37.5 Z"/></g>
<g><path style="opacity:1" fill="#e2e2e2" d="M 196.5,36.5 C 196.5,36.8333 196.5,37.1667 196.5,37.5C 197.167,37.5 197.833,37.5 198.5,37.5C 199.117,37.6107 199.617,37.944 200,38.5C 200.436,35.7164 201.936,34.5498 204.5,35C 202.627,35.9529 202.294,37.1196 203.5,38.5C 202.038,40.2549 200.205,41.5882 198,42.5C 197.5,43.5 197,44.5 196.5,45.5C 197.472,45.593 198.472,45.9264 199.5,46.5C 198.363,47.7888 197.03,48.7888 195.5,49.5C 192.494,47.0867 189.827,43.7534 187.5,39.5C 185.138,41.3625 182.471,42.5291 179.5,43C 178.483,44.0495 178.316,45.2161 179,46.5C 179.388,45.572 180.055,44.9054 181,44.5C 183.047,45.6094 185.213,46.2761 187.5,46.5C 187.565,48.6957 188.232,50.6957 189.5,52.5C 190.944,51.019 191.611,51.3523 191.5,53.5C 189.694,54.0241 188.028,54.6908 186.5,55.5C 184.497,53.9991 182.497,52.3325 180.5,50.5C 179.702,52.0777 179.202,53.7444 179,55.5C 178.355,54.354 177.522,53.354 176.5,52.5C 177.167,51.1667 177.833,49.8333 178.5,48.5C 178.376,47.8933 178.043,47.56 177.5,47.5C 177.5,47.1667 177.5,46.8333 177.5,46.5C 175.999,44.2612 174.666,44.2612 173.5,46.5C 173.167,45.6667 172.833,44.8333 172.5,44C 173.322,41.5284 173.989,39.0284 174.5,36.5C 175.79,35.9423 176.623,34.9423 177,33.5C 178.204,34.4706 178.704,35.4706 178.5,36.5C 181.035,34.4629 183.702,32.6296 186.5,31C 185.095,29.7308 183.429,29.2308 181.5,29.5C 181.5,28.5 181.5,27.5 181.5,26.5C 182.222,26.9175 182.722,27.5842 183,28.5C 183.202,26.7444 183.702,25.0777 184.5,23.5C 185.425,24.6405 186.259,24.6405 187,23.5C 187.876,29.3799 189.376,29.7132 191.5,24.5C 192.893,26.6741 192.56,28.5074 190.5,30C 191.191,31.0674 191.691,32.2341 192,33.5C 192.308,32.6919 192.808,32.0253 193.5,31.5C 194.325,33.3596 195.325,35.0262 196.5,36.5 Z"/></g>
<g><path style="opacity:1" fill="#5e5e5e" d="M 93.5,33.5 C 95.0481,33.8212 95.7148,34.8212 95.5,36.5C 96.5,36.5 97.5,36.5 98.5,36.5C 98.5,37.5 98.5,38.5 98.5,39.5C 95.0432,39.0399 93.3765,37.0399 93.5,33.5 Z"/></g>
<g><path style="opacity:1" fill="#969696" d="M 196.5,37.5 C 196.206,40.6461 194.539,41.8128 191.5,41C 188.93,38.5442 187.93,35.7108 188.5,32.5C 189.421,34.756 191.088,35.756 193.5,35.5C 193.351,36.552 193.517,37.552 194,38.5C 194.671,37.7476 195.504,37.4142 196.5,37.5 Z"/></g>
<g><path style="opacity:1" fill="#2d2d2d" d="M 84.5,37.5 C 81.0429,36.4852 80.7096,37.3186 83.5,40C 82.944,40.3826 82.6107,40.8826 82.5,41.5C 78.8428,37.8363 75.5095,33.8363 72.5,29.5C 73.0016,28.479 73.6683,28.3123 74.5,29C 77.2199,31.3806 80.2199,33.3806 83.5,35C 84.2524,35.6708 84.5858,36.5041 84.5,37.5 Z"/></g>
<g><path style="opacity:1" fill="#3e3e3e" d="M 156.5,28.5 C 159.059,30.7933 159.059,33.2933 156.5,36C 158.4,35.7867 160.067,34.9534 161.5,33.5C 160.972,34.8474 160.805,36.1807 161,37.5C 163.058,38.2291 164.891,39.2291 166.5,40.5C 167.609,41.29 168.942,41.79 170.5,42C 170.167,42.3333 169.833,42.6667 169.5,43C 170.357,43.6891 171.023,44.5224 171.5,45.5C 170.41,46.6086 170.41,47.6086 171.5,48.5C 172.72,47.2889 173.887,47.2889 175,48.5C 175.417,47.244 176.25,46.5774 177.5,46.5C 177.5,46.8333 177.5,47.1667 177.5,47.5C 175.673,48.6912 174.007,50.0245 172.5,51.5C 171.209,51.7373 170.209,51.404 169.5,50.5C 169.938,50.5654 170.272,50.3988 170.5,50C 167.675,48.5263 167.342,47.0263 169.5,45.5C 168.717,43.7118 167.384,42.7118 165.5,42.5C 161.617,39.0327 157.284,38.1994 152.5,40C 155.534,41.1912 157.201,43.3579 157.5,46.5C 154.129,45.1466 151.129,43.1466 148.5,40.5C 146.279,40.4387 145.946,41.1054 147.5,42.5C 146.167,42.5 144.833,42.5 143.5,42.5C 143.366,40.7085 143.699,39.0418 144.5,37.5C 146.411,37.4257 147.578,36.4257 148,34.5C 150.135,36.2785 152.635,36.9452 155.5,36.5C 155.52,34.857 154.853,33.5237 153.5,32.5C 154.91,31.4305 155.91,30.0972 156.5,28.5 Z"/></g>
<g><path style="opacity:1" fill="#686868" d="M 68.5,41.5 C 68.5,41.8333 68.5,42.1667 68.5,42.5C 67.8333,43.1667 67.1667,43.8333 66.5,44.5C 56.8661,34.4723 57.5327,33.4723 68.5,41.5 Z"/></g>
<g><path style="opacity:1" fill="#060404" d="M 127.5,33.5 C 128.965,34.7368 130.632,35.7368 132.5,36.5C 136.539,41.54 141.206,45.8734 146.5,49.5C 151.515,50.838 156.515,52.0047 161.5,53C 158.277,50.236 154.944,47.736 151.5,45.5C 150.564,44.0256 149.23,43.0256 147.5,42.5C 145.946,41.1054 146.279,40.4387 148.5,40.5C 151.129,43.1466 154.129,45.1466 157.5,46.5C 157.833,46.5 158.167,46.5 158.5,46.5C 159.452,47.452 160.452,48.452 161.5,49.5C 162.192,48.9747 162.692,48.3081 163,47.5C 165.221,48.4059 167.388,49.4059 169.5,50.5C 170.209,51.404 171.209,51.7373 172.5,51.5C 174.179,52.9997 175.512,54.833 176.5,57C 178.862,58.5106 181.195,60.0106 183.5,61.5C 184.167,62.8333 185.167,63.8333 186.5,64.5C 187.5,65.1667 188.5,65.8333 189.5,66.5C 190.748,68.69 192.414,69.0234 194.5,67.5C 194.131,69.9935 194.797,70.6602 196.5,69.5C 196.56,70.0431 196.893,70.3764 197.5,70.5C 198.251,69.624 198.751,68.624 199,67.5C 200,70.1667 201,70.1667 202,67.5C 203.11,69.0368 204.61,69.7035 206.5,69.5C 205.697,70.4232 205.53,71.4232 206,72.5C 207.303,73.1122 208.47,73.4455 209.5,73.5C 208.105,75.8612 206.105,77.5279 203.5,78.5C 204,79.5 204.5,80.5 205,81.5C 207.899,81.9767 210.566,82.9767 213,84.5C 213.494,82.8659 213.66,81.1992 213.5,79.5C 214.791,79.7373 215.791,79.404 216.5,78.5C 216.5,76.5 217.5,75.5 219.5,75.5C 220.167,76.1667 220.833,76.8333 221.5,77.5C 222.78,78.9313 224.447,79.5979 226.5,79.5C 227.71,79.0679 228.71,78.4013 229.5,77.5C 232.643,76.8665 235.143,75.1998 237,72.5C 238.803,66.1676 241.637,60.501 245.5,55.5C 246.578,57.4747 246.245,59.308 244.5,61C 245.308,61.3076 245.975,61.8076 246.5,62.5C 245.833,63.8333 245.167,65.1667 244.5,66.5C 245.948,67.3539 247.281,68.3539 248.5,69.5C 249.148,67.8508 250.148,66.5175 251.5,65.5C 252.491,69.637 253.824,73.637 255.5,77.5C 254.775,78.8669 254.108,80.2003 253.5,81.5C 250.495,89.1907 247.161,96.8573 243.5,104.5C 242.609,105.261 241.942,106.261 241.5,107.5C 242.782,107.088 243.782,107.754 244.5,109.5C 245.5,109.167 246.167,108.5 246.5,107.5C 248.176,108.183 248.843,109.517 248.5,111.5C 249.028,112.721 249.695,113.887 250.5,115C 253.541,115.576 256.208,116.742 258.5,118.5C 256.631,119.624 254.631,120.457 252.5,121C 250.393,122.264 249.393,124.097 249.5,126.5C 248.5,126.5 247.5,126.5 246.5,126.5C 246.56,129.341 247.226,132.007 248.5,134.5C 248.167,136.5 247.833,138.5 247.5,140.5C 245.158,140.504 243.158,141.337 241.5,143C 243.847,143.334 246.181,143.167 248.5,142.5C 248.116,144.929 247.449,147.263 246.5,149.5C 245.5,150.167 244.5,150.833 243.5,151.5C 239.938,151.965 236.605,153.132 233.5,155C 236.832,154.839 240.165,154.339 243.5,153.5C 243.262,155.404 242.262,156.738 240.5,157.5C 239.839,158.718 239.172,160.051 238.5,161.5C 235.987,162.728 233.987,164.395 232.5,166.5C 231.022,166.238 229.689,166.571 228.5,167.5C 230.13,170.276 230.797,173.276 230.5,176.5C 227.348,175.959 224.848,176.959 223,179.5C 219.274,184.055 218.274,189.055 220,194.5C 220.561,195.022 221.228,195.355 222,195.5C 224.321,194.513 225.987,192.846 227,190.5C 227.816,195.157 230.316,196.49 234.5,194.5C 231.053,197.438 227.053,199.438 222.5,200.5C 220.265,200.205 218.265,200.539 216.5,201.5C 215.5,201.5 214.5,201.5 213.5,201.5C 211.989,202.502 210.322,203.169 208.5,203.5C 208.719,204.675 208.386,205.675 207.5,206.5C 206.41,205.609 206.41,204.609 207.5,203.5C 206.833,202.167 206.167,202.167 205.5,203.5C 204.652,205.409 204.318,207.409 204.5,209.5C 203.5,209.833 202.833,210.5 202.5,211.5C 201.596,212.209 201.263,213.209 201.5,214.5C 200.833,214.5 200.167,214.5 199.5,214.5C 198.566,215.568 198.232,216.901 198.5,218.5C 194.727,218.657 193.727,220.324 195.5,223.5C 195.198,226.059 195.532,228.393 196.5,230.5C 198.012,235.729 199.012,241.062 199.5,246.5C 198.167,246.5 196.833,246.5 195.5,246.5C 193.193,231.862 192.193,231.862 192.5,246.5C 190.833,246.5 189.167,246.5 187.5,246.5C 186.627,239.45 184.627,232.784 181.5,226.5C 180.743,225.227 180.077,225.227 179.5,226.5C 179.587,229.598 179.087,229.932 178,227.5C 177.916,231.302 178.749,234.968 180.5,238.5C 180.043,239.298 179.376,239.631 178.5,239.5C 175.569,232.343 173.236,225.009 171.5,217.5C 171.737,216.209 171.404,215.209 170.5,214.5C 168.9,213.318 168.567,211.985 169.5,210.5C 168.386,209.224 167.386,209.224 166.5,210.5C 165.222,210.218 164.222,209.551 163.5,208.5C 163.833,205.5 162.5,204.167 159.5,204.5C 160.192,208.6 161.192,212.6 162.5,216.5C 162.672,217.492 162.338,218.158 161.5,218.5C 160.511,216.218 158.844,214.551 156.5,213.5C 156.931,212.707 157.265,211.873 157.5,211C 156.685,209.357 155.685,207.857 154.5,206.5C 153.791,205.596 152.791,205.263 151.5,205.5C 151.737,204.209 151.404,203.209 150.5,202.5C 151.458,201.038 152.624,199.705 154,198.5C 155.187,196.956 155.52,195.289 155,193.5C 152.931,197.236 149.931,199.903 146,201.5C 144.72,201.387 143.887,200.72 143.5,199.5C 147.53,197.637 150.363,194.637 152,190.5C 152.915,188.08 152.082,186.747 149.5,186.5C 142.756,189.883 140.09,195.216 141.5,202.5C 140.5,202.5 139.5,202.5 138.5,202.5C 138.665,204.827 139.331,206.993 140.5,209C 140.167,209.167 139.833,209.333 139.5,209.5C 137.472,206.403 135.305,206.07 133,208.5C 131.301,207.594 129.467,207.261 127.5,207.5C 126.383,204.721 125.217,204.388 124,206.5C 123.617,205.944 123.117,205.611 122.5,205.5C 125.96,202.58 127.794,198.913 128,194.5C 125.667,197.833 123.333,201.167 121,204.5C 122.031,200.563 123.197,196.563 124.5,192.5C 124.573,188.927 122.906,187.76 119.5,189C 113.432,193.301 110.765,199.135 111.5,206.5C 113.722,206.822 115.556,206.155 117,204.5C 117.669,207.345 116.503,209.012 113.5,209.5C 112.791,208.596 111.791,208.263 110.5,208.5C 108.12,207.537 107.12,205.703 107.5,203C 109.034,199.298 109.534,195.465 109,191.5C 107.612,190.446 106.112,190.28 104.5,191C 103.627,192.045 102.627,192.878 101.5,193.5C 100.54,192.485 99.3731,192.485 98,193.5C 96.699,193.361 95.8656,192.695 95.5,191.5C 96.0906,190.849 96.7573,190.182 97.5,189.5C 97.2907,188.914 96.9574,188.414 96.5,188C 93.5629,187.639 90.7296,188.139 88,189.5C 87.5,189.167 87,188.833 86.5,188.5C 88.4753,184.889 90.1419,181.223 91.5,177.5C 96.1079,176.889 100.608,175.889 105,174.5C 105.167,174.167 105.333,173.833 105.5,173.5C 99.1773,172.243 93.1773,173.243 87.5,176.5C 87.6653,180.542 86.332,184.209 83.5,187.5C 81.4352,187.483 79.4352,187.15 77.5,186.5C 72.6946,185.513 67.6946,185.179 62.5,185.5C 63.8606,183.473 65.5273,181.806 67.5,180.5C 68.4511,179.081 68.7845,177.415 68.5,175.5C 69.8333,175.5 71.1667,175.5 72.5,175.5C 72.7564,173.208 72.4231,171.041 71.5,169C 74.242,167.114 75.9087,164.614 76.5,161.5C 78.1788,161.715 79.1788,161.048 79.5,159.5C 82.324,159.011 83.6574,157.344 83.5,154.5C 81.2655,154.62 79.0989,154.287 77,153.5C 75.6898,154.13 74.8565,155.13 74.5,156.5C 73.5933,154.343 72.9267,152.01 72.5,149.5C 73.1534,148.193 73.8201,146.86 74.5,145.5C 73.675,144.614 72.675,144.281 71.5,144.5C 71.7148,142.821 71.0481,141.821 69.5,141.5C 65.603,141.726 62.2697,143.059 59.5,145.5C 58.7321,146.263 58.2321,147.263 58,148.5C 57.586,148.043 57.086,147.709 56.5,147.5C 55.452,148.548 54.452,149.548 53.5,150.5C 51.1667,152.5 48.8333,154.5 46.5,156.5C 45.8614,155.903 45.528,155.07 45.5,154C 46.1557,152.091 46.6557,150.258 47,148.5C 44.6408,151.038 43.1408,150.371 42.5,146.5C 40.512,148.147 39.1787,147.814 38.5,145.5C 39.3382,145.158 39.6716,144.492 39.5,143.5C 39.2079,142.126 38.8746,140.793 38.5,139.5C 38.5,138.5 38.5,137.5 38.5,136.5C 39.9217,136.291 41.255,135.791 42.5,135C 48.0445,128.953 54.0445,123.453 60.5,118.5C 61.6597,117.389 62.993,116.389 64.5,115.5C 63.7261,114.289 62.8928,114.289 62,115.5C 61.4177,112.332 60.4177,111.999 59,114.5C 58.5065,112.866 58.3398,111.199 58.5,109.5C 58.3505,108.448 58.5172,107.448 59,106.5C 61.854,104.402 64.5206,102.069 67,99.5C 67.1717,94.7982 67.6717,90.1315 68.5,85.5C 70.8961,83.9334 73.5628,83.1001 76.5,83C 71.4068,82.409 69.0735,79.5757 69.5,74.5C 71.3904,74.2965 72.8904,74.9632 74,76.5C 74.9947,75.9341 75.828,75.2674 76.5,74.5C 77.1667,74.5 77.5,74.1667 77.5,73.5C 77.5,72.5 77.5,71.5 77.5,70.5C 78.4457,68.8679 79.4457,67.2012 80.5,65.5C 78.6843,63.7097 77.3509,61.7097 76.5,59.5C 75.1667,57.5 73.8333,55.5 72.5,53.5C 72.7748,51.1582 73.6081,51.1582 75,53.5C 75.9246,52.9535 76.7579,52.2868 77.5,51.5C 76.5197,50.0186 75.353,48.6853 74,47.5C 74.1085,46.2312 73.9418,45.2312 73.5,44.5C 72.7629,42.6954 71.7629,41.0287 70.5,39.5C 70.76,38.0951 71.0934,36.7618 71.5,35.5C 72.9325,38.0967 75.0991,39.7633 78,40.5C 81.5863,46.0906 85.9196,51.0906 91,55.5C 91.3152,54.0922 90.9819,52.7589 90,51.5C 87.2833,48.2896 84.7833,44.9563 82.5,41.5C 82.6107,40.8826 82.944,40.3826 83.5,40C 80.7096,37.3186 81.0429,36.4852 84.5,37.5C 84.369,38.2389 84.5357,38.9056 85,39.5C 89.4054,43.0832 93.5721,46.7499 97.5,50.5C 97.2786,49.2652 96.6119,48.2652 95.5,47.5C 98.1107,45.5517 100.111,43.2183 101.5,40.5C 102.561,41.0405 103.561,41.3738 104.5,41.5C 106.203,43.1408 108.37,44.1408 111,44.5C 111.585,43.0024 111.085,42.0024 109.5,41.5C 108.909,40.8485 108.243,40.1818 107.5,39.5C 109.743,38.5258 112.076,38.1924 114.5,38.5C 115.5,38.5 116.5,38.5 117.5,38.5C 125.134,41.4836 125.468,40.4836 118.5,35.5C 119.425,34.4376 120.425,34.4376 121.5,35.5C 121.833,36.5 122.5,37.1667 123.5,37.5C 125.455,39.3258 127.788,39.8258 130.5,39C 129.211,37.1978 127.544,36.0312 125.5,35.5C 125.5,35.1667 125.5,34.8333 125.5,34.5C 125.409,32.3023 126.075,31.9689 127.5,33.5 Z"/></g>
<g><path style="opacity:1" fill="#adadad" d="M 125.5,35.5 C 127.544,36.0312 129.211,37.1978 130.5,39C 127.788,39.8258 125.455,39.3258 123.5,37.5C 124.833,37.5 125.5,36.8333 125.5,35.5 Z"/></g>
<g><path style="opacity:1" fill="#5d5d5d" d="M 114.5,38.5 C 112.076,38.1924 109.743,38.5258 107.5,39.5C 108.243,40.1818 108.909,40.8485 109.5,41.5C 107.833,41.5 106.167,41.5 104.5,41.5C 103.561,41.3738 102.561,41.0405 101.5,40.5C 105.705,38.561 110.039,36.8944 114.5,35.5C 115.562,36.4246 115.562,37.4246 114.5,38.5 Z"/></g>
<g><path style="opacity:1" fill="#777777" d="M 174.5,36.5 C 173.989,39.0284 173.322,41.5284 172.5,44C 172.833,44.8333 173.167,45.6667 173.5,46.5C 174.666,44.2612 175.999,44.2612 177.5,46.5C 176.25,46.5774 175.417,47.244 175,48.5C 173.887,47.2889 172.72,47.2889 171.5,48.5C 170.41,47.6086 170.41,46.6086 171.5,45.5C 171.023,44.5224 170.357,43.6891 169.5,43C 169.833,42.6667 170.167,42.3333 170.5,42C 168.942,41.79 167.609,41.29 166.5,40.5C 167.239,40.631 167.906,40.4643 168.5,40C 167.663,38.9887 167.33,37.8221 167.5,36.5C 168.552,36.6495 169.552,36.4828 170.5,36C 169.252,34.6003 168.252,33.1003 167.5,31.5C 169.481,30.6525 171.481,30.1525 173.5,30C 171.675,31.4659 171.175,33.2992 172,35.5C 173.461,34.1175 174.294,34.4508 174.5,36.5 Z"/></g>
<g><path style="opacity:1" fill="#afafaf" d="M 71.5,35.5 C 71.0934,36.7618 70.76,38.0951 70.5,39.5C 71.7629,41.0287 72.7629,42.6954 73.5,44.5C 72.7784,44.9175 72.2784,45.5842 72,46.5C 71.34,44.6763 70.1733,43.343 68.5,42.5C 68.5,42.1667 68.5,41.8333 68.5,41.5C 69.8189,39.3945 69.4856,37.3945 67.5,35.5C 68.7117,35.0698 70.045,35.0698 71.5,35.5 Z"/></g>
<g><path style="opacity:1" fill="#acacac" d="M 165.5,42.5 C 164.048,43.3019 162.382,43.8019 160.5,44C 159.619,44.7083 158.953,45.5416 158.5,46.5C 158.167,46.5 157.833,46.5 157.5,46.5C 157.201,43.3579 155.534,41.1912 152.5,40C 157.284,38.1994 161.617,39.0327 165.5,42.5 Z"/></g>
<g><path style="opacity:1" fill="#5e5e5e" d="M 220.5,38.5 C 227.416,40.618 227.749,42.9513 221.5,45.5C 221.109,49.225 219.109,51.225 215.5,51.5C 215.5,50.5 215.5,49.5 215.5,48.5C 216.5,48.5 217.5,48.5 218.5,48.5C 218.311,44.963 218.977,41.6297 220.5,38.5 Z"/></g>
<g><path style="opacity:1" fill="#545454" d="M 57.5,41.5 C 59.7279,42.3218 60.3946,43.6552 59.5,45.5C 58.2949,44.4231 57.6282,43.0898 57.5,41.5 Z"/></g>
<g><path style="opacity:1" fill="#bbbbbb" d="M 104.5,41.5 C 106.167,41.5 107.833,41.5 109.5,41.5C 111.085,42.0024 111.585,43.0024 111,44.5C 108.37,44.1408 106.203,43.1408 104.5,41.5 Z"/></g>
<g><path style="opacity:1" fill="#a6a6a6" d="M 203.5,38.5 C 204.239,38.369 204.906,38.5357 205.5,39C 206.085,40.3024 206.751,41.469 207.5,42.5C 206.4,43.6049 205.733,44.9382 205.5,46.5C 203.857,46.5198 202.524,45.8532 201.5,44.5C 200.537,44.9698 200.537,45.6365 201.5,46.5C 200.833,46.5 200.167,46.5 199.5,46.5C 198.472,45.9264 197.472,45.593 196.5,45.5C 197,44.5 197.5,43.5 198,42.5C 200.205,41.5882 202.038,40.2549 203.5,38.5 Z"/></g>
<g><path style="opacity:1" fill="#4d4d4d" d="M 92.5,39.5 C 94.561,40.7514 94.8943,42.4181 93.5,44.5C 92.5481,42.9547 92.2148,41.288 92.5,39.5 Z"/></g>
<g><path style="opacity:1" fill="#686868" d="M 144.5,37.5 C 143.699,39.0418 143.366,40.7085 143.5,42.5C 144.833,42.5 146.167,42.5 147.5,42.5C 149.23,43.0256 150.564,44.0256 151.5,45.5C 150.417,45.5394 149.417,45.8728 148.5,46.5C 147.833,45.8333 147.167,45.1667 146.5,44.5C 145.948,46.0026 145.948,47.6693 146.5,49.5C 141.206,45.8734 136.539,41.54 132.5,36.5C 135.585,36.542 137.919,37.8753 139.5,40.5C 140.934,39.0642 142.1,37.3975 143,35.5C 143.278,36.4158 143.778,37.0825 144.5,37.5 Z"/></g>
<g><path style="opacity:1" fill="#7e7e7e" d="M 165.5,42.5 C 167.384,42.7118 168.717,43.7118 169.5,45.5C 167.342,47.0263 167.675,48.5263 170.5,50C 170.272,50.3988 169.938,50.5654 169.5,50.5C 167.388,49.4059 165.221,48.4059 163,47.5C 162.692,48.3081 162.192,48.9747 161.5,49.5C 160.452,48.452 159.452,47.452 158.5,46.5C 158.953,45.5416 159.619,44.7083 160.5,44C 162.382,43.8019 164.048,43.3019 165.5,42.5 Z"/></g>
<g><path style="opacity:1" fill="#737373" d="M 195.5,49.5 C 194.215,51.8061 194.882,53.6394 197.5,55C 195.225,55.405 193.225,54.905 191.5,53.5C 191.611,51.3523 190.944,51.019 189.5,52.5C 188.232,50.6957 187.565,48.6957 187.5,46.5C 185.213,46.2761 183.047,45.6094 181,44.5C 180.055,44.9054 179.388,45.572 179,46.5C 178.316,45.2161 178.483,44.0495 179.5,43C 182.471,42.5291 185.138,41.3625 187.5,39.5C 189.827,43.7534 192.494,47.0867 195.5,49.5 Z"/></g>
<g><path style="opacity:1" fill="#666666" d="M 207.5,42.5 C 212.12,45.8735 211.454,47.2068 205.5,46.5C 205.733,44.9382 206.4,43.6049 207.5,42.5 Z"/></g>
<g><path style="opacity:1" fill="#222222" d="M 68.5,42.5 C 70.1733,43.343 71.34,44.6763 72,46.5C 72.2784,45.5842 72.7784,44.9175 73.5,44.5C 73.9418,45.2312 74.1085,46.2312 74,47.5C 75.353,48.6853 76.5197,50.0186 77.5,51.5C 76.7579,52.2868 75.9246,52.9535 75,53.5C 73.6081,51.1582 72.7748,51.1582 72.5,53.5C 70.2651,50.7089 68.2651,47.7089 66.5,44.5C 67.1667,43.8333 67.8333,43.1667 68.5,42.5 Z"/></g>
<g><path style="opacity:1" fill="#b4b4b4" d="M 151.5,45.5 C 154.944,47.736 158.277,50.236 161.5,53C 156.515,52.0047 151.515,50.838 146.5,49.5C 145.948,47.6693 145.948,46.0026 146.5,44.5C 147.167,45.1667 147.833,45.8333 148.5,46.5C 149.417,45.8728 150.417,45.5394 151.5,45.5 Z"/></g>
<g><path style="opacity:1" fill="#cacaca" d="M 206.5,54.5 C 205.833,54.5 205.167,54.5 204.5,54.5C 203.25,54.4226 202.417,53.756 202,52.5C 201.091,50.3425 200.925,48.3425 201.5,46.5C 200.537,45.6365 200.537,44.9698 201.5,44.5C 202.524,45.8532 203.857,46.5198 205.5,46.5C 211.454,47.2068 212.12,45.8735 207.5,42.5C 207.08,40.326 207.08,38.326 207.5,36.5C 211.542,40.9573 212.375,45.9573 210,51.5C 208.855,52.6364 207.688,53.6364 206.5,54.5 Z"/></g>
<g><path style="opacity:1" fill="#e0e0e0" d="M 97.5,50.5 C 99.4646,50.9483 99.7979,51.9483 98.5,53.5C 97.6143,52.675 97.281,51.675 97.5,50.5 Z"/></g>
<g><path style="opacity:1" fill="#8f8f8f" d="M 177.5,47.5 C 178.043,47.56 178.376,47.8933 178.5,48.5C 177.833,49.8333 177.167,51.1667 176.5,52.5C 177.522,53.354 178.355,54.354 179,55.5C 179.202,53.7444 179.702,52.0777 180.5,50.5C 182.497,52.3325 184.497,53.9991 186.5,55.5C 188.199,55.3398 189.866,55.5065 191.5,56C 188.947,57.6563 186.281,57.823 183.5,56.5C 183.5,58.1667 183.5,59.8333 183.5,61.5C 181.195,60.0106 178.862,58.5106 176.5,57C 175.512,54.833 174.179,52.9997 172.5,51.5C 174.007,50.0245 175.673,48.6912 177.5,47.5 Z"/></g>
<g><path style="opacity:1" fill="#989898" d="M 71.5,60.5 C 71.5,60.8333 71.5,61.1667 71.5,61.5C 69.2753,58.7376 67.2753,55.7376 65.5,52.5C 66.3554,51.707 67.1887,52.0403 68,53.5C 69.1932,55.8864 70.3599,58.2198 71.5,60.5 Z"/></g>
<g><path style="opacity:1" fill="#5a5a5a" d="M 199.5,46.5 C 200.167,46.5 200.833,46.5 201.5,46.5C 200.925,48.3425 201.091,50.3425 202,52.5C 202.417,53.756 203.25,54.4226 204.5,54.5C 204.631,55.3764 204.298,56.0431 203.5,56.5C 200.229,55.8023 196.896,55.8023 193.5,56.5C 193.768,58.099 193.434,59.4324 192.5,60.5C 192.483,58.9719 191.816,58.4719 190.5,59C 188.536,60.451 187.203,62.2843 186.5,64.5C 185.167,63.8333 184.167,62.8333 183.5,61.5C 183.5,59.8333 183.5,58.1667 183.5,56.5C 186.281,57.823 188.947,57.6563 191.5,56C 189.866,55.5065 188.199,55.3398 186.5,55.5C 188.028,54.6908 189.694,54.0241 191.5,53.5C 193.225,54.905 195.225,55.405 197.5,55C 194.882,53.6394 194.215,51.8061 195.5,49.5C 197.03,48.7888 198.363,47.7888 199.5,46.5 Z"/></g>
<g><path style="opacity:1" fill="#313131" d="M 57.5,58.5 C 58.9953,58.4148 59.9953,59.0815 60.5,60.5C 58.6043,61.6394 57.6043,60.9728 57.5,58.5 Z"/></g>
<g><path style="opacity:1" fill="#bebebe" d="M 218.5,57.5 C 218.5,58.8333 218.5,60.1667 218.5,61.5C 219.5,61.5 220.5,61.5 221.5,61.5C 220.602,62.1577 219.602,62.8243 218.5,63.5C 218.624,64.1067 218.957,64.44 219.5,64.5C 218.086,66.5983 218.752,67.5983 221.5,67.5C 219.649,68.8664 219.316,70.533 220.5,72.5C 221.711,71.7261 221.711,70.8928 220.5,70C 222.754,68.8495 225.087,68.5162 227.5,69C 226.663,70.0113 226.33,71.1779 226.5,72.5C 223.539,72.4642 221.206,73.4642 219.5,75.5C 217.5,75.5 216.5,76.5 216.5,78.5C 215.624,78.6309 214.957,78.2975 214.5,77.5C 215.833,74.8333 217.167,72.1667 218.5,69.5C 217.643,68.5748 216.643,67.9081 215.5,67.5C 216.357,66.1982 216.857,64.8649 217,63.5C 213.791,60.3648 210.291,57.6982 206.5,55.5C 208.451,55.7733 209.951,55.1066 211,53.5C 213.761,54.4992 215.094,56.4992 215,59.5C 215.816,58.1772 216.983,57.5106 218.5,57.5 Z"/></g>
<g><path style="opacity:1" fill="#404040" d="M 218.5,57.5 C 219.5,57.5 220.5,57.5 221.5,57.5C 221.5,58.8333 221.5,60.1667 221.5,61.5C 220.5,61.5 219.5,61.5 218.5,61.5C 218.5,60.1667 218.5,58.8333 218.5,57.5 Z"/></g>
<g><path style="opacity:1" fill="#3c3c3c" d="M 50.5,59.5 C 53.462,59.1167 54.462,60.1167 53.5,62.5C 51.7869,62.1207 50.7869,61.1207 50.5,59.5 Z"/></g>
<g><path style="opacity:1" fill="#252525" d="M 76.5,59.5 C 77.3509,61.7097 78.6843,63.7097 80.5,65.5C 79.4457,67.2012 78.4457,68.8679 77.5,70.5C 75.2549,67.6803 73.2549,64.6803 71.5,61.5C 71.5,61.1667 71.5,60.8333 71.5,60.5C 73.4147,60.7845 75.0813,60.4511 76.5,59.5 Z"/></g>
<g><path style="opacity:1" fill="#9d9d9d" d="M 192.5,60.5 C 191.971,62.7844 190.971,64.7844 189.5,66.5C 188.5,65.8333 187.5,65.1667 186.5,64.5C 187.203,62.2843 188.536,60.451 190.5,59C 191.816,58.4719 192.483,58.9719 192.5,60.5 Z"/></g>
<g><path style="opacity:1" fill="#404040" d="M 196.5,69.5 C 194.797,70.6602 194.131,69.9935 194.5,67.5C 193.75,63.3029 195.083,59.9695 198.5,57.5C 199.618,60.436 201.285,62.936 203.5,65C 203.167,65.5 202.833,66 202.5,66.5C 200.484,65.2941 198.484,65.2941 196.5,66.5C 197.653,67.6868 197.653,68.6868 196.5,69.5 Z"/></g>
<g><path style="opacity:1" fill="#343434" d="M 219.5,64.5 C 220.5,64.5 221.5,64.5 222.5,64.5C 222.737,65.791 222.404,66.791 221.5,67.5C 218.752,67.5983 218.086,66.5983 219.5,64.5 Z"/></g>
<g><path style="opacity:1" fill="#242424" d="M 204.5,54.5 C 205.167,54.5 205.833,54.5 206.5,54.5C 206.5,54.8333 206.5,55.1667 206.5,55.5C 210.291,57.6982 213.791,60.3648 217,63.5C 216.857,64.8649 216.357,66.1982 215.5,67.5C 213.5,66.8333 211.5,66.1667 209.5,65.5C 209.454,61.7651 207.787,60.4317 204.5,61.5C 205.248,63.3325 206.248,64.9991 207.5,66.5C 206.873,67.4168 206.539,68.4168 206.5,69.5C 204.61,69.7035 203.11,69.0368 202,67.5C 201,70.1667 200,70.1667 199,67.5C 198.751,68.624 198.251,69.624 197.5,70.5C 196.893,70.3764 196.56,70.0431 196.5,69.5C 197.653,68.6868 197.653,67.6868 196.5,66.5C 198.484,65.2941 200.484,65.2941 202.5,66.5C 202.833,66 203.167,65.5 203.5,65C 201.285,62.936 199.618,60.436 198.5,57.5C 195.083,59.9695 193.75,63.3029 194.5,67.5C 192.414,69.0234 190.748,68.69 189.5,66.5C 190.971,64.7844 191.971,62.7844 192.5,60.5C 193.434,59.4324 193.768,58.099 193.5,56.5C 196.896,55.8023 200.229,55.8023 203.5,56.5C 204.298,56.0431 204.631,55.3764 204.5,54.5 Z"/></g>
<g><path style="opacity:1" fill="#e61a27" d="M 132.5,86.5 C 131.673,91.6509 131.173,96.9842 131,102.5C 129.702,103.56 128.535,104.726 127.5,106C 128.856,107.567 129.523,109.4 129.5,111.5C 120.727,99.3443 119.394,86.3443 125.5,72.5C 124.393,70.9402 124.393,69.4402 125.5,68C 125.167,67.5 124.833,67 124.5,66.5C 123.583,67.1272 122.583,67.4606 121.5,67.5C 126.502,60.8108 133.169,56.3108 141.5,54C 143.259,53.2025 144.926,53.3691 146.5,54.5C 138.565,63.7064 133.898,74.3731 132.5,86.5 Z"/></g>
<g><path style="opacity:1" fill="#333333" d="M 43.5,68.5 C 44.8333,68.5 46.1667,68.5 47.5,68.5C 47.5,69.5 47.5,70.5 47.5,71.5C 45.0274,71.9118 43.6941,70.9118 43.5,68.5 Z"/></g>
<g><path style="opacity:1" fill="#606060" d="M 77.5,73.5 C 77.5,74.1667 77.1667,74.5 76.5,74.5C 73.8754,72.3968 72.3754,69.7301 72,66.5C 73.853,68.9025 75.6863,71.2359 77.5,73.5 Z"/></g>
<g><path style="opacity:1" fill="#555555" d="M 215.5,67.5 C 216.643,67.9081 217.643,68.5748 218.5,69.5C 217.167,72.1667 215.833,74.8333 214.5,77.5C 214.957,78.2975 215.624,78.6309 216.5,78.5C 215.791,79.404 214.791,79.7373 213.5,79.5C 213.66,81.1992 213.494,82.8659 213,84.5C 210.566,82.9767 207.899,81.9767 205,81.5C 204.5,80.5 204,79.5 203.5,78.5C 206.105,77.5279 208.105,75.8612 209.5,73.5C 208.47,73.4455 207.303,73.1122 206,72.5C 205.53,71.4232 205.697,70.4232 206.5,69.5C 206.539,68.4168 206.873,67.4168 207.5,66.5C 206.248,64.9991 205.248,63.3325 204.5,61.5C 207.787,60.4317 209.454,61.7651 209.5,65.5C 211.5,66.1667 213.5,66.8333 215.5,67.5 Z"/></g>
<g><path style="opacity:1" fill="#4a4a4a" d="M 226.5,72.5 C 227.313,74.2608 228.313,75.9275 229.5,77.5C 228.71,78.4013 227.71,79.0679 226.5,79.5C 226.685,73.6059 225.018,72.9393 221.5,77.5C 220.833,76.8333 220.167,76.1667 219.5,75.5C 221.206,73.4642 223.539,72.4642 226.5,72.5 Z"/></g>
<g><path style="opacity:1" fill="#252525" d="M 40.5,74.5 C 42.9775,74.0508 44.9775,74.7175 46.5,76.5C 44.604,77.4656 42.604,77.7989 40.5,77.5C 40.5,76.5 40.5,75.5 40.5,74.5 Z"/></g>
<g><path style="opacity:1" fill="#939393" d="M 226.5,79.5 C 224.447,79.5979 222.78,78.9313 221.5,77.5C 225.018,72.9393 226.685,73.6059 226.5,79.5 Z"/></g>
<g><path style="opacity:1" fill="#f64438" d="M 167.5,74.5 C 172.894,74.0849 177.061,76.0849 180,80.5C 180.414,80.0426 180.914,79.7093 181.5,79.5C 186.418,82.4226 191.418,85.2559 196.5,88C 197.793,88.49 199.127,88.6567 200.5,88.5C 200.606,91.1085 201.772,93.1085 204,94.5C 204.333,94.1667 204.667,93.8333 205,93.5C 206.213,95.9252 207.379,98.2585 208.5,100.5C 208.5,101.167 208.5,101.833 208.5,102.5C 208.823,106.226 208.489,109.893 207.5,113.5C 204.138,99.5906 195.804,90.0906 182.5,85C 178.514,84.5012 174.514,84.3345 170.5,84.5C 166.854,85.2834 163.188,85.4501 159.5,85C 160.536,83.2245 160.536,81.3911 159.5,79.5C 161.629,77.0499 164.296,75.3833 167.5,74.5 Z"/></g>
<g><path style="opacity:1" fill="#f25543" d="M 208.5,100.5 C 207.379,98.2585 206.213,95.9252 205,93.5C 204.667,93.8333 204.333,94.1667 204,94.5C 201.772,93.1085 200.606,91.1085 200.5,88.5C 199.127,88.6567 197.793,88.49 196.5,88C 191.418,85.2559 186.418,82.4226 181.5,79.5C 180.914,79.7093 180.414,80.0426 180,80.5C 177.061,76.0849 172.894,74.0849 167.5,74.5C 189.839,69.1327 203.505,77.7994 208.5,100.5 Z"/></g>
<g><path style="opacity:1" fill="#e41a26" d="M 159.5,79.5 C 160.536,81.3911 160.536,83.2245 159.5,85C 163.188,85.4501 166.854,85.2834 170.5,84.5C 171.038,86.1172 171.371,87.7839 171.5,89.5C 172.93,89.5792 174.264,89.2458 175.5,88.5C 176.308,88.8076 176.975,89.3076 177.5,90C 176.167,90.3333 174.833,90.6667 173.5,91C 175.26,91.9653 175.594,93.132 174.5,94.5C 171.182,92.3671 167.515,91.3671 163.5,91.5C 162.448,91.3505 161.448,91.5172 160.5,92C 162.349,93.093 164.016,94.4263 165.5,96C 161.045,96.2644 156.711,97.0978 152.5,98.5C 151.168,90.8278 153.502,84.4944 159.5,79.5 Z"/></g>
<g><path style="opacity:1" fill="#c1c1c1" d="M 253.5,81.5 C 253.216,83.4147 253.549,85.0813 254.5,86.5C 251.321,92.8697 247.654,98.8697 243.5,104.5C 247.161,96.8573 250.495,89.1907 253.5,81.5 Z"/></g>
<g><path style="opacity:1" fill="#cd1a26" d="M 170.5,84.5 C 174.514,84.3345 178.514,84.5012 182.5,85C 195.804,90.0906 204.138,99.5906 207.5,113.5C 208.489,109.893 208.823,106.226 208.5,102.5C 210.211,124.752 201.877,142.419 183.5,155.5C 183.586,154.504 183.252,153.671 182.5,153C 184.632,152.08 186.632,150.913 188.5,149.5C 188.291,148.914 187.957,148.414 187.5,148C 188.624,147.751 189.624,147.251 190.5,146.5C 191.167,144.5 191.833,142.5 192.5,140.5C 191.833,139.833 191.167,139.167 190.5,138.5C 190.417,135 190.417,131.5 190.5,128C 189.244,127.583 188.577,126.75 188.5,125.5C 189.592,107.551 181.259,96.2174 163.5,91.5C 167.515,91.3671 171.182,92.3671 174.5,94.5C 175.594,93.132 175.26,91.9653 173.5,91C 174.833,90.6667 176.167,90.3333 177.5,90C 176.975,89.3076 176.308,88.8076 175.5,88.5C 174.264,89.2458 172.93,89.5792 171.5,89.5C 171.371,87.7839 171.038,86.1172 170.5,84.5 Z"/></g>
<g><path style="opacity:1" fill="#3f3f3f" d="M 256.5,94.5 C 255.375,93.6522 255.375,92.6522 256.5,91.5C 256.795,89.5767 257.628,87.9101 259,86.5C 259.277,89.5015 258.444,92.1682 256.5,94.5 Z"/></g>
<g><path style="opacity:1" fill="#262626" d="M 254.5,86.5 C 255.404,87.209 255.737,88.209 255.5,89.5C 251.919,96.1153 248.252,102.782 244.5,109.5C 243.782,107.754 242.782,107.088 241.5,107.5C 241.942,106.261 242.609,105.261 243.5,104.5C 247.654,98.8697 251.321,92.8697 254.5,86.5 Z"/></g>
<g><path style="opacity:1" fill="#ababab" d="M 255.5,89.5 C 255.328,90.4916 255.662,91.1583 256.5,91.5C 255.375,92.6522 255.375,93.6522 256.5,94.5C 255.87,96.7496 254.87,98.7496 253.5,100.5C 253.565,100.062 253.399,99.7284 253,99.5C 251.054,102.42 248.887,105.087 246.5,107.5C 246.167,108.5 245.5,109.167 244.5,109.5C 248.252,102.782 251.919,96.1153 255.5,89.5 Z"/></g>
<g><path style="opacity:1" fill="#f1362f" d="M 129.5,111.5 C 130.11,113.434 131.11,115.101 132.5,116.5C 132.403,122.682 132.403,128.849 132.5,135C 133.878,136.713 135.545,138.047 137.5,139C 129.043,139.126 120.71,138.459 112.5,137C 115.389,139.556 118.722,141.223 122.5,142C 121.833,142.667 121.167,143.333 120.5,144C 122.604,146.238 124.938,147.238 127.5,147C 126.552,147.483 125.552,147.649 124.5,147.5C 124.5,148.5 124.5,149.5 124.5,150.5C 117.923,146.926 112.59,141.926 108.5,135.5C 113.499,135.679 117.833,135.345 121.5,134.5C 120.842,129.517 120.342,124.184 120,118.5C 116.667,115.167 113.333,111.833 110,108.5C 108.377,105.673 107.21,102.673 106.5,99.5C 106.994,97.9745 107.661,96.6412 108.5,95.5C 109.764,97.2701 111.264,98.9368 113,100.5C 111.637,91.595 112.637,82.9284 116,74.5C 117.371,71.7339 119.204,69.4006 121.5,67.5C 122.583,67.4606 123.583,67.1272 124.5,66.5C 124.833,67 125.167,67.5 125.5,68C 124.393,69.4402 124.393,70.9402 125.5,72.5C 119.394,86.3443 120.727,99.3443 129.5,111.5 Z"/></g>
<g><path style="opacity:1" fill="#4c4c4c" d="M 253.5,100.5 C 251.519,104.122 249.852,107.789 248.5,111.5C 248.843,109.517 248.176,108.183 246.5,107.5C 248.887,105.087 251.054,102.42 253,99.5C 253.399,99.7284 253.565,100.062 253.5,100.5 Z"/></g>
<g><path style="opacity:1" fill="#931d29" d="M 179.5,108.5 C 181.728,109.322 182.395,110.655 181.5,112.5C 180.295,111.423 179.628,110.09 179.5,108.5 Z"/></g>
<g><path style="opacity:1" fill="#f2483a" d="M 108.5,95.5 C 107.661,96.6412 106.994,97.9745 106.5,99.5C 107.21,102.673 108.377,105.673 110,108.5C 113.333,111.833 116.667,115.167 120,118.5C 120.342,124.184 120.842,129.517 121.5,134.5C 111.389,130.888 104.889,123.888 102,113.5C 100.405,103.056 101.739,93.0562 106,83.5C 107.156,87.4398 107.99,91.4398 108.5,95.5 Z"/></g>
<g><path style="opacity:1" fill="#a8a8a8" d="M 54.5,113.5 C 53.0552,115.063 51.3885,116.396 49.5,117.5C 49.5,116.5 49.5,115.5 49.5,114.5C 50.552,114.649 51.552,114.483 52.5,114C 51.6634,112.989 51.33,111.822 51.5,110.5C 48.538,110.883 47.538,109.883 48.5,107.5C 51.8602,108.276 53.8602,110.276 54.5,113.5 Z"/></g>
<g><path style="opacity:1" fill="#ce1a26" d="M 132.5,86.5 C 131.782,106.733 139.782,122.4 156.5,133.5C 160.535,135.848 164.535,138.182 168.5,140.5C 167.504,140.414 166.671,140.748 166,141.5C 164.538,139.852 162.705,138.852 160.5,138.5C 149.712,133.048 140.378,125.715 132.5,116.5C 131.11,115.101 130.11,113.434 129.5,111.5C 129.523,109.4 128.856,107.567 127.5,106C 128.535,104.726 129.702,103.56 131,102.5C 131.173,96.9842 131.673,91.6509 132.5,86.5 Z"/></g>
<g><path style="opacity:1" fill="#222222" d="M 58.5,109.5 C 58.3398,111.199 58.5065,112.866 59,114.5C 60.4177,111.999 61.4177,112.332 62,115.5C 62.8928,114.289 63.7261,114.289 64.5,115.5C 62.993,116.389 61.6597,117.389 60.5,118.5C 60.1034,117.475 59.4368,117.308 58.5,118C 53.6689,122.721 48.3356,126.388 42.5,129C 44.4606,126.037 46.794,123.371 49.5,121C 52.9382,120.08 55.9382,118.413 58.5,116C 57.1667,115.333 55.8333,115.333 54.5,116C 52.9299,117.834 51.2632,118.334 49.5,117.5C 51.3885,116.396 53.0552,115.063 54.5,113.5C 56.1942,112.473 57.5275,111.139 58.5,109.5 Z"/></g>
<g><path style="opacity:1" fill="#edae9d" d="M 186.5,121.5 C 180.67,114.577 174.337,113.911 167.5,119.5C 167.267,117.938 166.6,116.605 165.5,115.5C 166.289,115.217 166.956,114.717 167.5,114C 166.167,113 164.833,112 163.5,111C 169.928,110.25 175.928,111.583 181.5,115C 183.79,116.777 185.457,118.944 186.5,121.5 Z"/></g>
<g><path style="opacity:1" fill="#404040" d="M 45.5,121.5 C 44.1667,124.833 41.8333,127.167 38.5,128.5C 39.8333,125.167 42.1667,122.833 45.5,121.5 Z"/></g>
<g><path style="opacity:1" fill="#d2d2d2" d="M 60.5,118.5 C 54.0445,123.453 48.0445,128.953 42.5,135C 41.255,135.791 39.9217,136.291 38.5,136.5C 37.3998,135.442 36.0664,134.608 34.5,134C 37.0467,133.448 39.0467,132.114 40.5,130C 39.5842,129.722 38.9175,129.222 38.5,128.5C 41.8333,127.167 44.1667,124.833 45.5,121.5C 46.5,119.833 47.8333,118.5 49.5,117.5C 51.2632,118.334 52.9299,117.834 54.5,116C 55.8333,115.333 57.1667,115.333 58.5,116C 55.9382,118.413 52.9382,120.08 49.5,121C 46.794,123.371 44.4606,126.037 42.5,129C 48.3356,126.388 53.6689,122.721 58.5,118C 59.4368,117.308 60.1034,117.475 60.5,118.5 Z"/></g>
<g><path style="opacity:1" fill="#f9d3c7" d="M 165.5,115.5 C 166.6,116.605 167.267,117.938 167.5,119.5C 166.411,123.078 166.245,126.745 167,130.5C 168.923,134.258 171.423,137.591 174.5,140.5C 172.599,141.231 170.599,141.231 168.5,140.5C 164.535,138.182 160.535,135.848 156.5,133.5C 154.197,124.772 157.197,118.772 165.5,115.5 Z"/></g>
<g><path style="opacity:1" fill="#f21f28" d="M 132.5,116.5 C 140.378,125.715 149.712,133.048 160.5,138.5C 160.5,139.833 160.5,141.167 160.5,142.5C 159.5,142.5 158.5,142.5 157.5,142.5C 157.5,143.833 157.5,145.167 157.5,146.5C 155.143,146.337 152.81,146.503 150.5,147C 155.416,147.632 155.749,149.132 151.5,151.5C 149.698,152.458 147.698,153.125 145.5,153.5C 140.489,153.666 135.489,153.499 130.5,153C 128.277,152.434 126.277,151.6 124.5,150.5C 124.5,149.5 124.5,148.5 124.5,147.5C 125.552,147.649 126.552,147.483 127.5,147C 124.938,147.238 122.604,146.238 120.5,144C 121.167,143.333 121.833,142.667 122.5,142C 118.722,141.223 115.389,139.556 112.5,137C 120.71,138.459 129.043,139.126 137.5,139C 135.545,138.047 133.878,136.713 132.5,135C 132.403,128.849 132.403,122.682 132.5,116.5 Z"/></g>
<g><path style="opacity:1" fill="#5e5e5e" d="M 38.5,139.5 C 38.8746,140.793 39.2079,142.126 39.5,143.5C 37.8793,143.213 36.8793,142.213 36.5,140.5C 36.9569,139.702 37.6236,139.369 38.5,139.5 Z"/></g>
<g><path style="opacity:1" fill="#dc1927" d="M 186.5,121.5 C 187.674,122.514 188.34,123.847 188.5,125.5C 188.577,126.75 189.244,127.583 190.5,128C 190.417,131.5 190.417,135 190.5,138.5C 191.167,139.167 191.833,139.833 192.5,140.5C 191.833,142.5 191.167,144.5 190.5,146.5C 189.624,147.251 188.624,147.751 187.5,148C 187.957,148.414 188.291,148.914 188.5,149.5C 186.632,150.913 184.632,152.08 182.5,153C 183.252,153.671 183.586,154.504 183.5,155.5C 170.987,163.178 157.654,165.511 143.5,162.5C 142.737,161.732 141.737,161.232 140.5,161C 139.748,160.329 139.414,159.496 139.5,158.5C 146.602,158.577 152.602,156.243 157.5,151.5C 155.599,150.769 153.599,150.769 151.5,151.5C 155.749,149.132 155.416,147.632 150.5,147C 152.81,146.503 155.143,146.337 157.5,146.5C 157.5,145.167 157.5,143.833 157.5,142.5C 158.5,142.5 159.5,142.5 160.5,142.5C 160.5,141.167 160.5,139.833 160.5,138.5C 162.705,138.852 164.538,139.852 166,141.5C 166.671,140.748 167.504,140.414 168.5,140.5C 170.599,141.231 172.599,141.231 174.5,140.5C 171.423,137.591 168.923,134.258 167,130.5C 166.245,126.745 166.411,123.078 167.5,119.5C 174.337,113.911 180.67,114.577 186.5,121.5 Z"/></g>
<g><path style="opacity:1" fill="#c7c7c7" d="M 69.5,141.5 C 70.9136,143.138 70.5803,144.472 68.5,145.5C 68.8148,147.483 69.8148,148.816 71.5,149.5C 71.5,150.833 71.5,152.167 71.5,153.5C 68.9412,153.61 66.6079,152.944 64.5,151.5C 67.2291,149.633 66.8957,148.633 63.5,148.5C 63.3679,153.439 62.0345,153.772 59.5,149.5C 59.5,148.167 59.5,146.833 59.5,145.5C 62.2697,143.059 65.603,141.726 69.5,141.5 Z"/></g>
<g><path style="opacity:1" fill="#646464" d="M 69.5,141.5 C 71.0481,141.821 71.7148,142.821 71.5,144.5C 72.675,144.281 73.675,144.614 74.5,145.5C 73.8201,146.86 73.1534,148.193 72.5,149.5C 72.1667,149.5 71.8333,149.5 71.5,149.5C 69.8148,148.816 68.8148,147.483 68.5,145.5C 70.5803,144.472 70.9136,143.138 69.5,141.5 Z"/></g>
<g><path style="opacity:1" fill="#848484" d="M 59.5,145.5 C 59.5,146.833 59.5,148.167 59.5,149.5C 58.5655,150.568 58.2322,151.901 58.5,153.5C 61.9139,153.736 65.2473,154.402 68.5,155.5C 64.5217,156.366 60.8551,156.366 57.5,155.5C 56.5149,153.494 55.1816,151.827 53.5,150.5C 54.452,149.548 55.452,148.548 56.5,147.5C 57.086,147.709 57.586,148.043 58,148.5C 58.2321,147.263 58.7321,146.263 59.5,145.5 Z"/></g>
<g><path style="opacity:1" fill="#7e7e7e" d="M 243.5,151.5 C 243.5,152.167 243.5,152.833 243.5,153.5C 240.165,154.339 236.832,154.839 233.5,155C 236.605,153.132 239.938,151.965 243.5,151.5 Z"/></g>
<g><path style="opacity:1" fill="#2b2b2b" d="M 38.5,145.5 C 39.1787,147.814 40.512,148.147 42.5,146.5C 43.1408,150.371 44.6408,151.038 47,148.5C 46.6557,150.258 46.1557,152.091 45.5,154C 45.528,155.07 45.8614,155.903 46.5,156.5C 45.3583,158.433 43.6917,159.933 41.5,161C 40.365,161.749 39.365,161.583 38.5,160.5C 39.6853,159.147 41.0186,157.98 42.5,157C 41.5004,154.909 42.1671,153.243 44.5,152C 43.2298,151.1 42.2298,149.934 41.5,148.5C 40.5,149.167 39.5,149.833 38.5,150.5C 37.2121,148.701 37.2121,147.035 38.5,145.5 Z"/></g>
<g><path style="opacity:1" fill="#323232" d="M 248.5,134.5 C 249.843,139.453 250.843,144.453 251.5,149.5C 250.518,148.859 249.518,148.193 248.5,147.5C 248.167,147.833 247.833,148.167 247.5,148.5C 248.833,151.5 248.833,154.5 247.5,157.5C 250.071,158.905 250.071,160.238 247.5,161.5C 247.672,162.492 247.338,163.158 246.5,163.5C 246.5,162.5 246.5,161.5 246.5,160.5C 244.167,161.167 241.833,161.833 239.5,162.5C 239.5,163.5 239.5,164.5 239.5,165.5C 237.139,165.674 234.806,166.007 232.5,166.5C 233.987,164.395 235.987,162.728 238.5,161.5C 239.172,160.051 239.839,158.718 240.5,157.5C 240.899,160.971 242.399,161.304 245,158.5C 246.289,155.649 246.789,152.649 246.5,149.5C 247.449,147.263 248.116,144.929 248.5,142.5C 246.181,143.167 243.847,143.334 241.5,143C 243.158,141.337 245.158,140.504 247.5,140.5C 247.833,138.5 248.167,136.5 248.5,134.5 Z"/></g>
<g><path style="opacity:1" fill="#6a6a6a" d="M 79.5,159.5 C 75.9007,159.738 75.5673,158.738 78.5,156.5C 78.1667,156.167 77.8333,155.833 77.5,155.5C 76.6667,156.5 75.8333,157.5 75,158.5C 74.5357,157.906 74.369,157.239 74.5,156.5C 74.8565,155.13 75.6898,154.13 77,153.5C 79.0989,154.287 81.2655,154.62 83.5,154.5C 83.6574,157.344 82.324,159.011 79.5,159.5 Z"/></g>
<g><path style="opacity:1" fill="#c11925" d="M 139.5,158.5 C 141.869,157.31 143.869,155.643 145.5,153.5C 147.698,153.125 149.698,152.458 151.5,151.5C 153.599,150.769 155.599,150.769 157.5,151.5C 152.602,156.243 146.602,158.577 139.5,158.5 Z"/></g>
<g><path style="opacity:1" fill="#777777" d="M 251.5,149.5 C 251.354,153.519 251.021,157.519 250.5,161.5C 249.5,161.5 248.5,161.5 247.5,161.5C 250.071,160.238 250.071,158.905 247.5,157.5C 248.833,154.5 248.833,151.5 247.5,148.5C 247.833,148.167 248.167,147.833 248.5,147.5C 249.518,148.193 250.518,148.859 251.5,149.5 Z"/></g>
<g><path style="opacity:1" fill="#cbcbcb" d="M 246.5,149.5 C 246.789,152.649 246.289,155.649 245,158.5C 242.399,161.304 240.899,160.971 240.5,157.5C 242.262,156.738 243.262,155.404 243.5,153.5C 243.5,152.833 243.5,152.167 243.5,151.5C 244.5,150.833 245.5,150.167 246.5,149.5 Z"/></g>
<g><path style="opacity:1" fill="#ad1b27" d="M 139.5,158.5 C 139.414,159.496 139.748,160.329 140.5,161C 141.737,161.232 142.737,161.732 143.5,162.5C 140.529,162.565 137.862,161.731 135.5,160C 136.745,159.209 138.078,158.709 139.5,158.5 Z"/></g>
<g><path style="opacity:1" fill="#ad000e" d="M 206.5,159.5 C 207.675,159.281 208.675,159.614 209.5,160.5C 202.363,172.777 196.863,185.777 193,199.5C 191.556,201.155 189.722,201.822 187.5,201.5C 186.869,197.196 186.369,192.863 186,188.5C 183.901,193.865 181.401,199.032 178.5,204C 177.216,204.684 176.049,204.517 175,203.5C 174.833,202 174.667,200.5 174.5,199C 176.288,187.346 178.788,175.846 182,164.5C 183.011,163.663 184.178,163.33 185.5,163.5C 183.647,172.562 181.481,181.562 179,190.5C 178.333,192.833 178.333,195.167 179,197.5C 182.375,189.833 186.208,182.5 190.5,175.5C 189.594,182.387 189.594,189.387 190.5,196.5C 194.484,183.536 199.818,171.203 206.5,159.5 Z"/></g>
<g><path style="opacity:1" fill="#808080" d="M 60.5,157.5 C 61.1577,158.398 61.8243,159.398 62.5,160.5C 65.3452,158.809 67.6785,159.143 69.5,161.5C 68.5326,162.806 67.1993,163.473 65.5,163.5C 61.2602,164.241 59.5935,162.241 60.5,157.5 Z"/></g>
<g><path style="opacity:1" fill="#b8b8b8" d="M 68.5,168.5 C 67.2086,167.527 67.2086,166.527 68.5,165.5C 67.3984,164.824 66.3984,164.158 65.5,163.5C 67.1993,163.473 68.5326,162.806 69.5,161.5C 70.1577,160.602 70.8243,159.602 71.5,158.5C 71.9972,160.216 72.3306,161.883 72.5,163.5C 71.4924,165.499 70.159,167.166 68.5,168.5 Z"/></g>
<g><path style="opacity:1" fill="#898989" d="M 246.5,163.5 C 244.481,162.656 242.815,163.323 241.5,165.5C 242.325,166.386 243.325,166.719 244.5,166.5C 244.5,167.5 244.5,168.5 244.5,169.5C 242.956,169.297 241.622,168.63 240.5,167.5C 238.08,170.2 235.08,171.534 231.5,171.5C 231.5,173.167 231.5,174.833 231.5,176.5C 231.167,176.5 230.833,176.5 230.5,176.5C 230.797,173.276 230.13,170.276 228.5,167.5C 229.689,166.571 231.022,166.238 232.5,166.5C 234.806,166.007 237.139,165.674 239.5,165.5C 239.5,164.5 239.5,163.5 239.5,162.5C 241.833,161.833 244.167,161.167 246.5,160.5C 246.5,161.5 246.5,162.5 246.5,163.5 Z"/></g>
<g><path style="opacity:1" fill="#515151" d="M 66.5,168.5 C 65.5326,169.806 64.1993,170.473 62.5,170.5C 62.147,168.365 62.9803,167.032 65,166.5C 66.0299,166.836 66.5299,167.503 66.5,168.5 Z"/></g>
<g><path style="opacity:1" fill="#2b2b2b" d="M 71.5,149.5 C 71.8333,149.5 72.1667,149.5 72.5,149.5C 72.9267,152.01 73.5933,154.343 74.5,156.5C 74.369,157.239 74.5357,157.906 75,158.5C 75.8333,157.5 76.6667,156.5 77.5,155.5C 77.8333,155.833 78.1667,156.167 78.5,156.5C 75.5673,158.738 75.9007,159.738 79.5,159.5C 79.1788,161.048 78.1788,161.715 76.5,161.5C 75.9087,164.614 74.242,167.114 71.5,169C 72.4231,171.041 72.7564,173.208 72.5,175.5C 71.1667,175.5 69.8333,175.5 68.5,175.5C 68.7845,177.415 68.4511,179.081 67.5,180.5C 66.5356,176.207 67.8689,173.04 71.5,171C 70.0577,170.623 69.0577,169.79 68.5,168.5C 70.159,167.166 71.4924,165.499 72.5,163.5C 72.3306,161.883 71.9972,160.216 71.5,158.5C 70.8243,159.602 70.1577,160.602 69.5,161.5C 67.6785,159.143 65.3452,158.809 62.5,160.5C 61.8243,159.398 61.1577,158.398 60.5,157.5C 59.5,156.833 58.5,156.167 57.5,155.5C 60.8551,156.366 64.5217,156.366 68.5,155.5C 65.2473,154.402 61.9139,153.736 58.5,153.5C 58.2322,151.901 58.5655,150.568 59.5,149.5C 62.0345,153.772 63.3679,153.439 63.5,148.5C 66.8957,148.633 67.2291,149.633 64.5,151.5C 66.6079,152.944 68.9412,153.61 71.5,153.5C 71.5,152.167 71.5,150.833 71.5,149.5 Z"/></g>
<g><path style="opacity:1" fill="#b51016" d="M 95.5,191.5 C 92.1709,191.215 89.1709,191.882 86.5,193.5C 85.5041,193.414 84.6708,193.748 84,194.5C 81.9932,199.02 80.4932,203.687 79.5,208.5C 81.7028,208.396 83.7028,207.73 85.5,206.5C 88.0006,205.054 90.6673,204.554 93.5,205C 93.9574,205.414 94.2907,205.914 94.5,206.5C 93.7573,207.182 93.0906,207.849 92.5,208.5C 89.5049,208.294 86.8383,208.96 84.5,210.5C 82.1447,211.094 79.978,212.094 78,213.5C 77.228,213.355 76.5613,213.022 76,212.5C 76.3195,208.864 76.8195,205.197 77.5,201.5C 79.1263,198.375 80.4597,195.042 81.5,191.5C 82.6737,190.486 83.3404,189.153 83.5,187.5C 86.332,184.209 87.6653,180.542 87.5,176.5C 93.1773,173.243 99.1773,172.243 105.5,173.5C 105.333,173.833 105.167,174.167 105,174.5C 100.608,175.889 96.1079,176.889 91.5,177.5C 90.1419,181.223 88.4753,184.889 86.5,188.5C 87,188.833 87.5,189.167 88,189.5C 90.7296,188.139 93.5629,187.639 96.5,188C 96.9574,188.414 97.2907,188.914 97.5,189.5C 96.7573,190.182 96.0906,190.849 95.5,191.5 Z"/></g>
<g><path style="opacity:1" fill="#b7171a" d="M 243.5,184.5 C 243.167,184.5 242.833,184.5 242.5,184.5C 242.649,183.448 242.483,182.448 242,181.5C 239.843,183.817 238.343,186.484 237.5,189.5C 236.326,190.514 235.66,191.847 235.5,193.5C 235.5,193.833 235.5,194.167 235.5,194.5C 235.167,194.5 234.833,194.5 234.5,194.5C 230.316,196.49 227.816,195.157 227,190.5C 225.987,192.846 224.321,194.513 222,195.5C 221.228,195.355 220.561,195.022 220,194.5C 218.274,189.055 219.274,184.055 223,179.5C 224.848,176.959 227.348,175.959 230.5,176.5C 230.833,176.5 231.167,176.5 231.5,176.5C 231.532,180.472 230.866,184.306 229.5,188C 229.514,189.385 229.848,190.551 230.5,191.5C 231.947,192.885 232.947,192.552 233.5,190.5C 233.756,187.402 234.422,184.402 235.5,181.5C 236.593,179.651 237.926,177.984 239.5,176.5C 240.167,176.5 240.833,176.5 241.5,176.5C 238.906,182.331 239.239,182.665 242.5,177.5C 243.973,176.26 245.64,175.26 247.5,174.5C 248.476,176.123 247.976,177.457 246,178.5C 245.333,179.5 245.333,180.5 246,181.5C 247.586,180.624 249.086,179.624 250.5,178.5C 250.3,182.344 247.967,184.344 243.5,184.5 Z"/></g>
<g><path style="opacity:1" fill="#a7000d" d="M 210.5,178.5 C 211.5,178.5 212.5,178.5 213.5,178.5C 213.752,181.32 213.252,183.986 212,186.5C 209.957,188.712 207.791,190.712 205.5,192.5C 207.074,193.631 208.741,193.798 210.5,193C 212.681,190.239 215.015,188.406 217.5,187.5C 215.298,192.376 211.631,195.376 206.5,196.5C 205.006,196.291 203.839,195.624 203,194.5C 202.116,187.559 204.616,182.225 210.5,178.5 Z"/></g>
<g><path style="opacity:1" fill="#150100" d="M 225.5,179.5 C 226.873,179.343 228.207,179.51 229.5,180C 227.933,183.525 226.267,187.025 224.5,190.5C 223.675,191.386 222.675,191.719 221.5,191.5C 221.706,187.096 223.039,183.096 225.5,179.5 Z"/></g>
<g><path style="opacity:1" fill="#d2d0d0" d="M 242.5,177.5 C 239.239,182.665 238.906,182.331 241.5,176.5C 240.404,172.711 239.737,172.711 239.5,176.5C 237.926,177.984 236.593,179.651 235.5,181.5C 231.873,182.569 231.539,181.569 234.5,178.5C 233.995,177.081 232.995,176.415 231.5,176.5C 231.5,174.833 231.5,173.167 231.5,171.5C 235.08,171.534 238.08,170.2 240.5,167.5C 241.622,168.63 242.956,169.297 244.5,169.5C 246.482,168.193 248.482,166.859 250.5,165.5C 252.343,167.662 254.01,169.996 255.5,172.5C 254.556,175.392 252.556,175.892 249.5,174C 250.638,172.266 251.138,170.432 251,168.5C 249.415,169.376 248.415,170.709 248,172.5C 247.333,171.833 246.667,171.167 246,170.5C 244.274,172.591 243.107,174.924 242.5,177.5 Z"/></g>
<g><path style="opacity:1" fill="#463939" d="M 241.5,176.5 C 240.833,176.5 240.167,176.5 239.5,176.5C 239.737,172.711 240.404,172.711 241.5,176.5 Z"/></g>
<g><path style="opacity:1" fill="#100100" d="M 209.5,182.5 C 210.239,182.369 210.906,182.536 211.5,183C 210.378,185.124 208.878,186.957 207,188.5C 206.333,187.5 206.333,186.5 207,185.5C 208.045,184.627 208.878,183.627 209.5,182.5 Z"/></g>
<g><path style="opacity:1" fill="#595959" d="M 56.5,187.5 C 53.6397,186.175 51.9731,184.342 51.5,182C 53.3326,180.212 55.3326,180.046 57.5,181.5C 58.735,180.66 59.735,179.66 60.5,178.5C 62.0418,177.699 63.7085,177.366 65.5,177.5C 65.5,178.5 65.5,179.5 65.5,180.5C 63.8008,180.34 62.1341,180.506 60.5,181C 59.7659,183.561 58.4325,185.727 56.5,187.5 Z"/></g>
<g><path style="opacity:1" fill="#161110" d="M 231.5,176.5 C 232.995,176.415 233.995,177.081 234.5,178.5C 231.539,181.569 231.873,182.569 235.5,181.5C 234.422,184.402 233.756,187.402 233.5,190.5C 232.609,191.11 231.609,191.443 230.5,191.5C 229.848,190.551 229.514,189.385 229.5,188C 230.866,184.306 231.532,180.472 231.5,176.5 Z"/></g>
<g><path style="opacity:1" fill="#515151" d="M 62.5,185.5 C 67.6946,185.179 72.6946,185.513 77.5,186.5C 74.979,186.44 72.6457,187.106 70.5,188.5C 67.7892,187.268 65.1226,186.268 62.5,185.5 Z"/></g>
<g><path style="opacity:1" fill="#aa000e" d="M 143.5,168.5 C 144.833,168.5 146.167,168.5 147.5,168.5C 147.521,173.938 146.021,178.938 143,183.5C 140.05,188.118 136.716,192.452 133,196.5C 132.333,198.5 132.333,200.5 133,202.5C 134.912,200.343 136.579,198.009 138,195.5C 138.087,199.981 136.087,203.314 132,205.5C 131.228,205.355 130.561,205.022 130,204.5C 131.23,191.314 135.73,179.314 143.5,168.5 Z"/></g>
<g><path style="opacity:1" fill="#110000" d="M 143.5,172.5 C 143.334,178.865 140.834,184.532 136,189.5C 137.369,183.419 139.869,177.753 143.5,172.5 Z"/></g>
<g><path style="opacity:1" fill="#e4e4e4" d="M 66.5,168.5 C 67.1667,168.5 67.8333,168.5 68.5,168.5C 69.0577,169.79 70.0577,170.623 71.5,171C 67.8689,173.04 66.5356,176.207 67.5,180.5C 65.5273,181.806 63.8606,183.473 62.5,185.5C 65.1226,186.268 67.7892,187.268 70.5,188.5C 72.6457,187.106 74.979,186.44 77.5,186.5C 76.4336,188.701 75.767,191.035 75.5,193.5C 77.5,192.833 79.5,192.167 81.5,191.5C 80.4597,195.042 79.1263,198.375 77.5,201.5C 76.8826,201.389 76.3826,201.056 76,200.5C 75.6232,201.942 74.7899,202.942 73.5,203.5C 72.6136,202.224 71.6136,202.224 70.5,203.5C 70.9569,204.298 71.6236,204.631 72.5,204.5C 73.7914,205.473 73.7914,206.473 72.5,207.5C 68.9367,210.47 67.6034,209.47 68.5,204.5C 65.7493,203.32 63.0826,202.653 60.5,202.5C 59.6143,201.675 59.281,200.675 59.5,199.5C 58.5,199.5 57.5,199.5 56.5,199.5C 56.5,198.167 55.8333,197.5 54.5,197.5C 54.5,196.833 54.5,196.167 54.5,195.5C 57.1667,194.833 57.1667,194.167 54.5,193.5C 56.0694,190.67 58.4027,188.67 61.5,187.5C 60.1125,187.193 58.4458,187.193 56.5,187.5C 58.4325,185.727 59.7659,183.561 60.5,181C 62.1341,180.506 63.8008,180.34 65.5,180.5C 65.5,179.5 65.5,178.5 65.5,177.5C 63.7085,177.366 62.0418,177.699 60.5,178.5C 60.2148,176.712 60.5481,175.045 61.5,173.5C 62.5063,173.938 62.5063,174.604 61.5,175.5C 62.6888,176.429 64.0222,176.762 65.5,176.5C 65.2865,174.856 65.6198,173.356 66.5,172C 64.9419,171.79 63.6085,171.29 62.5,170.5C 64.1993,170.473 65.5326,169.806 66.5,168.5 Z"/></g>
<g><path style="opacity:1" fill="#ab000e" d="M 150.5,202.5 C 148.634,203.014 146.8,203.68 145,204.5C 143.541,204.192 142.374,203.525 141.5,202.5C 140.09,195.216 142.756,189.883 149.5,186.5C 152.082,186.747 152.915,188.08 152,190.5C 150.363,194.637 147.53,197.637 143.5,199.5C 143.887,200.72 144.72,201.387 146,201.5C 149.931,199.903 152.931,197.236 155,193.5C 155.52,195.289 155.187,196.956 154,198.5C 152.624,199.705 151.458,201.038 150.5,202.5 Z"/></g>
<g><path style="opacity:1" fill="#585858" d="M 242.5,184.5 C 242.833,184.5 243.167,184.5 243.5,184.5C 244.153,185.807 244.82,187.14 245.5,188.5C 244.575,189.562 243.575,189.562 242.5,188.5C 241.314,187.039 241.314,185.705 242.5,184.5 Z"/></g>
<g><path style="opacity:1" fill="#b30d14" d="M 122.5,205.5 C 121.833,205.5 121.5,205.833 121.5,206.5C 119.058,208.121 117.725,210.454 117.5,213.5C 116.596,214.209 116.263,215.209 116.5,216.5C 115.609,217.11 114.609,217.443 113.5,217.5C 113.5,217.167 113.5,216.833 113.5,216.5C 114.028,215.153 114.195,213.819 114,212.5C 112.114,215.242 109.614,216.909 106.5,217.5C 108.146,214.19 110.48,211.523 113.5,209.5C 116.503,209.012 117.669,207.345 117,204.5C 115.556,206.155 113.722,206.822 111.5,206.5C 110.765,199.135 113.432,193.301 119.5,189C 122.906,187.76 124.573,188.927 124.5,192.5C 123.197,196.563 122.031,200.563 121,204.5C 123.333,201.167 125.667,197.833 128,194.5C 127.794,198.913 125.96,202.58 122.5,205.5 Z"/></g>
<g><path style="opacity:1" fill="#989494" d="M 77.5,186.5 C 79.4352,187.15 81.4352,187.483 83.5,187.5C 83.3404,189.153 82.6737,190.486 81.5,191.5C 79.5,192.167 77.5,192.833 75.5,193.5C 75.767,191.035 76.4336,188.701 77.5,186.5 Z"/></g>
<g><path style="opacity:1" fill="#200400" d="M 147.5,189.5 C 148.376,189.369 149.043,189.702 149.5,190.5C 148.483,193.696 146.483,195.529 143.5,196C 145.058,193.948 146.392,191.781 147.5,189.5 Z"/></g>
<g><path style="opacity:1" fill="#1f1c1c" d="M 95.5,191.5 C 95.8656,192.695 96.699,193.361 98,193.5C 99.3731,192.485 100.54,192.485 101.5,193.5C 97.8428,197.854 96.6761,202.854 98,208.5C 101.408,210.223 103.741,209.223 105,205.5C 105.41,206.901 105.91,208.234 106.5,209.5C 103.985,211.764 101.985,214.431 100.5,217.5C 98.4312,218.535 96.7646,217.868 95.5,215.5C 99.9662,211.413 99.2995,210.079 93.5,211.5C 92.6143,210.675 92.281,209.675 92.5,208.5C 93.0906,207.849 93.7573,207.182 94.5,206.5C 94.2907,205.914 93.9574,205.414 93.5,205C 90.6673,204.554 88.0006,205.054 85.5,206.5C 85.629,202.182 85.9624,197.849 86.5,193.5C 89.1709,191.882 92.1709,191.215 95.5,191.5 Z"/></g>
<g><path style="opacity:1" fill="#b10210" d="M 110.5,208.5 C 109.432,209.434 108.099,209.768 106.5,209.5C 105.91,208.234 105.41,206.901 105,205.5C 103.741,209.223 101.408,210.223 98,208.5C 96.6761,202.854 97.8428,197.854 101.5,193.5C 102.627,192.878 103.627,192.045 104.5,191C 106.112,190.28 107.612,190.446 109,191.5C 109.534,195.465 109.034,199.298 107.5,203C 107.12,205.703 108.12,207.537 110.5,208.5 Z"/></g>
<g><path style="opacity:1" fill="#d88d8b" d="M 233.5,190.5 C 232.947,192.552 231.947,192.885 230.5,191.5C 231.609,191.443 232.609,191.11 233.5,190.5 Z"/></g>
<g><path style="opacity:1" fill="#564a4a" d="M 237.5,189.5 C 238.679,191.441 238.013,192.774 235.5,193.5C 235.66,191.847 236.326,190.514 237.5,189.5 Z"/></g>
<g><path style="opacity:1" fill="#c3c1c1" d="M 242.5,184.5 C 241.314,185.705 241.314,187.039 242.5,188.5C 240.974,189.105 239.974,190.271 239.5,192C 241.405,192.826 241.739,193.993 240.5,195.5C 239.833,194.833 239.167,194.167 238.5,193.5C 237.583,194.127 236.583,194.461 235.5,194.5C 235.5,194.167 235.5,193.833 235.5,193.5C 238.013,192.774 238.679,191.441 237.5,189.5C 238.343,186.484 239.843,183.817 242,181.5C 242.483,182.448 242.649,183.448 242.5,184.5 Z"/></g>
<g><path style="opacity:1" fill="#323232" d="M 54.5,193.5 C 57.1667,194.167 57.1667,194.833 54.5,195.5C 54.5,194.833 54.5,194.167 54.5,193.5 Z"/></g>
<g><path style="opacity:1" fill="#6c6c6c" d="M 54.5,197.5 C 55.8333,197.5 56.5,198.167 56.5,199.5C 55.5729,201.476 54.2395,201.809 52.5,200.5C 52.9424,199.261 53.6091,198.261 54.5,197.5 Z"/></g>
<g><path style="opacity:1" fill="#1b0806" d="M 119.5,191.5 C 121.225,191.843 121.725,192.843 121,194.5C 119.87,198.31 117.87,201.643 115,204.5C 114.308,203.975 113.808,203.308 113.5,202.5C 114.736,198.357 116.736,194.691 119.5,191.5 Z"/></g>
<g><path style="opacity:1" fill="#1b0f0e" d="M 104.5,193.5 C 105.756,193.461 106.756,193.961 107.5,195C 105.618,197.978 104.118,201.145 103,204.5C 102.311,205.357 101.478,206.023 100.5,206.5C 99.7468,201.637 101.08,197.304 104.5,193.5 Z"/></g>
<g><path style="opacity:1" fill="#616161" d="M 213.5,201.5 C 214.5,201.5 215.5,201.5 216.5,201.5C 216.5,202.167 216.5,202.833 216.5,203.5C 214.952,203.821 214.285,204.821 214.5,206.5C 213.325,206.719 212.325,206.386 211.5,205.5C 212.63,204.378 213.297,203.044 213.5,201.5 Z"/></g>
<g><path style="opacity:1" fill="#363636" d="M 73.5,203.5 C 72.8333,203.5 72.5,203.833 72.5,204.5C 71.6236,204.631 70.9569,204.298 70.5,203.5C 71.6136,202.224 72.6136,202.224 73.5,203.5 Z"/></g>
<g><path style="opacity:1" fill="#a39a9a" d="M 86.5,193.5 C 85.9624,197.849 85.629,202.182 85.5,206.5C 83.7028,207.73 81.7028,208.396 79.5,208.5C 80.4932,203.687 81.9932,199.02 84,194.5C 84.6708,193.748 85.5041,193.414 86.5,193.5 Z"/></g>
<g><path style="opacity:1" fill="#b5b5b5" d="M 213.5,201.5 C 213.297,203.044 212.63,204.378 211.5,205.5C 212.325,206.386 213.325,206.719 214.5,206.5C 214.285,204.821 214.952,203.821 216.5,203.5C 216.66,205.199 216.494,206.866 216,208.5C 213.907,207.754 211.907,207.421 210,207.5C 209.283,208.044 208.783,208.711 208.5,209.5C 207.833,209.833 207.167,210.167 206.5,210.5C 206.158,209.662 205.492,209.328 204.5,209.5C 204.318,207.409 204.652,205.409 205.5,203.5C 206.167,202.167 206.833,202.167 207.5,203.5C 206.41,204.609 206.41,205.609 207.5,206.5C 208.386,205.675 208.719,204.675 208.5,203.5C 210.322,203.169 211.989,202.502 213.5,201.5 Z"/></g>
<g><path style="opacity:1" fill="#737373" d="M 216.5,201.5 C 218.265,200.539 220.265,200.205 222.5,200.5C 224.794,204.127 227.46,207.461 230.5,210.5C 230.167,211.5 229.5,212.167 228.5,212.5C 226.807,210.973 224.973,209.64 223,208.5C 222.383,207.551 222.549,206.718 223.5,206C 222.552,205.517 221.552,205.351 220.5,205.5C 220.5,204.167 220.5,202.833 220.5,201.5C 219.167,201.5 217.833,201.5 216.5,201.5 Z"/></g>
<g><path style="opacity:1" fill="#d2d2d2" d="M 163.5,208.5 C 165,211.461 164.667,214.128 162.5,216.5C 161.192,212.6 160.192,208.6 159.5,204.5C 162.5,204.167 163.833,205.5 163.5,208.5 Z"/></g>
<g><path style="opacity:1" fill="#181717" d="M 141.5,202.5 C 142.374,203.525 143.541,204.192 145,204.5C 146.8,203.68 148.634,203.014 150.5,202.5C 151.404,203.209 151.737,204.209 151.5,205.5C 152.791,205.263 153.791,205.596 154.5,206.5C 153.503,206.47 152.836,206.97 152.5,208C 155.001,212.17 156.167,216.67 156,221.5C 155.101,219.484 153.767,217.817 152,216.5C 152.086,219.702 153.086,222.702 155,225.5C 156.11,223.963 157.61,223.297 159.5,223.5C 159.5,224.5 159.5,225.5 159.5,226.5C 158.167,226.5 156.833,226.5 155.5,226.5C 154.938,230.13 153.605,230.797 151.5,228.5C 150.308,225.438 148.808,222.438 147,219.5C 146.28,217.745 145.113,216.911 143.5,217C 142.978,217.561 142.645,218.228 142.5,219C 144.395,223.082 146.061,227.249 147.5,231.5C 147.043,232.298 146.376,232.631 145.5,232.5C 144.307,228.776 142.141,225.776 139,223.5C 139.736,226.407 140.07,229.407 140,232.5C 137.316,229.298 135.483,225.632 134.5,221.5C 133.311,220.571 131.978,220.238 130.5,220.5C 130.421,219.07 130.754,217.736 131.5,216.5C 130.68,214.026 129.68,211.693 128.5,209.5C 128.167,208.833 127.833,208.167 127.5,207.5C 129.467,207.261 131.301,207.594 133,208.5C 135.305,206.07 137.472,206.403 139.5,209.5C 139.833,209.333 140.167,209.167 140.5,209C 139.331,206.993 138.665,204.827 138.5,202.5C 139.5,202.5 140.5,202.5 141.5,202.5 Z"/></g>
<g><path style="opacity:1" fill="#8d8d8d" d="M 127.5,207.5 C 127.833,208.167 128.167,208.833 128.5,209.5C 127.711,209.783 127.044,210.283 126.5,211C 127.489,212.82 128.489,214.653 129.5,216.5C 129.457,217.416 129.124,218.083 128.5,218.5C 126.937,216.27 124.937,214.27 122.5,212.5C 121.652,210.591 121.318,208.591 121.5,206.5C 121.5,205.833 121.833,205.5 122.5,205.5C 123.117,205.611 123.617,205.944 124,206.5C 125.217,204.388 126.383,204.721 127.5,207.5 Z"/></g>
<g><path style="opacity:1" fill="#5e5e5e" d="M 128.5,209.5 C 129.68,211.693 130.68,214.026 131.5,216.5C 130.754,217.736 130.421,219.07 130.5,220.5C 128.61,220.297 127.11,220.963 126,222.5C 125.517,221.552 125.351,220.552 125.5,219.5C 126.791,219.737 127.791,219.404 128.5,218.5C 129.124,218.083 129.457,217.416 129.5,216.5C 128.489,214.653 127.489,212.82 126.5,211C 127.044,210.283 127.711,209.783 128.5,209.5 Z"/></g>
<g><path style="opacity:1" fill="#c1c1c1" d="M 170.5,214.5 C 170.565,214.938 170.399,215.272 170,215.5C 169.097,214.299 167.931,213.465 166.5,213C 165.402,212.23 165.402,211.397 166.5,210.5C 167.386,209.224 168.386,209.224 169.5,210.5C 168.567,211.985 168.9,213.318 170.5,214.5 Z"/></g>
<g><path style="opacity:1" fill="#202020" d="M 208.5,209.5 C 210.548,213.404 209.548,215.738 205.5,216.5C 205.517,214.435 205.85,212.435 206.5,210.5C 207.167,210.167 207.833,209.833 208.5,209.5 Z"/></g>
<g><path style="opacity:1" fill="#252323" d="M 121.5,206.5 C 121.318,208.591 121.652,210.591 122.5,212.5C 124.937,214.27 126.937,216.27 128.5,218.5C 127.791,219.404 126.791,219.737 125.5,219.5C 123.688,219.229 122.022,218.562 120.5,217.5C 120.709,216.914 121.043,216.414 121.5,216C 119.867,215.52 118.534,214.687 117.5,213.5C 117.725,210.454 119.058,208.121 121.5,206.5 Z"/></g>
<g><path style="opacity:1" fill="#6d6d6d" d="M 163.5,208.5 C 164.222,209.551 165.222,210.218 166.5,210.5C 165.402,211.397 165.402,212.23 166.5,213C 167.931,213.465 169.097,214.299 170,215.5C 170.399,215.272 170.565,214.938 170.5,214.5C 171.404,215.209 171.737,216.209 171.5,217.5C 170.193,216.847 168.86,216.18 167.5,215.5C 166.494,215.938 166.494,216.604 167.5,217.5C 166.675,218.386 165.675,218.719 164.5,218.5C 164.768,220.099 164.434,221.432 163.5,222.5C 162.326,221.486 161.66,220.153 161.5,218.5C 162.338,218.158 162.672,217.492 162.5,216.5C 164.667,214.128 165,211.461 163.5,208.5 Z"/></g>
<g><path style="opacity:1" fill="#bcbbbb" d="M 92.5,208.5 C 92.281,209.675 92.6143,210.675 93.5,211.5C 99.2995,210.079 99.9662,211.413 95.5,215.5C 96.7646,217.868 98.4312,218.535 100.5,217.5C 100.489,219.017 99.8228,220.184 98.5,221C 100.808,222.936 103.475,223.769 106.5,223.5C 106.48,221.857 107.147,220.524 108.5,219.5C 107.624,218.749 106.624,218.249 105.5,218C 105.728,217.601 106.062,217.435 106.5,217.5C 109.614,216.909 112.114,215.242 114,212.5C 114.195,213.819 114.028,215.153 113.5,216.5C 110.68,217.465 109.347,219.465 109.5,222.5C 110.5,222.5 111.5,222.5 112.5,222.5C 112.232,220.901 112.566,219.568 113.5,218.5C 114.968,219.779 115.635,221.446 115.5,223.5C 110.327,223.884 105.327,224.718 100.5,226C 98.1614,224.677 95.9947,223.177 94,221.5C 93.6667,221.833 93.3333,222.167 93,222.5C 92.5078,221.451 92.6744,220.451 93.5,219.5C 92.2634,218.719 91.2634,217.719 90.5,216.5C 89.3112,215.571 87.9778,215.238 86.5,215.5C 86.9227,213.219 86.256,211.552 84.5,210.5C 86.8383,208.96 89.5049,208.294 92.5,208.5 Z"/></g>
<g><path style="opacity:1" fill="#c1c1c1" d="M 154.5,206.5 C 155.685,207.857 156.685,209.357 157.5,211C 157.265,211.873 156.931,212.707 156.5,213.5C 158.844,214.551 160.511,216.218 161.5,218.5C 161.66,220.153 162.326,221.486 163.5,222.5C 162.167,223.833 160.833,225.167 159.5,226.5C 159.5,225.5 159.5,224.5 159.5,223.5C 157.61,223.297 156.11,223.963 155,225.5C 153.086,222.702 152.086,219.702 152,216.5C 153.767,217.817 155.101,219.484 156,221.5C 156.167,216.67 155.001,212.17 152.5,208C 152.836,206.97 153.503,206.47 154.5,206.5 Z"/></g>
<g><path style="opacity:1" fill="#e9e8e8" d="M 110.5,208.5 C 111.791,208.263 112.791,208.596 113.5,209.5C 110.48,211.523 108.146,214.19 106.5,217.5C 106.062,217.435 105.728,217.601 105.5,218C 106.624,218.249 107.624,218.749 108.5,219.5C 107.147,220.524 106.48,221.857 106.5,223.5C 103.475,223.769 100.808,222.936 98.5,221C 99.8228,220.184 100.489,219.017 100.5,217.5C 101.985,214.431 103.985,211.764 106.5,209.5C 108.099,209.768 109.432,209.434 110.5,208.5 Z"/></g>
<g><path style="opacity:1" fill="#585656" d="M 113.5,216.5 C 113.5,216.833 113.5,217.167 113.5,217.5C 113.5,217.833 113.5,218.167 113.5,218.5C 112.566,219.568 112.232,220.901 112.5,222.5C 111.5,222.5 110.5,222.5 109.5,222.5C 109.347,219.465 110.68,217.465 113.5,216.5 Z"/></g>
<g><path style="opacity:1" fill="#262626" d="M 199.5,214.5 C 200.662,220.127 201.162,225.794 201,231.5C 200.584,229.45 199.417,228.116 197.5,227.5C 197.011,226.005 196.345,224.671 195.5,223.5C 193.727,220.324 194.727,218.657 198.5,218.5C 198.232,216.901 198.566,215.568 199.5,214.5 Z"/></g>
<g><path style="opacity:1" fill="#767676" d="M 202.5,211.5 C 203.331,215.476 203.497,219.476 203,223.5C 201.711,220.649 201.211,217.649 201.5,214.5C 201.263,213.209 201.596,212.209 202.5,211.5 Z"/></g>
<g><path style="opacity:1" fill="#1d1d1d" d="M 167.5,222.5 C 168.833,222.5 170.167,222.5 171.5,222.5C 171.833,225.5 170.5,226.833 167.5,226.5C 167.5,225.167 167.5,223.833 167.5,222.5 Z"/></g>
<g><path style="opacity:1" fill="#b6b6b6" d="M 159.5,226.5 C 158.602,227.158 157.602,227.824 156.5,228.5C 156.709,229.086 157.043,229.586 157.5,230C 154.553,230.112 153.22,231.612 153.5,234.5C 152.325,234.719 151.325,234.386 150.5,233.5C 151.309,231.929 151.643,230.262 151.5,228.5C 153.605,230.797 154.938,230.13 155.5,226.5C 156.833,226.5 158.167,226.5 159.5,226.5 Z"/></g>
<g><path style="opacity:1" fill="#2c2c2c" d="M 230.5,224.5 C 232.912,224.244 234.579,225.244 235.5,227.5C 232.167,229.252 230.501,228.252 230.5,224.5 Z"/></g>
<g><path style="opacity:1" fill="#7f7f7f" d="M 195.5,223.5 C 196.345,224.671 197.011,226.005 197.5,227.5C 196.596,228.209 196.263,229.209 196.5,230.5C 195.532,228.393 195.198,226.059 195.5,223.5 Z"/></g>
<g><path style="opacity:1" fill="#d4d3d3" d="M 117.5,213.5 C 118.534,214.687 119.867,215.52 121.5,216C 121.043,216.414 120.709,216.914 120.5,217.5C 122.022,218.562 123.688,219.229 125.5,219.5C 125.351,220.552 125.517,221.552 126,222.5C 127.11,220.963 128.61,220.297 130.5,220.5C 131.978,220.238 133.311,220.571 134.5,221.5C 135.483,225.632 137.316,229.298 140,232.5C 140.07,229.407 139.736,226.407 139,223.5C 142.141,225.776 144.307,228.776 145.5,232.5C 142.657,232.942 139.991,233.942 137.5,235.5C 133.077,235.335 128.743,235.335 124.5,235.5C 124.167,235.167 123.833,234.833 123.5,234.5C 125.074,233.016 126.407,231.349 127.5,229.5C 126.635,228.417 125.635,228.251 124.5,229C 123.315,230.353 121.981,231.52 120.5,232.5C 119.614,231.675 119.281,230.675 119.5,229.5C 120.552,229.649 121.552,229.483 122.5,229C 120.868,227.69 119.201,227.19 117.5,227.5C 117.709,226.914 118.043,226.414 118.5,226C 116.381,223.782 116.048,221.282 117.5,218.5C 118.192,219.025 118.692,219.692 119,220.5C 119.49,219.207 119.657,217.873 119.5,216.5C 118.5,216.5 117.5,216.5 116.5,216.5C 116.263,215.209 116.596,214.209 117.5,213.5 Z"/></g>
<g><path style="opacity:1" fill="#202020" d="M 226.5,229.5 C 228.196,229.685 229.529,230.519 230.5,232C 228.055,232.91 226.722,232.076 226.5,229.5 Z"/></g>
<g><path style="opacity:1" fill="#2d2d2d" d="M 164.5,230.5 C 166.885,231.867 166.552,233.201 163.5,234.5C 163.167,234.167 162.833,233.833 162.5,233.5C 163.193,232.482 163.859,231.482 164.5,230.5 Z"/></g>
<g><path style="opacity:1" fill="#3c3c3c" d="M 210.5,233.5 C 211.995,233.415 212.995,234.081 213.5,235.5C 211.604,236.639 210.604,235.973 210.5,233.5 Z"/></g>
<g><path style="opacity:1" fill="#393939" d="M 216.5,234.5 C 219.076,234.722 219.91,236.055 219,238.5C 217.294,237.692 216.461,236.359 216.5,234.5 Z"/></g>
<g><path style="opacity:1" fill="#2b2b2b" d="M 166.5,237.5 C 167.5,237.5 168.5,237.5 169.5,237.5C 168.754,241.31 167.754,241.31 166.5,237.5 Z"/></g>
<g><path style="opacity:1" fill="#232323" d="M 179.5,226.5 C 181.585,232.968 183.252,239.635 184.5,246.5C 182.833,246.5 181.167,246.5 179.5,246.5C 179.702,244.05 179.369,241.717 178.5,239.5C 179.376,239.631 180.043,239.298 180.5,238.5C 178.749,234.968 177.916,231.302 178,227.5C 179.087,229.932 179.587,229.598 179.5,226.5 Z"/></g>
<g><path style="opacity:1" fill="#353535" d="M 169.5,241.5 C 171.337,241.639 171.67,242.306 170.5,243.5C 169.702,243.043 169.369,242.376 169.5,241.5 Z"/></g>
<g><path style="opacity:1" fill="#8f8f8f" d="M 195.5,246.5 C 194.5,246.5 193.5,246.5 192.5,246.5C 192.193,231.862 193.193,231.862 195.5,246.5 Z"/></g>
</svg>
